Kufam-Bold.ufo
<glyph name="exclam" format="2">
  <advance width="343.6"/>
  <unicode hex="0021"/>
  <note>
exclam
</note>
  <outline>
    <contour>
      <point x="96.8" y="256.0" type="curve"/>
      <point x="245.6" y="256.0" type="line"/>
      <point x="251.2" y="284.0"/>
      <point x="259.2" y="380.9"/>
      <point x="259.2" y="465.7" type="curve" smooth="yes"/>
      <point x="259.2" y="566.0" type="line" smooth="yes"/>
      <point x="259.2" y="612.9"/>
      <point x="259.2" y="673.2"/>
      <point x="267.2" y="709.2" type="curve"/>
      <point x="262.4" y="720.0" type="line"/>
      <point x="83.2" y="720.0" type="line"/>
      <point x="83.2" y="465.7" type="line" smooth="yes"/>
      <point x="83.2" y="380.9"/>
      <point x="91.2" y="284.0"/>
    </contour>
    <contour>
      <point x="171.8" y="-10.8" type="curve" smooth="yes"/>
      <point x="228.8" y="-10.8"/>
      <point x="268.0" y="27.2"/>
      <point x="268.0" y="85.4" type="curve" smooth="yes"/>
      <point x="268.0" y="143.6"/>
      <point x="228.8" y="181.6"/>
      <point x="171.8" y="181.6" type="curve" smooth="yes"/>
      <point x="114.8" y="181.6"/>
      <point x="75.6" y="143.6"/>
      <point x="75.6" y="85.4" type="curve" smooth="yes"/>
      <point x="75.6" y="27.2"/>
      <point x="114.8" y="-10.8"/>
    </contour>
  </outline>
</glyph>
<glyph name="quotedbl" format="2">
  <advance width="417.2"/>
  <unicode hex="0022"/>
  <note>
quotedbl
</note>
  <outline>
    <contour>
      <point x="237.6" y="720.0" type="line"/>
      <point x="244.4" y="467.2" type="line"/>
      <point x="368.0" y="467.2" type="line"/>
      <point x="374.8" y="720.0" type="line"/>
    </contour>
    <contour>
      <point x="42.4" y="720.0" type="line"/>
      <point x="49.2" y="467.2" type="line"/>
      <point x="172.8" y="467.2" type="line"/>
      <point x="179.6" y="720.0" type="line"/>
    </contour>
  </outline>
</glyph>
<glyph name="numbersign" format="2">
  <advance width="616.0"/>
  <unicode hex="0023"/>
  <note>
numbersign
</note>
  <outline>
    <contour>
      <point x="299.2" y="0.0" type="line"/>
      <point x="411.6" y="0.0" type="line"/>
      <point x="543.6" y="720.0" type="line"/>
      <point x="431.2" y="720.0" type="line"/>
    </contour>
    <contour>
      <point x="32.0" y="192.0" type="line"/>
      <point x="560.0" y="192.0" type="line"/>
      <point x="560.0" y="294.8" type="line"/>
      <point x="32.0" y="294.8" type="line"/>
    </contour>
    <contour>
      <point x="72.4" y="0.0" type="line"/>
      <point x="184.8" y="0.0" type="line"/>
      <point x="316.8" y="720.0" type="line"/>
      <point x="204.4" y="720.0" type="line"/>
    </contour>
    <contour>
      <point x="56.0" y="425.2" type="line"/>
      <point x="584.0" y="425.2" type="line"/>
      <point x="584.0" y="528.0" type="line"/>
      <point x="56.0" y="528.0" type="line"/>
    </contour>
  </outline>
</glyph>
<glyph name="dollar" format="2">
  <advance width="616.0"/>
  <unicode hex="0024"/>
  <note>
dollar
</note>
  <outline>
    <contour>
      <point x="279.6" y="-12.0" type="curve" smooth="yes"/>
      <point x="430.0" y="-12.0"/>
      <point x="560.8" y="54.0"/>
      <point x="560.8" y="204.4" type="curve" smooth="yes"/>
      <point x="560.8" y="321.2"/>
      <point x="477.5" y="386.5"/>
      <point x="361.2" y="405.4" type="curve" smooth="yes"/>
      <point x="303.2" y="415.2" type="line" smooth="yes"/>
      <point x="246.5" y="424.6"/>
      <point x="219.6" y="454.0"/>
      <point x="219.6" y="499.2" type="curve" smooth="yes"/>
      <point x="219.6" y="561.6"/>
      <point x="268.6" y="593.6"/>
      <point x="359.2" y="593.6" type="curve" smooth="yes"/>
      <point x="423.6" y="593.6"/>
      <point x="481.8" y="576.3"/>
      <point x="516.0" y="561.2" type="curve"/>
      <point x="525.6" y="561.2" type="line"/>
      <point x="525.6" y="706.4" type="line"/>
      <point x="478.1" y="724.9"/>
      <point x="423.5" y="732.0"/>
      <point x="360.8" y="732.0" type="curve" smooth="yes"/>
      <point x="144.4" y="732.0"/>
      <point x="52.0" y="634.8"/>
      <point x="52.0" y="492.4" type="curve" smooth="yes"/>
      <point x="52.0" y="366.8"/>
      <point x="122.0" y="297.0"/>
      <point x="266.4" y="274.6" type="curve" smooth="yes"/>
      <point x="327.2" y="264.8" type="line" smooth="yes"/>
      <point x="374.3" y="257.1"/>
      <point x="392.6" y="232.4"/>
      <point x="392.6" y="199.0" type="curve" smooth="yes"/>
      <point x="392.6" y="155.2"/>
      <point x="356.0" y="129.2"/>
      <point x="279.6" y="129.2" type="curve" smooth="yes"/>
      <point x="199.3" y="129.2"/>
      <point x="122.1" y="149.2"/>
      <point x="75.6" y="175.2" type="curve"/>
      <point x="68.8" y="175.2" type="line"/>
      <point x="68.8" y="22.6" type="line"/>
      <point x="115.9" y="0.30000000000000004"/>
      <point x="210.6" y="-12.0"/>
    </contour>
    <contour>
      <point x="236.6" y="-158.6" type="line"/>
      <point x="382.2" y="-158.6" type="line"/>
      <point x="382.2" y="47.2" type="line"/>
      <point x="236.6" y="47.2" type="line"/>
    </contour>
    <contour>
      <point x="233.8" y="654.2" type="line"/>
      <point x="379.4" y="654.2" type="line"/>
      <point x="379.4" y="860.0" type="line"/>
      <point x="233.8" y="860.0" type="line"/>
    </contour>
  </outline>
</glyph>
<glyph name="ampersand" format="2">
  <advance width="686.0"/>
  <unicode hex="0026"/>
  <note>
ampersand
</note>
  <outline>
    <contour>
      <point x="347.0" y="-12.0" type="curve" smooth="yes"/>
      <point x="432.4" y="-12.0"/>
      <point x="524.0" y="6.8"/>
      <point x="579.4" y="28.0" type="curve"/>
      <point x="582.8" y="36.0" type="line"/>
      <point x="574.1" y="72.0"/>
      <point x="572.0" y="157.2"/>
      <point x="572.0" y="197.2" type="curve" smooth="yes"/>
      <point x="572.0" y="288.8" type="line"/>
      <point x="643.6" y="288.8" type="line"/>
      <point x="643.6" y="417.6" type="line"/>
      <point x="334.0" y="417.6" type="line" smooth="yes"/>
      <point x="266.8" y="417.6"/>
      <point x="215.2" y="436.8"/>
      <point x="215.2" y="498.4" type="curve" smooth="yes"/>
      <point x="215.2" y="559.2"/>
      <point x="269.6" y="588.0"/>
      <point x="364.8" y="588.0" type="curve" smooth="yes"/>
      <point x="441.2" y="588.0"/>
      <point x="507.2" y="569.2"/>
      <point x="547.6" y="550.4" type="curve"/>
      <point x="558.4" y="550.4" type="line"/>
      <point x="558.4" y="701.2" type="line"/>
      <point x="516.8" y="718.6"/>
      <point x="447.2" y="732.0"/>
      <point x="377.2" y="732.0" type="curve" smooth="yes"/>
      <point x="144.0" y="732.0"/>
      <point x="40.8" y="643.2"/>
      <point x="40.8" y="497.2" type="curve" smooth="yes"/>
      <point x="40.8" y="406.7"/>
      <point x="94.0" y="345.7"/>
      <point x="193.4" y="312.9" type="curve"/>
      <point x="196.5" y="359.3" type="line"/>
      <point x="97.9" y="330.8"/>
      <point x="52.6" y="277.3"/>
      <point x="52.6" y="194.0" type="curve" smooth="yes"/>
      <point x="52.6" y="37.6"/>
      <point x="179.6" y="-12.0"/>
    </contour>
    <contour>
      <point x="428.6" y="102.4" type="curve"/>
      <point x="450.3" y="140.8" type="line"/>
      <point x="423.5" y="130.4"/>
      <point x="393.0" y="121.19999999999999"/>
      <point x="344.7" y="121.19999999999999" type="curve" smooth="yes"/>
      <point x="276.2" y="121.19999999999999"/>
      <point x="221.6" y="139.6"/>
      <point x="221.6" y="206.4" type="curve" smooth="yes"/>
      <point x="221.6" y="260.7"/>
      <point x="258.6" y="288.8"/>
      <point x="327.4" y="288.8" type="curve" smooth="yes"/>
      <point x="411.4" y="288.8" type="line"/>
      <point x="411.4" y="208.39999999999998" type="line" smooth="yes"/>
      <point x="411.4" y="155.4"/>
      <point x="416.2" y="120.5"/>
    </contour>
  </outline>
</glyph>
<glyph name="quotesingle" format="2">
  <advance width="222.0"/>
  <unicode hex="0027"/>
  <note>
quotesingle
</note>
  <outline>
    <contour>
      <point x="42.4" y="720.0" type="line"/>
      <point x="49.2" y="467.2" type="line"/>
      <point x="172.8" y="467.2" type="line"/>
      <point x="179.6" y="720.0" type="line"/>
    </contour>
  </outline>
</glyph>
<glyph name="parenleft" format="2">
  <advance width="381.2"/>
  <unicode hex="0028"/>
  <note>
parenleft
</note>
  <outline>
    <contour>
      <point x="189.2" y="-88.0" type="curve"/>
      <point x="363.6" y="-88.0" type="line"/>
      <point x="363.6" y="-84.0" type="line"/>
      <point x="273.2" y="20.0"/>
      <point x="216.0" y="160.0"/>
      <point x="216.0" y="336.0" type="curve" smooth="yes"/>
      <point x="216.0" y="512.0"/>
      <point x="273.2" y="652.0"/>
      <point x="363.6" y="756.0" type="curve"/>
      <point x="363.6" y="760.0" type="line"/>
      <point x="189.2" y="760.0" type="line"/>
      <point x="114.8" y="676.0"/>
      <point x="53.6" y="516.0"/>
      <point x="53.6" y="336.0" type="curve" smooth="yes"/>
      <point x="53.6" y="156.0"/>
      <point x="114.8" y="-4.0"/>
    </contour>
  </outline>
</glyph>
<glyph name="parenright" format="2">
  <advance width="381.2"/>
  <unicode hex="0029"/>
  <note>
parenright
</note>
  <outline>
    <contour>
      <point x="17.6" y="-84.0" type="curve"/>
      <point x="17.6" y="-88.0" type="line"/>
      <point x="192.0" y="-88.0" type="line"/>
      <point x="266.4" y="-4.0"/>
      <point x="327.6" y="156.0"/>
      <point x="327.6" y="336.0" type="curve" smooth="yes"/>
      <point x="327.6" y="516.0"/>
      <point x="266.4" y="676.0"/>
      <point x="192.0" y="760.0" type="curve"/>
      <point x="17.6" y="760.0" type="line"/>
      <point x="17.6" y="756.0" type="line"/>
      <point x="108.0" y="652.0"/>
      <point x="165.2" y="512.0"/>
      <point x="165.2" y="336.0" type="curve" smooth="yes"/>
      <point x="165.2" y="160.0"/>
      <point x="108.0" y="20.0"/>
    </contour>
  </outline>
</glyph>
<glyph name="asterisk" format="2">
  <advance width="544.0"/>
  <unicode hex="002A"/>
  <note>
asterisk
</note>
  <outline>
    <contour>
      <point x="230.8" y="491.6" type="line"/>
      <point x="210.4" y="263.2" type="line"/>
      <point x="333.6" y="263.2" type="line"/>
      <point x="313.2" y="491.6" type="line"/>
      <point x="333.6" y="720.0" type="line"/>
      <point x="210.4" y="720.0" type="line"/>
    </contour>
    <contour>
      <point x="251.4" y="455.8" type="line"/>
      <point x="439.2" y="323.9" type="line"/>
      <point x="500.8" y="430.9" type="line"/>
      <point x="292.6" y="527.4" type="line"/>
      <point x="104.8" y="659.3" type="line"/>
      <point x="43.2" y="552.3" type="line"/>
    </contour>
    <contour>
      <point x="292.6" y="455.8" type="line"/>
      <point x="500.5" y="552.3" type="line"/>
      <point x="439.2" y="659.6" type="line"/>
      <point x="251.4" y="527.4" type="line"/>
      <point x="43.5" y="430.9" type="line"/>
      <point x="104.8" y="323.6" type="line"/>
    </contour>
  </outline>
</glyph>
<glyph name="plus" format="2">
  <advance width="616.0"/>
  <unicode hex="002B"/>
  <note>
plus
</note>
  <outline>
    <contour>
      <point x="251.2" y="72.0" type="line"/>
      <point x="364.8" y="72.0" type="line"/>
      <point x="364.8" y="560.0" type="line"/>
      <point x="251.2" y="560.0" type="line"/>
    </contour>
    <contour>
      <point x="64.0" y="259.2" type="line"/>
      <point x="552.0" y="259.2" type="line"/>
      <point x="552.0" y="372.8" type="line"/>
      <point x="64.0" y="372.8" type="line"/>
    </contour>
  </outline>
</glyph>
<glyph name="comma" format="2">
  <advance width="282.8"/>
  <unicode hex="002C"/>
  <note>
comma
</note>
  <outline>
    <contour>
      <point x="100.5" y="0.5999999999999996" type="curve"/>
      <point x="15.100000000000001" y="-151.5" type="line"/>
      <point x="15.100000000000001" y="-158.8" type="line"/>
      <point x="144.3" y="-158.8" type="line"/>
      <point x="200.1" y="-42.2" type="line" smooth="yes"/>
      <point x="214.4" y="-13.0"/>
      <point x="239.7" y="33.3"/>
      <point x="239.7" y="78.6" type="curve" smooth="yes"/>
      <point x="239.7" y="144.8"/>
      <point x="198.4" y="181.6"/>
      <point x="141.4" y="181.6" type="curve" smooth="yes"/>
      <point x="84.4" y="181.6"/>
      <point x="45.2" y="141.5"/>
      <point x="45.2" y="84.19999999999999" type="curve" smooth="yes"/>
      <point x="45.2" y="34.9"/>
      <point x="74.8" y="12.799999999999997"/>
    </contour>
  </outline>
</glyph>
<glyph name="hyphen" format="2">
  <advance width="524.0"/>
  <unicode hex="002D"/>
  <note>
hyphen
</note>
  <outline>
    <contour>
      <point x="70.8" y="390.0" type="line"/>
      <point x="70.8" y="248.8" type="line"/>
      <point x="453.2" y="248.8" type="line"/>
      <point x="453.2" y="390.0" type="line"/>
    </contour>
  </outline>
</glyph>
<glyph name="period" format="2">
  <advance width="282.8"/>
  <unicode hex="002E"/>
  <note>
period
</note>
  <outline>
    <contour>
      <point x="141.4" y="-10.8" type="curve" smooth="yes"/>
      <point x="198.4" y="-10.8"/>
      <point x="237.6" y="27.2"/>
      <point x="237.6" y="85.4" type="curve" smooth="yes"/>
      <point x="237.6" y="143.6"/>
      <point x="198.4" y="181.6"/>
      <point x="141.4" y="181.6" type="curve" smooth="yes"/>
      <point x="84.4" y="181.6"/>
      <point x="45.2" y="143.6"/>
      <point x="45.2" y="85.4" type="curve" smooth="yes"/>
      <point x="45.2" y="27.2"/>
      <point x="84.4" y="-10.8"/>
    </contour>
  </outline>
</glyph>
<glyph name="slash" format="2">
  <advance width="566.4"/>
  <unicode hex="002F"/>
  <note>
slash
</note>
  <outline>
    <contour>
      <point x="386.8" y="720.0" type="line"/>
      <point x="28.4" y="0.0" type="line"/>
      <point x="179.6" y="0.0" type="line"/>
      <point x="538.0" y="720.0" type="line"/>
    </contour>
  </outline>
</glyph>
<glyph name="zero" format="2">
  <advance width="616.0"/>
  <unicode hex="0030"/>
  <note>
zero
</note>
  <outline>
    <contour>
      <point x="308.0" y="-12.0" type="curve" smooth="yes"/>
      <point x="507.6" y="-12.0"/>
      <point x="586.4" y="149.6"/>
      <point x="586.4" y="360.0" type="curve" smooth="yes"/>
      <point x="586.4" y="570.4"/>
      <point x="507.6" y="732.0"/>
      <point x="308.0" y="732.0" type="curve" smooth="yes"/>
      <point x="108.4" y="732.0"/>
      <point x="29.6" y="570.4"/>
      <point x="29.6" y="360.0" type="curve" smooth="yes"/>
      <point x="29.6" y="149.6"/>
      <point x="108.4" y="-12.0"/>
    </contour>
    <contour>
      <point x="308.0" y="128.0" type="curve" smooth="yes"/>
      <point x="226.8" y="128.0"/>
      <point x="198.4" y="222.4"/>
      <point x="198.4" y="360.0" type="curve" smooth="yes"/>
      <point x="198.4" y="497.6"/>
      <point x="226.8" y="592.0"/>
      <point x="308.0" y="592.0" type="curve" smooth="yes"/>
      <point x="389.2" y="592.0"/>
      <point x="417.6" y="497.6"/>
      <point x="417.6" y="360.0" type="curve" smooth="yes"/>
      <point x="417.6" y="222.4"/>
      <point x="389.2" y="128.0"/>
    </contour>
  </outline>
</glyph>
<glyph name="one" format="2">
  <advance width="616.0"/>
  <unicode hex="0031"/>
  <note>
one
</note>
  <outline>
    <contour>
      <point x="228.4" y="45.599999999999994" type="line"/>
      <point x="405.6" y="45.599999999999994" type="line"/>
      <point x="405.6" y="544.0" type="line" smooth="yes"/>
      <point x="405.6" y="584.0"/>
      <point x="405.6" y="668.0"/>
      <point x="413.6" y="704.0" type="curve"/>
      <point x="411.6" y="716.0" type="line"/>
      <point x="389.6" y="720.6"/>
      <point x="342.4" y="728.0"/>
      <point x="274.8" y="728.0" type="curve" smooth="yes"/>
      <point x="176.0" y="728.0"/>
      <point x="99.2" y="720.8"/>
      <point x="65.6" y="713.6" type="curve"/>
      <point x="65.6" y="578.4" type="line"/>
      <point x="305.4" y="578.4" type="line"/>
      <point x="238.6" y="595.6" type="line"/>
      <point x="230.7" y="582.0"/>
      <point x="228.4" y="524.7"/>
      <point x="228.4" y="494.4" type="curve" smooth="yes"/>
    </contour>
    <contour>
      <point x="46.8" y="0.0" type="line"/>
      <point x="571.6" y="0.0" type="line"/>
      <point x="571.6" y="148.39999999999998" type="line"/>
      <point x="46.8" y="148.39999999999998" type="line"/>
    </contour>
  </outline>
</glyph>
<glyph name="two" format="2">
  <advance width="616.0"/>
  <unicode hex="0032"/>
  <note>
two
</note>
  <outline>
    <contour>
      <point x="56.400000000000006" y="0.0" type="curve"/>
      <point x="557.6" y="0.0" type="line"/>
      <point x="557.6" y="142.8" type="line"/>
      <point x="137.5" y="142.8" type="line"/>
      <point x="207.6" y="89.5" type="line"/>
      <point x="205.2" y="104.5"/>
      <point x="203.3" y="109.8"/>
      <point x="203.3" y="119.9" type="curve" smooth="yes"/>
      <point x="203.3" y="178.1"/>
      <point x="232.9" y="219.0"/>
      <point x="306.0" y="239.4" type="curve" smooth="yes"/>
      <point x="342.8" y="250.0" type="line" smooth="yes"/>
      <point x="478.3" y="290.6"/>
      <point x="548.8" y="362.4"/>
      <point x="548.8" y="490.0" type="curve" smooth="yes"/>
      <point x="548.8" y="623.6"/>
      <point x="463.2" y="732.0"/>
      <point x="262.8" y="732.0" type="curve" smooth="yes"/>
      <point x="188.0" y="732.0"/>
      <point x="112.8" y="716.0"/>
      <point x="72.8" y="697.2" type="curve"/>
      <point x="72.8" y="553.2" type="line"/>
      <point x="83.6" y="553.2" type="line"/>
      <point x="113.6" y="569.0"/>
      <point x="179.6" y="589.2"/>
      <point x="242.0" y="589.2" type="curve" smooth="yes"/>
      <point x="339.6" y="589.2"/>
      <point x="381.2" y="548.4"/>
      <point x="381.2" y="485.8" type="curve" smooth="yes"/>
      <point x="381.2" y="428.8"/>
      <point x="354.0" y="394.0"/>
      <point x="291.2" y="376.2" type="curve" smooth="yes"/>
      <point x="248.5" y="364.2" type="line" smooth="yes"/>
      <point x="97.1" y="320.9"/>
      <point x="40.400000000000006" y="224.5"/>
      <point x="40.400000000000006" y="104.4" type="curve" smooth="yes"/>
      <point x="40.400000000000006" y="72.0"/>
      <point x="44.400000000000006" y="24.0"/>
    </contour>
  </outline>
</glyph>
<glyph name="three" format="2">
  <advance width="616.0"/>
  <unicode hex="0033"/>
  <note>
three
</note>
  <outline>
    <contour>
      <point x="247.6" y="-12.0" type="curve" smooth="yes"/>
      <point x="456.0" y="-12.0"/>
      <point x="562.8" y="84.4"/>
      <point x="562.8" y="222.0" type="curve" smooth="yes"/>
      <point x="562.8" y="343.1"/>
      <point x="469.5" y="439.4"/>
      <point x="289.4" y="427.7" type="curve"/>
      <point x="307.2" y="373.9" type="line"/>
      <point x="496.4" y="583.4" type="line" smooth="yes"/>
      <point x="523.1" y="612.7"/>
      <point x="534.8" y="638.4"/>
      <point x="534.8" y="673.2" type="curve" smooth="yes"/>
      <point x="534.8" y="684.0"/>
      <point x="531.4" y="700.0"/>
      <point x="528.0" y="710.0" type="curve"/>
      <point x="516.0" y="720.0" type="line"/>
      <point x="64.4" y="720.0" type="line"/>
      <point x="64.4" y="581.2" type="line"/>
      <point x="390.6" y="581.2" type="line"/>
      <point x="364.0" y="637.5" type="line"/>
      <point x="152.0" y="375.6" type="line"/>
      <point x="179.2" y="313.2" type="line"/>
      <point x="268.0" y="313.2" type="line" smooth="yes"/>
      <point x="356.0" y="313.2"/>
      <point x="392.4" y="275.2"/>
      <point x="392.4" y="223.2" type="curve" smooth="yes"/>
      <point x="392.4" y="163.2"/>
      <point x="345.2" y="122.4"/>
      <point x="242.0" y="122.4" type="curve" smooth="yes"/>
      <point x="167.2" y="122.4"/>
      <point x="100.4" y="149.2"/>
      <point x="71.6" y="168.2" type="curve"/>
      <point x="60.8" y="168.2" type="line"/>
      <point x="60.8" y="22.4" type="line"/>
      <point x="99.2" y="4.0"/>
      <point x="168.6" y="-12.0"/>
    </contour>
  </outline>
</glyph>
<glyph name="four" format="2">
  <advance width="616.0"/>
  <unicode hex="0034"/>
  <note>
four
</note>
  <outline>
    <contour>
      <point x="359.4" y="0.0" type="line"/>
      <point x="526.8" y="0.0" type="line"/>
      <point x="526.8" y="542.8" type="line" smooth="yes"/>
      <point x="526.8" y="582.8"/>
      <point x="526.8" y="665.6"/>
      <point x="534.2" y="702.8" type="curve"/>
      <point x="532.2" y="714.8" type="line"/>
      <point x="502.2" y="722.0"/>
      <point x="455.4" y="728.0"/>
      <point x="412.4" y="728.0" type="curve" smooth="yes"/>
      <point x="239.6" y="728.0"/>
      <point x="132.1" y="671.8"/>
      <point x="79.4" y="474.4" type="curve" smooth="yes"/>
      <point x="27.6" y="286.0" type="line"/>
      <point x="27.6" y="162.4" type="line"/>
      <point x="606.8" y="162.4" type="line"/>
      <point x="606.8" y="305.2" type="line"/>
      <point x="120.5" y="305.2" type="line"/>
      <point x="174.5" y="235.6" type="line"/>
      <point x="235.2" y="462.4" type="line" smooth="yes"/>
      <point x="258.0" y="542.3"/>
      <point x="284.0" y="579.6"/>
      <point x="360.6" y="579.6" type="curve" smooth="yes"/>
      <point x="382.1" y="579.6"/>
      <point x="406.8" y="576.3"/>
      <point x="436.0" y="570.2" type="curve"/>
      <point x="369.2" y="621.2" type="line"/>
      <point x="359.4" y="595.0"/>
      <point x="359.4" y="564.4"/>
      <point x="359.4" y="530.4" type="curve" smooth="yes"/>
    </contour>
  </outline>
</glyph>
<glyph name="five" format="2">
  <advance width="616.0"/>
  <unicode hex="0035"/>
  <note>
five
</note>
  <outline>
    <contour>
      <point x="52.8" y="171.0" type="line"/>
      <point x="52.8" y="25.2" type="line"/>
      <point x="91.2" y="6.8"/>
      <point x="161.8" y="-12.0"/>
      <point x="246.0" y="-12.0" type="curve" smooth="yes"/>
      <point x="455.6" y="-12.0"/>
      <point x="566.4" y="77.2"/>
      <point x="566.4" y="225.6" type="curve" smooth="yes"/>
      <point x="566.4" y="364.4"/>
      <point x="476.8" y="443.0"/>
      <point x="303.6" y="443.0" type="curve" smooth="yes"/>
      <point x="267.1" y="443.0"/>
      <point x="229.4" y="437.7"/>
      <point x="193.7" y="436.3" type="curve"/>
      <point x="241.2" y="367.3" type="line"/>
      <point x="241.2" y="518.0" type="line" smooth="yes"/>
      <point x="241.2" y="557.4"/>
      <point x="238.5" y="592.8"/>
      <point x="229.1" y="617.4" type="curve"/>
      <point x="166.2" y="580.0" type="line"/>
      <point x="531.6" y="580.0" type="line"/>
      <point x="531.6" y="720.0" type="line"/>
      <point x="215.2" y="720.0" type="line" smooth="yes"/>
      <point x="143.0" y="720.0"/>
      <point x="104.6" y="716.0"/>
      <point x="73.2" y="710.8" type="curve"/>
      <point x="71.2" y="700.0" type="line"/>
      <point x="79.2" y="664.0"/>
      <point x="79.2" y="574.8"/>
      <point x="79.2" y="534.8" type="curve" smooth="yes"/>
      <point x="79.2" y="304.0" type="line"/>
      <point x="87.2" y="300.0" type="line"/>
      <point x="123.2" y="308.0"/>
      <point x="170.2" y="319.6"/>
      <point x="246.4" y="319.6" type="curve" smooth="yes"/>
      <point x="355.6" y="319.6"/>
      <point x="394.8" y="285.6"/>
      <point x="394.8" y="228.4" type="curve" smooth="yes"/>
      <point x="394.8" y="170.4"/>
      <point x="349.2" y="128.0"/>
      <point x="237.6" y="128.0" type="curve" smooth="yes"/>
      <point x="159.2" y="128.0"/>
      <point x="91.2" y="153.2"/>
      <point x="63.6" y="171.0" type="curve"/>
    </contour>
  </outline>
</glyph>
<glyph name="six" format="2">
  <advance width="616.0"/>
  <unicode hex="0036"/>
  <note>
six
</note>
  <outline>
    <contour>
      <point x="318.8" y="-12.0" type="curve" smooth="yes"/>
      <point x="476.0" y="-12.0"/>
      <point x="580.8" y="79.2"/>
      <point x="580.8" y="240.4" type="curve" smooth="yes"/>
      <point x="580.8" y="374.0"/>
      <point x="507.2" y="470.8"/>
      <point x="347.2" y="470.8" type="curve" smooth="yes"/>
      <point x="274.0" y="470.8"/>
      <point x="226.4" y="444.8"/>
      <point x="199.3" y="425.0" type="curve"/>
      <point x="151.6" y="425.0" type="line"/>
      <point x="151.6" y="298.8" type="line"/>
      <point x="201.6" y="298.8" type="line"/>
      <point x="224.2" y="322.8"/>
      <point x="257.2" y="343.2"/>
      <point x="311.6" y="343.2" type="curve" smooth="yes"/>
      <point x="389.2" y="343.2"/>
      <point x="418.8" y="300.0"/>
      <point x="418.8" y="234.8" type="curve" smooth="yes"/>
      <point x="418.8" y="172.0"/>
      <point x="391.6" y="121.19999999999999"/>
      <point x="320.0" y="121.19999999999999" type="curve" smooth="yes"/>
      <point x="221.4" y="121.19999999999999"/>
      <point x="205.2" y="203.2"/>
      <point x="205.2" y="357.6" type="curve" smooth="yes"/>
      <point x="205.2" y="489.6"/>
      <point x="240.8" y="592.0"/>
      <point x="412.0" y="592.0" type="curve" smooth="yes"/>
      <point x="458.0" y="592.0"/>
      <point x="490.0" y="582.8"/>
      <point x="512.4" y="573.6" type="curve"/>
      <point x="523.2" y="573.6" type="line"/>
      <point x="523.2" y="717.6" type="line"/>
      <point x="491.2" y="726.8"/>
      <point x="455.2" y="732.0"/>
      <point x="407.6" y="732.0" type="curve" smooth="yes"/>
      <point x="140.0" y="732.0"/>
      <point x="36.400000000000006" y="561.6"/>
      <point x="36.400000000000006" y="345.2" type="curve" smooth="yes"/>
      <point x="36.400000000000006" y="148.8"/>
      <point x="91.6" y="-12.0"/>
    </contour>
  </outline>
</glyph>
<glyph name="seven" format="2">
  <advance width="616.0"/>
  <unicode hex="0037"/>
  <note>
seven
</note>
  <outline>
    <contour>
      <point x="62.0" y="720.0" type="line"/>
      <point x="62.0" y="574.4" type="line"/>
      <point x="474.0" y="574.4" type="line"/>
      <point x="434.1" y="639.2" type="line"/>
      <point x="125.2" y="10.2" type="line"/>
      <point x="125.2" y="0.0" type="line"/>
      <point x="312.0" y="0.0" type="line"/>
      <point x="545.2" y="556.0" type="line" smooth="yes"/>
      <point x="561.2" y="592.0"/>
      <point x="573.2" y="629.8"/>
      <point x="573.2" y="667.8" type="curve" smooth="yes"/>
      <point x="573.2" y="679.8"/>
      <point x="571.2" y="696.0"/>
      <point x="569.2" y="710.0" type="curve"/>
      <point x="557.2" y="720.0" type="line"/>
    </contour>
  </outline>
</glyph>
<glyph name="eight" format="2">
  <advance width="616.0"/>
  <unicode hex="0038"/>
  <note>
eight
</note>
  <outline>
    <contour>
      <point x="305.2" y="-12.0" type="curve" smooth="yes"/>
      <point x="479.6" y="-12.0"/>
      <point x="583.6" y="72.4"/>
      <point x="583.6" y="202.0" type="curve" smooth="yes"/>
      <point x="583.6" y="311.5"/>
      <point x="497.3" y="372.3"/>
      <point x="387.2" y="406.8" type="curve" smooth="yes"/>
      <point x="336.4" y="422.8" type="line" smooth="yes"/>
      <point x="258.0" y="447.4"/>
      <point x="215.6" y="465.2"/>
      <point x="215.6" y="524.4" type="curve" smooth="yes"/>
      <point x="215.6" y="570.4"/>
      <point x="249.6" y="604.4"/>
      <point x="310.8" y="604.4" type="curve" smooth="yes"/>
      <point x="380.2" y="604.4"/>
      <point x="410.6" y="567.6"/>
      <point x="410.6" y="515.6" type="curve" smooth="yes"/>
      <point x="410.6" y="465.4"/>
      <point x="377.6" y="421.4"/>
      <point x="335.4" y="402.0" type="curve"/>
      <point x="443.4" y="348.4" type="line"/>
      <point x="514.0" y="380.8"/>
      <point x="569.2" y="445.3"/>
      <point x="569.2" y="530.8" type="curve" smooth="yes"/>
      <point x="569.2" y="650.0"/>
      <point x="477.6" y="732.0"/>
      <point x="318.8" y="732.0" type="curve" smooth="yes"/>
      <point x="129.6" y="732.0"/>
      <point x="52.0" y="634.4"/>
      <point x="52.0" y="520.4" type="curve" smooth="yes"/>
      <point x="52.0" y="415.6"/>
      <point x="120.30000000000001" y="353.5"/>
      <point x="222.0" y="321.6" type="curve" smooth="yes"/>
      <point x="264.4" y="308.4" type="line" smooth="yes"/>
      <point x="341.4" y="284.5"/>
      <point x="413.2" y="269.2"/>
      <point x="413.2" y="202.0" type="curve" smooth="yes"/>
      <point x="413.2" y="149.6"/>
      <point x="376.8" y="115.6"/>
      <point x="306.4" y="115.6" type="curve" smooth="yes"/>
      <point x="234.4" y="115.6"/>
      <point x="194.4" y="151.2"/>
      <point x="194.4" y="214.0" type="curve" smooth="yes"/>
      <point x="194.4" y="286.4"/>
      <point x="256.4" y="330.0"/>
      <point x="330.4" y="346.0" type="curve"/>
      <point x="205.6" y="388.0" type="line"/>
      <point x="110.4" y="364.4"/>
      <point x="32.400000000000006" y="294.5"/>
      <point x="32.400000000000006" y="190.4" type="curve" smooth="yes"/>
      <point x="32.400000000000006" y="69.2"/>
      <point x="116.4" y="-12.0"/>
    </contour>
  </outline>
</glyph>
<glyph name="nine" format="2">
  <advance width="616.0"/>
  <unicode hex="0039"/>
  <note>
nine
</note>
  <outline>
    <contour>
      <point x="208.4" y="-12.0" type="curve" smooth="yes"/>
      <point x="476.0" y="-12.0"/>
      <point x="579.6" y="158.4"/>
      <point x="579.6" y="374.8" type="curve" smooth="yes"/>
      <point x="579.6" y="571.2"/>
      <point x="524.4" y="732.0"/>
      <point x="297.2" y="732.0" type="curve" smooth="yes"/>
      <point x="140.0" y="732.0"/>
      <point x="35.2" y="640.8"/>
      <point x="35.2" y="479.6" type="curve" smooth="yes"/>
      <point x="35.2" y="346.0"/>
      <point x="108.80000000000001" y="249.2"/>
      <point x="268.8" y="249.2" type="curve" smooth="yes"/>
      <point x="342.0" y="249.2"/>
      <point x="389.6" y="275.2"/>
      <point x="416.7" y="295.0" type="curve"/>
      <point x="464.4" y="295.0" type="line"/>
      <point x="464.4" y="421.2" type="line"/>
      <point x="414.4" y="421.2" type="line"/>
      <point x="391.8" y="397.2"/>
      <point x="358.8" y="376.8"/>
      <point x="304.4" y="376.8" type="curve" smooth="yes"/>
      <point x="226.8" y="376.8"/>
      <point x="197.2" y="420.0"/>
      <point x="197.2" y="485.2" type="curve" smooth="yes"/>
      <point x="197.2" y="548.0"/>
      <point x="224.4" y="598.8"/>
      <point x="296.0" y="598.8" type="curve" smooth="yes"/>
      <point x="394.6" y="598.8"/>
      <point x="410.8" y="516.8"/>
      <point x="410.8" y="362.4" type="curve" smooth="yes"/>
      <point x="410.8" y="230.4"/>
      <point x="375.2" y="128.0"/>
      <point x="204.0" y="128.0" type="curve" smooth="yes"/>
      <point x="158.0" y="128.0"/>
      <point x="128.8" y="137.2"/>
      <point x="103.6" y="146.4" type="curve"/>
      <point x="92.8" y="146.4" type="line"/>
      <point x="92.8" y="2.4000000000000004" type="line"/>
      <point x="124.8" y="-6.8"/>
      <point x="160.8" y="-12.0"/>
    </contour>
  </outline>
</glyph>
<glyph name="colon" format="2">
  <advance width="282.8"/>
  <unicode hex="003A"/>
  <note>
colon
</note>
  <outline>
    <contour>
      <point x="141.4" y="-10.8" type="curve" smooth="yes"/>
      <point x="198.4" y="-10.8"/>
      <point x="237.6" y="27.2"/>
      <point x="237.6" y="85.4" type="curve" smooth="yes"/>
      <point x="237.6" y="143.6"/>
      <point x="198.4" y="181.6"/>
      <point x="141.4" y="181.6" type="curve" smooth="yes"/>
      <point x="84.4" y="181.6"/>
      <point x="45.2" y="143.6"/>
      <point x="45.2" y="85.4" type="curve" smooth="yes"/>
      <point x="45.2" y="27.2"/>
      <point x="84.4" y="-10.8"/>
    </contour>
    <contour>
      <point x="141.4" y="351.6" type="curve" smooth="yes"/>
      <point x="198.4" y="351.6"/>
      <point x="237.6" y="389.6"/>
      <point x="237.6" y="447.8" type="curve" smooth="yes"/>
      <point x="237.6" y="506.0"/>
      <point x="198.4" y="544.0"/>
      <point x="141.4" y="544.0" type="curve" smooth="yes"/>
      <point x="84.4" y="544.0"/>
      <point x="45.2" y="506.0"/>
      <point x="45.2" y="447.8" type="curve" smooth="yes"/>
      <point x="45.2" y="389.6"/>
      <point x="84.4" y="351.6"/>
    </contour>
  </outline>
</glyph>
<glyph name="semicolon" format="2">
  <advance width="282.5"/>
  <unicode hex="003B"/>
  <note>
semicolon
</note>
  <outline>
    <contour>
      <point x="141.1" y="351.6" type="curve" smooth="yes"/>
      <point x="198.1" y="351.6"/>
      <point x="237.3" y="389.6"/>
      <point x="237.3" y="447.8" type="curve" smooth="yes"/>
      <point x="237.3" y="506.0"/>
      <point x="198.1" y="544.0"/>
      <point x="141.1" y="544.0" type="curve" smooth="yes"/>
      <point x="84.1" y="544.0"/>
      <point x="44.900000000000006" y="506.0"/>
      <point x="44.900000000000006" y="447.8" type="curve" smooth="yes"/>
      <point x="44.900000000000006" y="389.6"/>
      <point x="84.1" y="351.6"/>
    </contour>
    <contour>
      <point x="100.2" y="0.5999999999999996" type="curve"/>
      <point x="15.100000000000001" y="-151.2" type="line"/>
      <point x="15.100000000000001" y="-158.5" type="line"/>
      <point x="144.3" y="-158.5" type="line"/>
      <point x="199.8" y="-42.2" type="line" smooth="yes"/>
      <point x="214.1" y="-13.0"/>
      <point x="239.4" y="33.3"/>
      <point x="239.4" y="78.6" type="curve" smooth="yes"/>
      <point x="239.4" y="144.8"/>
      <point x="198.1" y="181.6"/>
      <point x="141.1" y="181.6" type="curve" smooth="yes"/>
      <point x="84.1" y="181.6"/>
      <point x="44.900000000000006" y="141.5"/>
      <point x="44.900000000000006" y="84.19999999999999" type="curve" smooth="yes"/>
      <point x="44.900000000000006" y="34.9"/>
      <point x="74.5" y="12.799999999999997"/>
    </contour>
  </outline>
</glyph>
<glyph name="less" format="2">
  <advance width="616.0"/>
  <unicode hex="003C"/>
  <note>
less
</note>
  <outline>
    <contour>
      <point x="84.0" y="282.4" type="line"/>
      <point x="524.0" y="61.2" type="line"/>
      <point x="532.0" y="61.2" type="line"/>
      <point x="532.0" y="185.6" type="line"/>
      <point x="250.4" y="318.8" type="line"/>
      <point x="532.0" y="456.0" type="line"/>
      <point x="532.0" y="577.6" type="line"/>
      <point x="524.0" y="577.6" type="line"/>
      <point x="84.0" y="355.2" type="line"/>
    </contour>
  </outline>
</glyph>
<glyph name="equal" format="2">
  <advance width="616.0"/>
  <unicode hex="003D"/>
  <note>
equal
</note>
  <outline>
    <contour>
      <point x="64.0" y="481.2" type="line"/>
      <point x="64.0" y="367.6" type="line"/>
      <point x="552.0" y="367.6" type="line"/>
      <point x="552.0" y="481.2" type="line"/>
    </contour>
    <contour>
      <point x="64.0" y="264.4" type="line"/>
      <point x="64.0" y="150.8" type="line"/>
      <point x="552.0" y="150.8" type="line"/>
      <point x="552.0" y="264.4" type="line"/>
    </contour>
  </outline>
</glyph>
<glyph name="question" format="2">
  <advance width="505.6"/>
  <unicode hex="003F"/>
  <note>
question
</note>
  <outline>
    <contour>
      <point x="151.2" y="232.8" type="line"/>
      <point x="307.6" y="232.8" type="line"/>
      <point x="307.6" y="275.6" type="line" smooth="yes"/>
      <point x="307.6" y="308.0"/>
      <point x="313.6" y="332.1"/>
      <point x="343.6" y="353.1" type="curve" smooth="yes"/>
      <point x="375.2" y="375.5" type="line" smooth="yes"/>
      <point x="406.5" y="397.5"/>
      <point x="474.4" y="443.2"/>
      <point x="474.4" y="545.6" type="curve" smooth="yes"/>
      <point x="474.4" y="672.0"/>
      <point x="387.6" y="732.0"/>
      <point x="239.2" y="732.0" type="curve" smooth="yes"/>
      <point x="165.6" y="732.0"/>
      <point x="101.2" y="720.0"/>
      <point x="50.4" y="698.8" type="curve"/>
      <point x="50.4" y="560.4" type="line"/>
      <point x="61.2" y="560.4" type="line"/>
      <point x="99.6" y="581.6"/>
      <point x="154.4" y="597.6"/>
      <point x="204.4" y="597.6" type="curve" smooth="yes"/>
      <point x="270.4" y="597.6"/>
      <point x="302.8" y="574.0"/>
      <point x="302.8" y="527.2" type="curve" smooth="yes"/>
      <point x="302.8" y="485.6"/>
      <point x="285.3" y="468.4"/>
      <point x="250.0" y="443.5" type="curve" smooth="yes"/>
      <point x="214.8" y="418.7" type="line" smooth="yes"/>
      <point x="168.3" y="385.8"/>
      <point x="151.2" y="341.2"/>
      <point x="151.2" y="279.6" type="curve" smooth="yes"/>
    </contour>
    <contour>
      <point x="231.4" y="-10.8" type="curve" smooth="yes"/>
      <point x="288.4" y="-10.8"/>
      <point x="327.6" y="27.2"/>
      <point x="327.6" y="85.4" type="curve" smooth="yes"/>
      <point x="327.6" y="143.6"/>
      <point x="288.4" y="181.6"/>
      <point x="231.4" y="181.6" type="curve" smooth="yes"/>
      <point x="174.4" y="181.6"/>
      <point x="135.2" y="143.6"/>
      <point x="135.2" y="85.4" type="curve" smooth="yes"/>
      <point x="135.2" y="27.2"/>
      <point x="174.4" y="-10.8"/>
    </contour>
  </outline>
</glyph>
<glyph name="at" format="2">
  <advance width="980.0"/>
  <unicode hex="0040"/>
  <note>
at
</note>
  <outline>
    <contour>
      <point x="519.8" y="-178.4" type="curve" smooth="yes"/>
      <point x="584.4" y="-178.4"/>
      <point x="665.1" y="-166.4"/>
      <point x="703.2" y="-150.4" type="curve"/>
      <point x="703.2" y="-41.2" type="line"/>
      <point x="692.4" y="-41.2" type="line"/>
      <point x="656.4" y="-57.8"/>
      <point x="583.2" y="-70.4"/>
      <point x="519.8" y="-70.4" type="curve" smooth="yes"/>
      <point x="315.2" y="-70.4"/>
      <point x="160.8" y="32.4"/>
      <point x="160.8" y="282.4" type="curve" smooth="yes"/>
      <point x="160.8" y="526.0"/>
      <point x="303.1" y="628.4"/>
      <point x="514.2" y="628.4" type="curve" smooth="yes"/>
      <point x="693.5" y="628.4"/>
      <point x="824.6" y="542.0"/>
      <point x="824.6" y="376.0" type="curve" smooth="yes"/>
      <point x="824.6" y="259.4"/>
      <point x="775.1" y="194.3"/>
      <point x="698.8" y="161.8" type="curve"/>
      <point x="697.5" y="177.1"/>
      <point x="698.2" y="194.0"/>
      <point x="698.2" y="207.0" type="curve" smooth="yes"/>
      <point x="698.2" y="306.0" type="line" smooth="yes"/>
      <point x="698.2" y="462.4"/>
      <point x="611.2" y="505.2"/>
      <point x="478.2" y="505.2" type="curve" smooth="yes"/>
      <point x="421.8" y="505.2"/>
      <point x="376.6" y="496.0"/>
      <point x="337.8" y="483.4" type="curve"/>
      <point x="337.8" y="373.2" type="line"/>
      <point x="345.8" y="373.2" type="line"/>
      <point x="369.8" y="382.4"/>
      <point x="408.2" y="395.6"/>
      <point x="456.2" y="395.6" type="curve" smooth="yes"/>
      <point x="528.0" y="395.6"/>
      <point x="556.6" y="372.9"/>
      <point x="556.6" y="312.8" type="curve" smooth="yes"/>
      <point x="556.6" y="194.7" type="line" smooth="yes"/>
      <point x="556.6" y="150.5"/>
      <point x="568.3" y="119.6"/>
      <point x="582.8" y="116.1" type="curve"/>
      <point x="582.7" y="138.4" type="line"/>
      <point x="566.5" y="135.5"/>
      <point x="546.2" y="133.2"/>
      <point x="526.0" y="133.2" type="curve" smooth="yes"/>
      <point x="465.0" y="133.2"/>
      <point x="432.2" y="146.0"/>
      <point x="432.2" y="184.0" type="curve" smooth="yes"/>
      <point x="432.2" y="219.4"/>
      <point x="459.1" y="234.8"/>
      <point x="509.0" y="234.8" type="curve" smooth="yes"/>
      <point x="530.4" y="234.8"/>
      <point x="548.7" y="231.3"/>
      <point x="570.2" y="225.8" type="curve"/>
      <point x="570.2" y="309.2" type="line"/>
      <point x="543.8" y="315.1"/>
      <point x="517.6" y="319.6"/>
      <point x="485.4" y="319.6" type="curve" smooth="yes"/>
      <point x="381.2" y="319.6"/>
      <point x="296.2" y="278.8"/>
      <point x="296.2" y="182.4" type="curve" smooth="yes"/>
      <point x="296.2" y="79.6"/>
      <point x="380.6" y="33.2"/>
      <point x="526.0" y="33.2" type="curve" smooth="yes"/>
      <point x="757.0" y="33.2"/>
      <point x="939.2" y="137.2"/>
      <point x="939.2" y="376.0" type="curve" smooth="yes"/>
      <point x="939.2" y="596.0"/>
      <point x="771.2" y="737.6"/>
      <point x="514.2" y="737.6" type="curve" smooth="yes"/>
      <point x="220.6" y="737.6"/>
      <point x="40.8" y="562.8"/>
      <point x="40.8" y="282.4" type="curve" smooth="yes"/>
      <point x="40.8" y="-13.2"/>
      <point x="227.2" y="-178.4"/>
    </contour>
  </outline>
</glyph>
<glyph name="A" format="2">
  <advance width="713.8"/>
  <unicode hex="0041"/>
  <note>
A
</note>
  <anchor x="356.9" y="0.0" name="bottom"/>
  <anchor x="637.4" y="3.0" name="ogonek"/>
  <anchor x="400.1" y="720.0" name="top"/>
  <outline>
    <contour>
      <point x="34.0" y="0.0" type="line"/>
      <point x="211.8" y="0.0" type="line"/>
      <point x="289.0" y="466.0" type="line" smooth="yes"/>
      <point x="301.7" y="543.4"/>
      <point x="335.0" y="579.6"/>
      <point x="427.8" y="579.6" type="curve" smooth="yes"/>
      <point x="449.8" y="579.6"/>
      <point x="477.9" y="577.6"/>
      <point x="492.1" y="573.8" type="curve"/>
      <point x="469.1" y="617.5" type="line"/>
      <point x="463.0" y="590.9"/>
      <point x="460.2" y="557.8"/>
      <point x="460.2" y="519.2" type="curve" smooth="yes"/>
      <point x="460.2" y="0.0" type="line"/>
      <point x="637.4" y="0.0" type="line"/>
      <point x="637.4" y="537.2" type="line" smooth="yes"/>
      <point x="637.4" y="577.2"/>
      <point x="637.4" y="660.0"/>
      <point x="644.8" y="697.2" type="curve"/>
      <point x="642.8" y="709.2" type="line"/>
      <point x="589.4" y="721.2"/>
      <point x="519.0" y="728.0"/>
      <point x="462.6" y="728.0" type="curve" smooth="yes"/>
      <point x="268.2" y="728.0"/>
      <point x="149.4" y="679.9"/>
      <point x="114.0" y="471.6" type="curve" smooth="yes"/>
    </contour>
    <contour>
      <point x="162.0" y="183.6" type="line"/>
      <point x="542.2" y="183.6" type="line"/>
      <point x="542.2" y="326.4" type="line"/>
      <point x="162.0" y="326.4" type="line"/>
    </contour>
  </outline>
</glyph>
<glyph name="B" format="2">
  <advance width="684.8"/>
  <unicode hex="0042"/>
  <note>
B
</note>
  <anchor x="342.4" y="0.0" name="bottom"/>
  <anchor x="342.4" y="720.0" name="top"/>
  <outline>
    <contour>
      <point x="171.6" y="0.0" type="line"/>
      <point x="399.6" y="0.0" type="line" smooth="yes"/>
      <point x="556.0" y="0.0"/>
      <point x="640.0" y="72.4"/>
      <point x="640.0" y="189.6" type="curve" smooth="yes"/>
      <point x="640.0" y="276.5"/>
      <point x="581.5" y="342.2"/>
      <point x="474.2" y="351.2" type="curve"/>
      <point x="482.0" y="316.5" type="line"/>
      <point x="578.2" y="350.6"/>
      <point x="628.0" y="435.3"/>
      <point x="628.0" y="518.4" type="curve" smooth="yes"/>
      <point x="628.0" y="650.4"/>
      <point x="543.6" y="720.0"/>
      <point x="371.8" y="720.0" type="curve" smooth="yes"/>
      <point x="171.6" y="720.0" type="line"/>
      <point x="171.6" y="574.4" type="line"/>
      <point x="359.2" y="574.4" type="line" smooth="yes"/>
      <point x="411.2" y="574.4"/>
      <point x="450.8" y="557.6"/>
      <point x="450.8" y="496.0" type="curve" smooth="yes"/>
      <point x="450.8" y="440.0"/>
      <point x="418.0" y="392.0"/>
      <point x="351.2" y="392.0" type="curve" smooth="yes"/>
      <point x="171.6" y="392.0" type="line"/>
      <point x="171.6" y="263.2" type="line"/>
      <point x="392.8" y="263.2" type="line" smooth="yes"/>
      <point x="434.4" y="263.2"/>
      <point x="462.8" y="244.8"/>
      <point x="462.8" y="203.6" type="curve" smooth="yes"/>
      <point x="462.8" y="158.4"/>
      <point x="433.2" y="140.0"/>
      <point x="392.8" y="140.0" type="curve" smooth="yes"/>
      <point x="171.6" y="140.0" type="line"/>
    </contour>
    <contour>
      <point x="76.4" y="0.0" type="line"/>
      <point x="253.6" y="0.0" type="line"/>
      <point x="253.6" y="720.0" type="line"/>
      <point x="76.4" y="720.0" type="line"/>
    </contour>
  </outline>
</glyph>
<glyph name="C" format="2">
  <advance width="648.0"/>
  <unicode hex="0043"/>
  <note>
C
</note>
  <anchor x="386.8" y="0.0" name="bottom"/>
  <anchor x="386.8" y="720.0" name="top"/>
  <outline>
    <contour>
      <point x="42.0" y="360.0" type="curve" smooth="yes"/>
      <point x="42.0" y="130.8"/>
      <point x="176.8" y="-12.0"/>
      <point x="439.6" y="-12.0" type="curve" smooth="yes"/>
      <point x="507.6" y="-12.0"/>
      <point x="565.2" y="0.0"/>
      <point x="596.8" y="14.4" type="curve"/>
      <point x="596.8" y="166.6" type="line"/>
      <point x="586.0" y="166.6" type="line"/>
      <point x="554.4" y="149.6"/>
      <point x="505.2" y="137.6"/>
      <point x="450.8" y="137.6" type="curve" smooth="yes"/>
      <point x="293.6" y="137.6"/>
      <point x="223.2" y="224.0"/>
      <point x="223.2" y="360.0" type="curve" smooth="yes"/>
      <point x="223.2" y="496.0"/>
      <point x="293.6" y="582.4"/>
      <point x="450.8" y="582.4" type="curve" smooth="yes"/>
      <point x="505.2" y="582.4"/>
      <point x="554.4" y="570.4"/>
      <point x="586.0" y="553.4" type="curve"/>
      <point x="596.8" y="553.4" type="line"/>
      <point x="596.8" y="705.6" type="line"/>
      <point x="565.2" y="720.0"/>
      <point x="507.6" y="732.0"/>
      <point x="439.6" y="732.0" type="curve" smooth="yes"/>
      <point x="176.8" y="732.0"/>
      <point x="42.0" y="586.8"/>
    </contour>
  </outline>
</glyph>
<glyph name="D" format="2">
  <advance width="762.0"/>
  <unicode hex="0044"/>
  <note>
D
</note>
  <anchor x="381.0" y="0.0" name="bottom"/>
  <anchor x="175.4" y="367.8" name="center"/>
  <anchor x="381.0" y="720.0" name="top"/>
  <outline>
    <contour>
      <point x="171.6" y="0.0" type="line"/>
      <point x="323.2" y="0.0" type="line" smooth="yes"/>
      <point x="605.6" y="0.0"/>
      <point x="720.0" y="183.2"/>
      <point x="720.0" y="394.4" type="curve" smooth="yes"/>
      <point x="720.0" y="603.6"/>
      <point x="595.6" y="720.0"/>
      <point x="352.8" y="720.0" type="curve" smooth="yes"/>
      <point x="171.6" y="720.0" type="line"/>
      <point x="171.6" y="566.0" type="line"/>
      <point x="352.8" y="566.0" type="line" smooth="yes"/>
      <point x="485.2" y="566.0"/>
      <point x="538.8" y="502.8"/>
      <point x="538.8" y="391.6" type="curve" smooth="yes"/>
      <point x="538.8" y="261.6"/>
      <point x="477.2" y="154.0"/>
      <point x="331.6" y="154.0" type="curve" smooth="yes"/>
      <point x="171.6" y="154.0" type="line"/>
    </contour>
    <contour>
      <point x="76.4" y="0.0" type="line"/>
      <point x="253.6" y="0.0" type="line"/>
      <point x="253.6" y="720.0" type="line"/>
      <point x="76.4" y="720.0" type="line"/>
    </contour>
  </outline>
</glyph>
<glyph name="E" format="2">
  <advance width="613.2"/>
  <unicode hex="0045"/>
  <note>
E
</note>
  <anchor x="306.6" y="0.0" name="bottom"/>
  <anchor x="564.0" y="0.0" name="ogonek"/>
  <anchor x="306.6" y="720.0" name="top"/>
  <anchor x="20.0" y="720.0" name="topleft"/>
  <outline>
    <contour>
      <point x="76.4" y="0.0" type="line"/>
      <point x="253.6" y="0.0" type="line"/>
      <point x="253.6" y="720.0" type="line"/>
      <point x="76.4" y="720.0" type="line"/>
    </contour>
    <contour>
      <point x="171.6" y="0.0" type="line"/>
      <point x="564.0" y="0.0" type="line"/>
      <point x="564.0" y="154.0" type="line"/>
      <point x="171.6" y="154.0" type="line"/>
    </contour>
    <contour>
      <point x="171.6" y="288.4" type="line"/>
      <point x="504.4" y="288.4" type="line"/>
      <point x="504.4" y="434.0" type="line"/>
      <point x="171.6" y="434.0" type="line"/>
    </contour>
    <contour>
      <point x="171.6" y="566.0" type="line"/>
      <point x="554.8" y="566.0" type="line"/>
      <point x="554.8" y="720.0" type="line"/>
      <point x="171.6" y="720.0" type="line"/>
    </contour>
  </outline>
</glyph>
<glyph name="F" format="2">
  <advance width="583.2"/>
  <unicode hex="0046"/>
  <note>
F
</note>
  <anchor x="291.6" y="0.0" name="bottom"/>
  <anchor x="291.6" y="720.0" name="top"/>
  <outline>
    <contour>
      <point x="76.4" y="0.0" type="line"/>
      <point x="253.6" y="0.0" type="line"/>
      <point x="253.6" y="720.0" type="line"/>
      <point x="76.4" y="720.0" type="line"/>
    </contour>
    <contour>
      <point x="171.6" y="235.2" type="line"/>
      <point x="500.8" y="235.2" type="line"/>
      <point x="500.8" y="380.8" type="line"/>
      <point x="171.6" y="380.8" type="line"/>
    </contour>
    <contour>
      <point x="171.6" y="566.0" type="line"/>
      <point x="551.2" y="566.0" type="line"/>
      <point x="551.2" y="720.0" type="line"/>
      <point x="171.6" y="720.0" type="line"/>
    </contour>
  </outline>
</glyph>
<glyph name="H" format="2">
  <advance width="769.6"/>
  <unicode hex="0048"/>
  <note>
H
</note>
  <anchor x="384.8" y="0.0" name="bottom"/>
  <anchor x="384.8" y="575.8" name="center"/>
  <anchor x="384.8" y="720.0" name="top"/>
  <anchor x="20.0" y="720.0" name="topleft"/>
  <outline>
    <contour>
      <point x="516.0" y="0.0" type="line"/>
      <point x="693.2" y="0.0" type="line"/>
      <point x="693.2" y="720.0" type="line"/>
      <point x="516.0" y="720.0" type="line"/>
    </contour>
    <contour>
      <point x="76.4" y="0.0" type="line"/>
      <point x="253.6" y="0.0" type="line"/>
      <point x="253.6" y="720.0" type="line"/>
      <point x="76.4" y="720.0" type="line"/>
    </contour>
    <contour>
      <point x="171.6" y="284.4" type="line"/>
      <point x="598.0" y="284.4" type="line"/>
      <point x="598.0" y="438.4" type="line"/>
      <point x="171.6" y="438.4" type="line"/>
    </contour>
  </outline>
</glyph>
<glyph name="I" format="2">
  <advance width="330.0"/>
  <unicode hex="0049"/>
  <note>
I
</note>
  <anchor x="165.0" y="0.0" name="bottom"/>
  <anchor x="253.6" y="0.0" name="ogonek"/>
  <anchor x="165.0" y="720.0" name="top"/>
  <anchor x="20.0" y="720.0" name="topleft"/>
  <outline>
    <contour>
      <point x="76.4" y="720.0" type="line"/>
      <point x="76.4" y="0.0" type="line"/>
      <point x="253.6" y="0.0" type="line"/>
      <point x="253.6" y="720.0" type="line"/>
    </contour>
  </outline>
</glyph>
<glyph name="J" format="2">
  <advance width="462.4"/>
  <unicode hex="004A"/>
  <note>
J
</note>
  <anchor x="231.2" y="0.0" name="bottom"/>
  <anchor x="305.0" y="720.0" name="top"/>
  <outline>
    <contour>
      <point x="20.4" y="145.6" type="line"/>
      <point x="20.4" y="0.0" type="line"/>
      <point x="47.2" y="-7.4"/>
      <point x="90.0" y="-12.0"/>
      <point x="128.8" y="-12.0" type="curve" smooth="yes"/>
      <point x="281.2" y="-12.0"/>
      <point x="393.6" y="60.8"/>
      <point x="393.6" y="232.0" type="curve" smooth="yes"/>
      <point x="393.6" y="720.0" type="line"/>
      <point x="216.4" y="720.0" type="line"/>
      <point x="216.4" y="239.6" type="line" smooth="yes"/>
      <point x="216.4" y="166.4"/>
      <point x="178.0" y="133.6"/>
      <point x="103.6" y="133.6" type="curve" smooth="yes"/>
      <point x="75.6" y="133.6"/>
      <point x="50.0" y="138.2"/>
      <point x="31.2" y="145.6" type="curve"/>
    </contour>
  </outline>
</glyph>
<glyph name="K" format="2">
  <advance width="701.8"/>
  <unicode hex="004B"/>
  <note>
K
</note>
  <anchor x="350.9" y="0.0" name="bottom"/>
  <anchor x="350.9" y="720.0" name="top"/>
  <outline>
    <contour>
      <point x="299.5" y="246.4" type="line" smooth="yes"/>
      <point x="431.6" y="246.4"/>
      <point x="524.6" y="325.9"/>
      <point x="562.3" y="431.2" type="curve" smooth="yes"/>
      <point x="665.9" y="709.2" type="line"/>
      <point x="665.9" y="720.0" type="line"/>
      <point x="490.3" y="720.0" type="line"/>
      <point x="404.3" y="476.0" type="line" smooth="yes"/>
      <point x="387.2" y="425.2"/>
      <point x="355.1" y="397.6"/>
      <point x="289.9" y="397.6" type="curve" smooth="yes"/>
      <point x="171.7" y="397.6" type="line"/>
      <point x="171.7" y="246.4" type="line"/>
    </contour>
    <contour>
      <point x="77.1" y="0.0" type="line"/>
      <point x="254.3" y="0.0" type="line"/>
      <point x="254.3" y="720.0" type="line"/>
      <point x="77.1" y="720.0" type="line"/>
    </contour>
    <contour>
      <point x="467.9" y="338.4" type="line"/>
      <point x="324.7" y="273.6" type="line"/>
      <point x="488.5" y="0.0" type="line"/>
      <point x="677.7" y="0.0" type="line"/>
      <point x="677.7" y="10.8" type="line"/>
    </contour>
  </outline>
</glyph>
<glyph name="L" format="2">
  <advance width="560.0"/>
  <unicode hex="004C"/>
  <note>
L
</note>
  <anchor x="280.0" y="0.0" name="bottom"/>
  <anchor x="218.8" y="390.4" name="center"/>
  <anchor x="404.4" y="420.0" name="periodCAT"/>
  <anchor x="280.0" y="720.0" name="top"/>
  <anchor x="540.0" y="720.0" name="topright"/>
  <outline>
    <contour>
      <point x="76.4" y="0.0" type="line"/>
      <point x="528.0" y="0.0" type="line"/>
      <point x="528.0" y="154.0" type="line"/>
      <point x="253.6" y="154.0" type="line"/>
      <point x="253.6" y="720.0" type="line"/>
      <point x="76.4" y="720.0" type="line"/>
    </contour>
  </outline>
</glyph>
<glyph name="M" format="2">
  <advance width="873.2"/>
  <unicode hex="004D"/>
  <note>
M
</note>
  <anchor x="436.6" y="0.0" name="bottom"/>
  <anchor x="436.6" y="720.0" name="top"/>
  <outline>
    <contour>
      <point x="76.4" y="0.0" type="line"/>
      <point x="253.6" y="0.0" type="line"/>
      <point x="253.6" y="461.5" type="line"/>
      <point x="216.5" y="451.3" type="line"/>
      <point x="394.4" y="161.2" type="line"/>
      <point x="478.8" y="161.2" type="line"/>
      <point x="656.0" y="455.5" type="line"/>
      <point x="619.6" y="465.0" type="line"/>
      <point x="619.6" y="0.0" type="line"/>
      <point x="796.8" y="0.0" type="line"/>
      <point x="796.8" y="720.0" type="line"/>
      <point x="646.8" y="720.0" type="line"/>
      <point x="401.9" y="310.0" type="line"/>
      <point x="474.8" y="310.7" type="line"/>
      <point x="226.4" y="720.0" type="line"/>
      <point x="76.4" y="720.0" type="line"/>
    </contour>
  </outline>
</glyph>
<glyph name="N" format="2">
  <advance width="769.6"/>
  <unicode hex="004E"/>
  <note>
N
</note>
  <anchor x="384.8" y="0.0" name="bottom"/>
  <anchor x="384.8" y="720.0" name="top"/>
  <outline>
    <contour>
      <point x="76.4" y="0.0" type="line"/>
      <point x="253.6" y="0.0" type="line"/>
      <point x="253.6" y="522.7" type="line"/>
      <point x="203.1" y="501.9" type="line"/>
      <point x="574.6" y="125.6" type="line"/>
      <point x="574.6" y="359.3" type="line"/>
      <point x="218.0" y="720.0" type="line"/>
      <point x="76.4" y="720.0" type="line"/>
    </contour>
    <contour>
      <point x="516.0" y="0.0" type="line"/>
      <point x="693.2" y="0.0" type="line"/>
      <point x="693.2" y="720.0" type="line"/>
      <point x="516.0" y="720.0" type="line"/>
    </contour>
  </outline>
</glyph>
<glyph name="O" format="2">
  <advance width="817.6"/>
  <unicode hex="004F"/>
  <note>
O
</note>
  <anchor x="408.8" y="0.0" name="bottom"/>
  <anchor x="408.8" y="360.0" name="center"/>
  <anchor x="488.4" y="10.0" name="ogonek"/>
  <anchor x="408.8" y="720.0" name="top"/>
  <anchor x="20.0" y="720.0" name="topleft"/>
  <anchor x="508.2" y="720.0" name="topright"/>
  <outline>
    <contour>
      <point x="42.0" y="360.0" type="curve" smooth="yes"/>
      <point x="42.0" y="137.2"/>
      <point x="175.0" y="-12.0"/>
      <point x="408.8" y="-12.0" type="curve" smooth="yes"/>
      <point x="642.0" y="-12.0"/>
      <point x="775.6" y="140.0"/>
      <point x="775.6" y="360.0" type="curve" smooth="yes"/>
      <point x="775.6" y="580.0"/>
      <point x="642.0" y="732.0"/>
      <point x="408.8" y="732.0" type="curve" smooth="yes"/>
      <point x="175.6" y="732.0"/>
      <point x="42.0" y="580.0"/>
    </contour>
    <contour>
      <point x="223.2" y="360.0" type="curve" smooth="yes"/>
      <point x="223.2" y="490.8"/>
      <point x="284.4" y="582.4"/>
      <point x="408.8" y="582.4" type="curve" smooth="yes"/>
      <point x="533.2" y="582.4"/>
      <point x="594.4" y="490.8"/>
      <point x="594.4" y="360.0" type="curve" smooth="yes"/>
      <point x="594.4" y="229.2"/>
      <point x="533.2" y="137.6"/>
      <point x="408.8" y="137.6" type="curve" smooth="yes"/>
      <point x="284.4" y="137.6"/>
      <point x="223.2" y="229.2"/>
    </contour>
  </outline>
</glyph>
<glyph name="P" format="2">
  <advance width="684.4"/>
  <unicode hex="0050"/>
  <note>
P
</note>
  <anchor x="342.2" y="0.0" name="bottom"/>
  <anchor x="342.2" y="720.0" name="top"/>
  <outline>
    <contour>
      <point x="171.6" y="184.0" type="line"/>
      <point x="341.6" y="184.0" type="line" smooth="yes"/>
      <point x="544.8" y="184.0"/>
      <point x="650.0" y="312.8"/>
      <point x="650.0" y="478.4" type="curve" smooth="yes"/>
      <point x="650.0" y="629.6"/>
      <point x="552.4" y="720.0"/>
      <point x="366.0" y="720.0" type="curve" smooth="yes"/>
      <point x="171.6" y="720.0" type="line"/>
      <point x="171.6" y="571.6" type="line"/>
      <point x="367.6" y="571.6" type="line" smooth="yes"/>
      <point x="430.8" y="571.6"/>
      <point x="474.4" y="542.4"/>
      <point x="474.4" y="472.8" type="curve" smooth="yes"/>
      <point x="474.4" y="394.0"/>
      <point x="436.4" y="326.8"/>
      <point x="336.0" y="326.8" type="curve" smooth="yes"/>
      <point x="171.6" y="326.8" type="line"/>
    </contour>
    <contour>
      <point x="76.4" y="0.0" type="line"/>
      <point x="253.6" y="0.0" type="line"/>
      <point x="253.6" y="720.0" type="line"/>
      <point x="76.4" y="720.0" type="line"/>
    </contour>
  </outline>
</glyph>
<glyph name="Q" format="2">
  <advance width="817.6"/>
  <unicode hex="0051"/>
  <note>
Q
</note>
  <anchor x="408.8" y="0.0" name="bottom"/>
  <anchor x="408.8" y="720.0" name="top"/>
  <anchor x="408.8" y="360.0" name="center"/>
  <anchor x="488.4" y="10.0" name="ogonek"/>
  <anchor x="20.0" y="720.0" name="topleft"/>
  <anchor x="508.2" y="720.0" name="topright"/>
  <outline>
    <contour>
      <point x="581.6" y="-159.4" type="line"/>
      <point x="787.8" y="-159.4" type="line"/>
      <point x="787.8" y="-148.6" type="line"/>
      <point x="548.0" y="71.8" type="line"/>
      <point x="367.3" y="40.3" type="line"/>
    </contour>
    <component base="O"/>
  </outline>
</glyph>
<glyph name="R" format="2">
  <advance width="718.8"/>
  <unicode hex="0052"/>
  <note>
R
</note>
  <anchor x="359.4" y="0.0" name="bottom"/>
  <anchor x="359.4" y="720.0" name="top"/>
  <outline>
    <contour>
      <point x="171.6" y="171.2" type="line"/>
      <point x="345.2" y="171.2" type="line" smooth="yes"/>
      <point x="510.4" y="171.2"/>
      <point x="662.0" y="283.8"/>
      <point x="662.0" y="470.8" type="curve" smooth="yes"/>
      <point x="662.0" y="623.2"/>
      <point x="565.1" y="720.0"/>
      <point x="370.0" y="720.0" type="curve" smooth="yes"/>
      <point x="171.6" y="720.0" type="line"/>
      <point x="171.6" y="571.6" type="line"/>
      <point x="368.8" y="571.6" type="line" smooth="yes"/>
      <point x="437.4" y="571.6"/>
      <point x="483.6" y="538.8"/>
      <point x="483.6" y="465.2" type="curve" smooth="yes"/>
      <point x="483.6" y="387.6"/>
      <point x="441.6" y="315.2"/>
      <point x="340.8" y="315.2" type="curve" smooth="yes"/>
      <point x="171.6" y="315.2" type="line"/>
    </contour>
    <contour>
      <point x="76.4" y="0.0" type="line"/>
      <point x="253.6" y="0.0" type="line"/>
      <point x="253.6" y="720.0" type="line"/>
      <point x="76.4" y="720.0" type="line"/>
    </contour>
    <contour>
      <point x="487.6" y="0.0" type="line"/>
      <point x="683.6" y="0.0" type="line"/>
      <point x="683.6" y="9.6" type="line"/>
      <point x="509.5" y="236.4" type="line"/>
      <point x="344.4" y="207.6" type="line"/>
    </contour>
  </outline>
</glyph>
<glyph name="S" format="2">
  <advance width="628.8"/>
  <unicode hex="0053"/>
  <note>
S
</note>
  <anchor x="314.4" y="0.0" name="bottom"/>
  <anchor x="314.4" y="720.0" name="top"/>
  <outline>
    <contour>
      <point x="55.6" y="183.8" type="line"/>
      <point x="55.6" y="26.8" type="line"/>
      <point x="104.8" y="6.8"/>
      <point x="196.4" y="-12.0"/>
      <point x="286.0" y="-12.0" type="curve" smooth="yes"/>
      <point x="456.0" y="-12.0"/>
      <point x="594.2" y="43.6"/>
      <point x="594.2" y="198.0" type="curve" smooth="yes"/>
      <point x="594.2" y="331.2"/>
      <point x="497.9" y="383.1"/>
      <point x="380.8" y="401.8" type="curve" smooth="yes"/>
      <point x="318.0" y="412.2" type="line" smooth="yes"/>
      <point x="241.0" y="424.8"/>
      <point x="208.0" y="442.4"/>
      <point x="208.0" y="495.6" type="curve" smooth="yes"/>
      <point x="208.0" y="559.2"/>
      <point x="262.4" y="588.0"/>
      <point x="363.2" y="588.0" type="curve" smooth="yes"/>
      <point x="439.6" y="588.0"/>
      <point x="504.4" y="569.2"/>
      <point x="544.8" y="550.4" type="curve"/>
      <point x="555.6" y="550.4" type="line"/>
      <point x="555.6" y="701.2" type="line"/>
      <point x="514.0" y="718.6"/>
      <point x="445.6" y="732.0"/>
      <point x="375.6" y="732.0" type="curve" smooth="yes"/>
      <point x="142.4" y="732.0"/>
      <point x="36.400000000000006" y="640.4"/>
      <point x="36.400000000000006" y="486.0" type="curve" smooth="yes"/>
      <point x="36.400000000000006" y="360.8"/>
      <point x="115.9" y="291.6"/>
      <point x="265.2" y="269.4" type="curve" smooth="yes"/>
      <point x="330.8" y="259.0" type="line" smooth="yes"/>
      <point x="397.5" y="248.8"/>
      <point x="419.8" y="232.8"/>
      <point x="419.8" y="194.0" type="curve" smooth="yes"/>
      <point x="419.8" y="147.6"/>
      <point x="373.6" y="132.0"/>
      <point x="286.0" y="132.0" type="curve" smooth="yes"/>
      <point x="201.3" y="132.0"/>
      <point x="115.8" y="157.8"/>
      <point x="66.4" y="183.8" type="curve"/>
    </contour>
  </outline>
</glyph>
<glyph name="T" format="2">
  <advance width="631.6"/>
  <unicode hex="0054"/>
  <note>
T
</note>
  <anchor x="315.8" y="0.0" name="bottom"/>
  <anchor x="315.8" y="360.0" name="center"/>
  <anchor x="315.8" y="720.0" name="top"/>
  <outline>
    <contour>
      <point x="17.6" y="720.0" type="line"/>
      <point x="17.6" y="566.0" type="line"/>
      <point x="227.2" y="566.0" type="line"/>
      <point x="227.2" y="0.0" type="line"/>
      <point x="404.4" y="0.0" type="line"/>
      <point x="404.4" y="566.0" type="line"/>
      <point x="614.0" y="566.0" type="line"/>
      <point x="614.0" y="720.0" type="line"/>
    </contour>
  </outline>
</glyph>
<glyph name="U" format="2">
  <advance width="751.6"/>
  <unicode hex="0055"/>
  <note>
U
</note>
  <anchor x="375.8" y="0.0" name="bottom"/>
  <anchor x="460.0" y="10.0" name="ogonek"/>
  <anchor x="375.8" y="720.0" name="top"/>
  <anchor x="634.8" y="720.0" name="topright"/>
  <outline>
    <contour>
      <point x="71.2" y="720.0" type="line"/>
      <point x="71.2" y="298.8" type="line" smooth="yes"/>
      <point x="71.2" y="95.2"/>
      <point x="162.0" y="-12.0"/>
      <point x="374.4" y="-12.0" type="curve" smooth="yes"/>
      <point x="582.8" y="-12.0"/>
      <point x="680.4" y="95.2"/>
      <point x="680.4" y="298.8" type="curve" smooth="yes"/>
      <point x="680.4" y="720.0" type="line"/>
      <point x="503.2" y="720.0" type="line"/>
      <point x="503.2" y="290.4" type="line" smooth="yes"/>
      <point x="503.2" y="189.6"/>
      <point x="466.8" y="137.6"/>
      <point x="374.4" y="137.6" type="curve" smooth="yes"/>
      <point x="282.0" y="137.6"/>
      <point x="248.39999999999998" y="189.6"/>
      <point x="248.39999999999998" y="290.4" type="curve" smooth="yes"/>
      <point x="248.39999999999998" y="720.0" type="line"/>
    </contour>
  </outline>
</glyph>
<glyph name="V" format="2">
  <advance width="689.4"/>
  <unicode hex="0056"/>
  <note>
V
</note>
  <anchor x="344.7" y="0.0" name="bottom"/>
  <anchor x="344.7" y="720.0" name="top"/>
  <outline>
    <contour>
      <point x="66.2" y="21.6" type="curve"/>
      <point x="69.6" y="9.6" type="line"/>
      <point x="123.7" y="-2.4000000000000004"/>
      <point x="180.3" y="-9.2"/>
      <point x="236.0" y="-9.2" type="curve" smooth="yes"/>
      <point x="433.2" y="-9.2"/>
      <point x="547.5" y="38.900000000000006"/>
      <point x="577.8" y="230.4" type="curve" smooth="yes"/>
      <point x="655.4" y="720.0" type="line"/>
      <point x="477.6" y="720.0" type="line"/>
      <point x="405.6" y="251.6" type="line" smooth="yes"/>
      <point x="394.1" y="177.8"/>
      <point x="363.6" y="139.2"/>
      <point x="270.8" y="139.2" type="curve" smooth="yes"/>
      <point x="252.7" y="139.2"/>
      <point x="235.9" y="141.2"/>
      <point x="221.8" y="144.1" type="curve"/>
      <point x="241.5" y="107.9" type="line"/>
      <point x="246.0" y="125.5"/>
      <point x="253.6" y="160.3"/>
      <point x="253.6" y="199.6" type="curve" smooth="yes"/>
      <point x="253.6" y="720.0" type="line"/>
      <point x="76.4" y="720.0" type="line"/>
      <point x="76.4" y="181.6" type="line" smooth="yes"/>
      <point x="76.4" y="141.6"/>
      <point x="73.6" y="58.8"/>
    </contour>
  </outline>
</glyph>
<glyph name="W" format="2">
  <advance width="1100.0"/>
  <unicode hex="0057"/>
  <note>
W
</note>
  <anchor x="550.0" y="0.0" name="bottom"/>
  <anchor x="550.0" y="720.0" name="top"/>
  <outline>
    <contour>
      <point x="683.0" y="-9.2" type="curve" smooth="yes"/>
      <point x="853.3" y="-9.2"/>
      <point x="964.0" y="67.2"/>
      <point x="993.2" y="238.8" type="curve" smooth="yes"/>
      <point x="1075.2" y="720.0" type="line"/>
      <point x="897.4" y="720.0" type="line"/>
      <point x="821.0" y="251.6" type="line" smooth="yes"/>
      <point x="809.0" y="178.8"/>
      <point x="767.6" y="139.2"/>
      <point x="682.8" y="139.2" type="curve" smooth="yes"/>
      <point x="657.3" y="139.2"/>
      <point x="637.2" y="141.5"/>
      <point x="611.8" y="146.39999999999998" type="curve"/>
      <point x="675.5" y="103.4" type="line"/>
      <point x="677.6" y="136.9"/>
      <point x="677.3" y="185.6"/>
      <point x="673.6" y="234.8" type="curve" smooth="yes"/>
      <point x="631.0" y="720.0" type="line"/>
      <point x="461.6" y="720.0" type="line"/>
      <point x="513.8" y="178.1" type="line" smooth="yes"/>
      <point x="517.1" y="126.9"/>
      <point x="519.0" y="69.3"/>
      <point x="515.6" y="21.6" type="curve"/>
      <point x="517.6" y="9.6" type="line"/>
      <point x="571.7" y="-2.4000000000000004"/>
      <point x="627.3" y="-9.2"/>
    </contour>
    <contour>
      <point x="232.6" y="-9.2" type="curve" smooth="yes"/>
      <point x="383.7" y="-9.2"/>
      <point x="478.1" y="63.7"/>
      <point x="521.9" y="189.8" type="curve" smooth="yes"/>
      <point x="546.9" y="260.5" type="line"/>
      <point x="513.9" y="576.3" type="line"/>
      <point x="418.2" y="260.0" type="line" smooth="yes"/>
      <point x="397.5" y="189.6"/>
      <point x="369.0" y="139.2"/>
      <point x="284.2" y="139.2" type="curve" smooth="yes"/>
      <point x="265.0" y="139.2"/>
      <point x="249.8" y="141.39999999999998"/>
      <point x="232.1" y="145.0" type="curve"/>
      <point x="266.4" y="103.4" type="line"/>
      <point x="265.0" y="136.9"/>
      <point x="267.1" y="185.6"/>
      <point x="262.4" y="234.8" type="curve" smooth="yes"/>
      <point x="219.8" y="720.0" type="line"/>
      <point x="42.0" y="720.0" type="line"/>
      <point x="91.4" y="181.6" type="line" smooth="yes"/>
      <point x="95.0" y="141.6"/>
      <point x="99.4" y="64.4"/>
      <point x="96.0" y="21.6" type="curve"/>
      <point x="99.4" y="9.6" type="line"/>
      <point x="149.3" y="-3.8000000000000007"/>
      <point x="185.3" y="-9.2"/>
    </contour>
  </outline>
</glyph>
<glyph name="X" format="2">
  <advance width="703.6"/>
  <unicode hex="0058"/>
  <note>
X
</note>
  <anchor x="351.8" y="0.0" name="bottom"/>
  <anchor x="351.8" y="720.0" name="top"/>
  <outline>
    <contour>
      <point x="496.4" y="0.0" type="line"/>
      <point x="692.4" y="0.0" type="line"/>
      <point x="692.4" y="10.8" type="line"/>
      <point x="409.2" y="419.3" type="line"/>
      <point x="207.2" y="720.0" type="line"/>
      <point x="11.200000000000003" y="720.0" type="line"/>
      <point x="11.200000000000003" y="709.2" type="line"/>
      <point x="294.4" y="300.7" type="line"/>
    </contour>
    <contour>
      <point x="15.200000000000003" y="0.0" type="line"/>
      <point x="206.0" y="0.0" type="line"/>
      <point x="402.4" y="303.5" type="line"/>
      <point x="687.2" y="709.2" type="line"/>
      <point x="687.2" y="720.0" type="line"/>
      <point x="496.4" y="720.0" type="line"/>
      <point x="300.0" y="416.5" type="line"/>
      <point x="15.200000000000003" y="10.8" type="line"/>
    </contour>
  </outline>
</glyph>
<glyph name="Y" format="2">
  <advance width="656.8"/>
  <unicode hex="0059"/>
  <note>
Y
</note>
  <anchor x="326.2" y="0.0" name="bottom"/>
  <anchor x="328.4" y="720.0" name="top"/>
  <anchor x="20.0" y="720.0" name="topleft"/>
  <outline>
    <contour>
      <point x="237.6" y="0.0" type="line"/>
      <point x="414.8" y="0.0" type="line"/>
      <point x="414.8" y="300.4" type="line"/>
      <point x="654.4" y="709.2" type="line"/>
      <point x="654.4" y="720.0" type="line"/>
      <point x="469.2" y="720.0" type="line"/>
      <point x="301.9" y="390.0" type="line"/>
      <point x="367.2" y="390.7" type="line"/>
      <point x="188.8" y="720.0" type="line"/>
      <point x="2.4000000000000004" y="720.0" type="line"/>
      <point x="2.4000000000000004" y="709.2" type="line"/>
      <point x="237.6" y="298.6" type="line"/>
    </contour>
  </outline>
</glyph>
<glyph name="Z" format="2">
  <advance width="640.6"/>
  <unicode hex="005A"/>
  <note>
Z
</note>
  <anchor x="320.3" y="0.0" name="bottom"/>
  <anchor x="320.3" y="720.0" name="top"/>
  <outline>
    <contour>
      <point x="49.8" y="0.0" type="line"/>
      <point x="602.0" y="0.0" type="line"/>
      <point x="602.0" y="154.0" type="line"/>
      <point x="204.3" y="154.0" type="line"/>
      <point x="234.89999999999998" y="93.5" type="line"/>
      <point x="564.6" y="584.4" type="line" smooth="yes"/>
      <point x="584.2" y="613.7"/>
      <point x="597.6" y="640.2"/>
      <point x="597.6" y="674.5" type="curve" smooth="yes"/>
      <point x="597.6" y="684.1"/>
      <point x="595.2" y="699.6"/>
      <point x="592.8" y="709.2" type="curve"/>
      <point x="582.0" y="720.0" type="line"/>
      <point x="45.8" y="720.0" type="line"/>
      <point x="45.8" y="566.0" type="line"/>
      <point x="427.2" y="566.0" type="line"/>
      <point x="396.6" y="626.5" type="line"/>
      <point x="67.2" y="135.6" type="line" smooth="yes"/>
      <point x="47.0" y="105.4"/>
      <point x="34.5" y="80.4"/>
      <point x="34.5" y="45.5" type="curve" smooth="yes"/>
      <point x="34.5" y="35.9"/>
      <point x="35.9" y="22.1"/>
      <point x="39.0" y="10.8" type="curve"/>
    </contour>
  </outline>
</glyph>
<glyph name="bracketleft" format="2">
  <advance width="388.8"/>
  <unicode hex="005B"/>
  <note>
bracketleft
</note>
  <outline>
    <contour>
      <point x="72.80000000000001" y="760.0" type="line"/>
      <point x="72.80000000000001" y="-88.0" type="line"/>
      <point x="364.8" y="-88.0" type="line"/>
      <point x="364.8" y="38.4" type="line"/>
      <point x="224.0" y="38.4" type="line"/>
      <point x="224.0" y="633.6" type="line"/>
      <point x="364.8" y="633.6" type="line"/>
      <point x="364.8" y="760.0" type="line"/>
    </contour>
  </outline>
</glyph>
<glyph name="backslash" format="2">
  <advance width="566.4"/>
  <unicode hex="005C"/>
  <note>
backslash
</note>
  <outline>
    <contour>
      <point x="386.8" y="0.0" type="line"/>
      <point x="538.0" y="0.0" type="line"/>
      <point x="179.6" y="720.0" type="line"/>
      <point x="28.4" y="720.0" type="line"/>
    </contour>
  </outline>
</glyph>
<glyph name="bracketright" format="2">
  <advance width="388.8"/>
  <unicode hex="005D"/>
  <note>
bracketright
</note>
  <outline>
    <contour>
      <point x="24.0" y="38.4" type="line"/>
      <point x="24.0" y="-88.0" type="line"/>
      <point x="316.0" y="-88.0" type="line"/>
      <point x="316.0" y="760.0" type="line"/>
      <point x="24.0" y="760.0" type="line"/>
      <point x="24.0" y="633.6" type="line"/>
      <point x="164.8" y="633.6" type="line"/>
      <point x="164.8" y="38.4" type="line"/>
    </contour>
  </outline>
</glyph>
<glyph name="asciicircum" format="2">
  <advance width="616.0"/>
  <unicode hex="005E"/>
  <note>
asciicircum
</note>
  <outline>
    <contour>
      <point x="82.2" y="386.0" type="line"/>
      <point x="206.6" y="386.0" type="line"/>
      <point x="308.0" y="561.2" type="line"/>
      <point x="411.5" y="386.0" type="line"/>
      <point x="533.1" y="386.0" type="line"/>
      <point x="533.1" y="394.0" type="line"/>
      <point x="344.4" y="723.6" type="line"/>
      <point x="271.6" y="723.6" type="line"/>
      <point x="82.2" y="394.0" type="line"/>
    </contour>
  </outline>
</glyph>
<glyph name="a" format="2">
  <advance width="608.2"/>
  <unicode hex="0061"/>
  <note>
a
</note>
  <anchor x="304.1" y="0.0" name="bottom"/>
  <anchor x="547.2" y="30.8" name="ogonek"/>
  <anchor x="304.1" y="546.8" name="top"/>
  <outline>
    <contour>
      <point x="307.0" y="-12.0" type="curve" smooth="yes"/>
      <point x="392.2" y="-12.0"/>
      <point x="477.0" y="5.4"/>
      <point x="547.2" y="30.8" type="curve"/>
      <point x="550.6" y="38.8" type="line"/>
      <point x="541.2" y="74.8"/>
      <point x="539.8" y="157.2"/>
      <point x="539.8" y="200.0" type="curve" smooth="yes"/>
      <point x="539.8" y="320.8" type="line" smooth="yes"/>
      <point x="539.8" y="514.4"/>
      <point x="425.3" y="561.6"/>
      <point x="261.8" y="561.6" type="curve" smooth="yes"/>
      <point x="195.8" y="561.6"/>
      <point x="134.6" y="553.0"/>
      <point x="86.6" y="538.6" type="curve"/>
      <point x="86.6" y="404.8" type="line"/>
      <point x="97.4" y="404.8" type="line"/>
      <point x="129.4" y="419.4"/>
      <point x="183.8" y="431.2"/>
      <point x="241.4" y="431.2" type="curve" smooth="yes"/>
      <point x="325.8" y="431.2"/>
      <point x="369.4" y="414.0"/>
      <point x="369.4" y="330.8" type="curve" smooth="yes"/>
      <point x="369.4" y="226.39999999999998" type="line" smooth="yes"/>
      <point x="369.4" y="143.4"/>
      <point x="371.4" y="125.69999999999999"/>
      <point x="388.6" y="83.4" type="curve"/>
      <point x="409.4" y="132.1" type="line"/>
      <point x="382.5" y="109.4"/>
      <point x="341.6" y="103.19999999999999"/>
      <point x="299.8" y="103.19999999999999" type="curve" smooth="yes"/>
      <point x="237.4" y="103.19999999999999"/>
      <point x="202.2" y="120.0"/>
      <point x="202.2" y="165.6" type="curve" smooth="yes"/>
      <point x="202.2" y="212.4"/>
      <point x="234.6" y="230.8"/>
      <point x="306.2" y="230.8" type="curve" smooth="yes"/>
      <point x="336.8" y="230.8"/>
      <point x="374.4" y="224.4"/>
      <point x="393.6" y="218.0" type="curve"/>
      <point x="393.6" y="320.8" type="line"/>
      <point x="360.4" y="328.6"/>
      <point x="323.6" y="334.8"/>
      <point x="279.0" y="334.8" type="curve" smooth="yes"/>
      <point x="140.6" y="334.8"/>
      <point x="40.8" y="284.4"/>
      <point x="40.8" y="162.8" type="curve" smooth="yes"/>
      <point x="40.8" y="35.6"/>
      <point x="131.4" y="-12.0"/>
    </contour>
  </outline>
</glyph>
<glyph name="b" format="2">
  <advance width="664.2"/>
  <unicode hex="0062"/>
  <note>
b
</note>
  <anchor x="332.1" y="0.0" name="bottom"/>
  <anchor x="332.1" y="760.0" name="top"/>
  <outline>
    <contour>
      <point x="278.4" y="-12.0" type="curve" smooth="yes"/>
      <point x="479.6" y="-12.0"/>
      <point x="620.6" y="73.6"/>
      <point x="620.6" y="278.8" type="curve" smooth="yes"/>
      <point x="620.6" y="453.6"/>
      <point x="524.9" y="561.6"/>
      <point x="353.6" y="561.6" type="curve" smooth="yes"/>
      <point x="311.5" y="561.6"/>
      <point x="268.5" y="553.6"/>
      <point x="220.39999999999998" y="533.6" type="curve"/>
      <point x="220.39999999999998" y="415.6" type="line"/>
      <point x="245.8" y="424.9"/>
      <point x="276.8" y="431.2"/>
      <point x="306.4" y="431.2" type="curve" smooth="yes"/>
      <point x="396.8" y="431.2"/>
      <point x="441.2" y="372.0"/>
      <point x="441.2" y="276.0" type="curve" smooth="yes"/>
      <point x="441.2" y="179.2"/>
      <point x="400.8" y="115.6"/>
      <point x="303.6" y="115.6" type="curve" smooth="yes"/>
      <point x="269.1" y="115.6"/>
      <point x="231.0" y="123.19999999999999"/>
      <point x="217.2" y="123.0" type="curve"/>
      <point x="247.2" y="83.8" type="line"/>
      <point x="248.39999999999998" y="106.6"/>
      <point x="252.39999999999998" y="138.1"/>
      <point x="252.39999999999998" y="178.8" type="curve" smooth="yes"/>
      <point x="252.39999999999998" y="760.0" type="line"/>
      <point x="69.0" y="760.0" type="line"/>
      <point x="65.6" y="752.0" type="line"/>
      <point x="74.3" y="716.0"/>
      <point x="76.4" y="591.6"/>
      <point x="76.4" y="551.6" type="curve" smooth="yes"/>
      <point x="76.4" y="190.4" type="line" smooth="yes"/>
      <point x="76.4" y="150.4"/>
      <point x="76.4" y="68.0"/>
      <point x="68.4" y="32.0" type="curve"/>
      <point x="71.8" y="24.0" type="line"/>
      <point x="126.6" y="4.0"/>
      <point x="205.5" y="-12.0"/>
    </contour>
  </outline>
</glyph>
<glyph name="c" format="2">
  <advance width="520.8"/>
  <unicode hex="0063"/>
  <note>
c
</note>
  <anchor x="260.4" y="0.0" name="bottom"/>
  <anchor x="260.4" y="546.8" name="top"/>
  <outline>
    <contour>
      <point x="43.6" y="275.4" type="curve" smooth="yes"/>
      <point x="43.6" y="76.4"/>
      <point x="172.6" y="-10.8"/>
      <point x="360.8" y="-10.8" type="curve" smooth="yes"/>
      <point x="406.0" y="-10.8"/>
      <point x="450.0" y="-4.199999999999999"/>
      <point x="482.0" y="7.0" type="curve"/>
      <point x="482.0" y="146.4" type="line"/>
      <point x="471.2" y="146.4" type="line"/>
      <point x="448.8" y="136.6"/>
      <point x="420.0" y="128.0"/>
      <point x="380.4" y="128.0" type="curve" smooth="yes"/>
      <point x="280.0" y="128.0"/>
      <point x="223.0" y="179.2"/>
      <point x="223.0" y="275.4" type="curve" smooth="yes"/>
      <point x="223.0" y="371.6"/>
      <point x="280.0" y="422.8"/>
      <point x="380.4" y="422.8" type="curve" smooth="yes"/>
      <point x="420.0" y="422.8"/>
      <point x="448.8" y="414.2"/>
      <point x="471.2" y="404.4" type="curve"/>
      <point x="482.0" y="404.4" type="line"/>
      <point x="482.0" y="543.8" type="line"/>
      <point x="450.0" y="555.0"/>
      <point x="406.0" y="561.6"/>
      <point x="360.8" y="561.6" type="curve" smooth="yes"/>
      <point x="178.0" y="561.6"/>
      <point x="43.6" y="474.4"/>
    </contour>
  </outline>
</glyph>
<glyph name="d" format="2">
  <advance width="664.2"/>
  <unicode hex="0064"/>
  <note>
d
</note>
  <anchor x="332.1" y="0.0" name="bottom"/>
  <anchor x="480.2" y="651.8" name="center"/>
  <anchor x="332.1" y="760.0" name="top"/>
  <anchor x="714.8" y="546.8" name="topright"/>
  <outline>
    <contour>
      <point x="357.2" y="-12.0" type="curve" smooth="yes"/>
      <point x="458.4" y="-12.0"/>
      <point x="536.4" y="4.6"/>
      <point x="592.4" y="28.0" type="curve"/>
      <point x="595.8" y="36.0" type="line"/>
      <point x="587.8" y="72.0"/>
      <point x="587.8" y="154.4"/>
      <point x="587.8" y="194.4" type="curve" smooth="yes"/>
      <point x="587.8" y="760.0" type="line"/>
      <point x="404.4" y="760.0" type="line"/>
      <point x="401.0" y="752.0" type="line"/>
      <point x="408.3" y="720.9"/>
      <point x="411.8" y="626.6"/>
      <point x="411.8" y="574.7" type="curve" smooth="yes"/>
      <point x="411.8" y="182.8" type="line" smooth="yes"/>
      <point x="411.8" y="143.9"/>
      <point x="412.4" y="111.2"/>
      <point x="426.8" y="87.5" type="curve"/>
      <point x="438.6" y="130.9" type="line"/>
      <point x="421.2" y="124.19999999999999"/>
      <point x="398.9" y="118.4"/>
      <point x="362.4" y="118.4" type="curve" smooth="yes"/>
      <point x="262.3" y="118.4"/>
      <point x="223.0" y="182.4"/>
      <point x="223.0" y="275.4" type="curve" smooth="yes"/>
      <point x="223.0" y="371.8"/>
      <point x="267.1" y="431.2"/>
      <point x="364.2" y="431.2" type="curve" smooth="yes"/>
      <point x="395.7" y="431.2"/>
      <point x="416.8" y="423.4"/>
      <point x="435.3" y="417.4" type="curve"/>
      <point x="436.5" y="545.0" type="line"/>
      <point x="423.3" y="550.1"/>
      <point x="384.6" y="561.6"/>
      <point x="334.4" y="560.9" type="curve" smooth="yes"/>
      <point x="156.8" y="558.8"/>
      <point x="43.6" y="452.0"/>
      <point x="43.6" y="275.4" type="curve" smooth="yes"/>
      <point x="43.6" y="70.8"/>
      <point x="166.0" y="-12.0"/>
    </contour>
  </outline>
</glyph>
<glyph name="e" format="2">
  <advance width="624.3"/>
  <unicode hex="0065"/>
  <note>
e
</note>
  <anchor x="312.3" y="0.0" name="bottom"/>
  <anchor x="544.4" y="15.0" name="ogonek"/>
  <anchor x="312.3" y="546.8" name="top"/>
  <outline>
    <contour>
      <point x="374.4" y="-10.8" type="curve" smooth="yes"/>
      <point x="449.9" y="-10.8"/>
      <point x="504.0" y="-1.0"/>
      <point x="544.4" y="15.0" type="curve"/>
      <point x="544.4" y="151.6" type="line"/>
      <point x="533.6" y="151.6" type="line"/>
      <point x="505.6" y="135.6"/>
      <point x="452.0" y="122.4"/>
      <point x="389.6" y="122.4" type="curve" smooth="yes"/>
      <point x="288.3" y="122.4"/>
      <point x="220.2" y="153.6"/>
      <point x="220.2" y="258.6" type="curve" smooth="yes"/>
      <point x="220.2" y="291.2" type="line" smooth="yes"/>
      <point x="220.2" y="402.8"/>
      <point x="258.5" y="439.6"/>
      <point x="320.8" y="439.6" type="curve" smooth="yes"/>
      <point x="385.3" y="439.6"/>
      <point x="414.4" y="401.6"/>
      <point x="414.4" y="335.2" type="curve" smooth="yes"/>
      <point x="414.4" y="330.0" type="line"/>
      <point x="152.4" y="330.0" type="line"/>
      <point x="152.4" y="226.0" type="line"/>
      <point x="581.5" y="226.0" type="line"/>
      <point x="583.2" y="262.4" type="line" smooth="yes"/>
      <point x="591.3" y="434.4"/>
      <point x="510.8" y="561.6"/>
      <point x="323.6" y="561.6" type="curve" smooth="yes"/>
      <point x="152.7" y="561.6"/>
      <point x="43.6" y="455.2"/>
      <point x="43.6" y="275.4" type="curve" smooth="yes"/>
      <point x="43.6" y="66.8"/>
      <point x="176.0" y="-10.8"/>
    </contour>
  </outline>
</glyph>
<glyph name="f" format="2">
  <advance width="425.6"/>
  <unicode hex="0066"/>
  <note>
f
</note>
  <anchor x="212.8" y="0.0" name="bottom"/>
  <anchor x="212.8" y="760.0" name="top"/>
  <outline>
    <contour>
      <point x="100.0" y="0.0" type="line"/>
      <point x="276.0" y="0.0" type="line"/>
      <point x="276.0" y="535.6" type="line" smooth="yes"/>
      <point x="276.0" y="611.7"/>
      <point x="308.1" y="640.8"/>
      <point x="371.6" y="640.8" type="curve" smooth="yes"/>
      <point x="398.0" y="640.8"/>
      <point x="416.8" y="635.4"/>
      <point x="431.2" y="628.8" type="curve"/>
      <point x="442.0" y="628.8" type="line"/>
      <point x="442.0" y="759.2" type="line"/>
      <point x="422.0" y="765.8"/>
      <point x="392.4" y="771.2"/>
      <point x="354.8" y="771.2" type="curve" smooth="yes"/>
      <point x="200.1" y="771.2"/>
      <point x="100.0" y="701.7"/>
      <point x="100.0" y="538.4" type="curve" smooth="yes"/>
    </contour>
    <contour>
      <point x="10.4" y="410.8" type="line"/>
      <point x="405.6" y="410.8" type="line"/>
      <point x="405.6" y="546.8" type="line"/>
      <point x="10.4" y="546.8" type="line"/>
    </contour>
  </outline>
</glyph>
<glyph name="g" format="2">
  <advance width="664.2"/>
  <unicode hex="0067"/>
  <note>
g
</note>
  <anchor x="332.1" y="-240.0" name="bottom"/>
  <anchor x="332.1" y="546.8" name="top"/>
  <outline>
    <contour>
      <point x="259.0" y="-240.0" type="curve" smooth="yes"/>
      <point x="454.8" y="-240.0"/>
      <point x="587.8" y="-152.4"/>
      <point x="587.8" y="41.2" type="curve" smooth="yes"/>
      <point x="587.8" y="348.0" type="line" smooth="yes"/>
      <point x="587.8" y="390.8"/>
      <point x="587.8" y="473.2"/>
      <point x="595.8" y="509.2" type="curve"/>
      <point x="592.4" y="517.2" type="line"/>
      <point x="543.2" y="540.0"/>
      <point x="468.4" y="561.6"/>
      <point x="377.6" y="561.6" type="curve" smooth="yes"/>
      <point x="188.0" y="561.6"/>
      <point x="43.6" y="470.4"/>
      <point x="43.6" y="276.0" type="curve" smooth="yes"/>
      <point x="43.6" y="93.2"/>
      <point x="158.2" y="4.0"/>
      <point x="337.2" y="4.0" type="curve" smooth="yes"/>
      <point x="362.9" y="4.0"/>
      <point x="390.3" y="6.2"/>
      <point x="426.2" y="13.0" type="curve"/>
      <point x="426.8" y="141.8" type="line"/>
      <point x="400.8" y="132.8"/>
      <point x="383.1" y="131.6"/>
      <point x="363.6" y="131.6" type="curve" smooth="yes"/>
      <point x="266.6" y="131.6"/>
      <point x="223.0" y="184.4"/>
      <point x="223.0" y="278.8" type="curve" smooth="yes"/>
      <point x="223.0" y="366.0"/>
      <point x="265.9" y="428.4"/>
      <point x="363.6" y="428.4" type="curve" smooth="yes"/>
      <point x="399.6" y="428.4"/>
      <point x="433.8" y="420.5"/>
      <point x="442.5" y="420.6" type="curve"/>
      <point x="426.9" y="452.1" type="line"/>
      <point x="414.5" y="436.2"/>
      <point x="411.8" y="392.1"/>
      <point x="411.8" y="344.0" type="curve" smooth="yes"/>
      <point x="411.8" y="18.8" type="line" smooth="yes"/>
      <point x="411.8" y="-73.2"/>
      <point x="344.2" y="-101.2"/>
      <point x="245.0" y="-101.2" type="curve" smooth="yes"/>
      <point x="204.1" y="-101.2"/>
      <point x="149.2" y="-92.5"/>
      <point x="113.6" y="-76.0" type="curve"/>
      <point x="100.0" y="-76.0" type="line"/>
      <point x="100.0" y="-215.4" type="line"/>
      <point x="137.2" y="-232.0"/>
      <point x="205.4" y="-240.0"/>
    </contour>
  </outline>
</glyph>
<glyph name="h" format="2">
  <advance width="676.4"/>
  <unicode hex="0068"/>
  <note>
h
</note>
  <anchor x="338.2" y="0.0" name="bottom"/>
  <anchor x="185.3" y="651.8" name="center"/>
  <anchor x="160.7" y="760.0" name="top"/>
  <outline>
    <contour>
      <point x="76.4" y="0.0" type="line"/>
      <point x="252.39999999999998" y="0.0" type="line"/>
      <point x="252.39999999999998" y="482.9" type="line"/>
      <point x="219.1" y="406.8" type="line"/>
      <point x="231.3" y="408.1"/>
      <point x="281.9" y="421.6"/>
      <point x="316.4" y="421.6" type="curve" smooth="yes"/>
      <point x="383.4" y="421.6"/>
      <point x="428.0" y="395.2"/>
      <point x="428.0" y="308.0" type="curve" smooth="yes"/>
      <point x="428.0" y="0.0" type="line"/>
      <point x="604.0" y="0.0" type="line"/>
      <point x="604.0" y="311.6" type="line" smooth="yes"/>
      <point x="604.0" y="488.4"/>
      <point x="507.2" y="561.6"/>
      <point x="361.6" y="561.6" type="curve" smooth="yes"/>
      <point x="298.8" y="561.6"/>
      <point x="254.4" y="549.2"/>
      <point x="215.2" y="532.0" type="curve"/>
      <point x="252.39999999999998" y="473.6" type="line"/>
      <point x="252.39999999999998" y="760.0" type="line"/>
      <point x="69.0" y="760.0" type="line"/>
      <point x="65.6" y="752.0" type="line"/>
      <point x="74.3" y="716.0"/>
      <point x="76.4" y="633.6"/>
      <point x="76.4" y="593.6" type="curve" smooth="yes"/>
    </contour>
  </outline>
</glyph>
<glyph name="k" format="2">
  <advance width="629.6"/>
  <unicode hex="006B"/>
  <note>
k
</note>
  <anchor x="314.8" y="0.0" name="bottom"/>
  <anchor x="314.8" y="760.0" name="top"/>
  <outline>
    <contour>
      <point x="252.39999999999998" y="0.0" type="line"/>
      <point x="252.39999999999998" y="760.0" type="line"/>
      <point x="69.0" y="760.0" type="line"/>
      <point x="65.6" y="752.0" type="line"/>
      <point x="74.3" y="716.0"/>
      <point x="76.4" y="633.6"/>
      <point x="76.4" y="593.6" type="curve" smooth="yes"/>
      <point x="76.4" y="0.0" type="line"/>
    </contour>
    <contour>
      <point x="220.8" y="286.8" type="line"/>
      <point x="429.6" y="0.0" type="line"/>
      <point x="630.0" y="0.0" type="line"/>
      <point x="630.0" y="12.0" type="line"/>
      <point x="610.6" y="28.0"/>
      <point x="574.6" y="66.1"/>
      <point x="550.0" y="98.6" type="curve" smooth="yes"/>
      <point x="355.6" y="353.1" type="line"/>
      <point x="354.6" y="240.7" type="line"/>
      <point x="538.1" y="442.5" type="line" smooth="yes"/>
      <point x="566.1" y="473.3"/>
      <point x="602.5" y="518.8"/>
      <point x="623.2" y="534.8" type="curve"/>
      <point x="623.2" y="546.8" type="line"/>
      <point x="438.0" y="546.8" type="line"/>
    </contour>
  </outline>
</glyph>
<glyph name="l" format="2">
  <advance width="328.8"/>
  <unicode hex="006C"/>
  <note>
l
</note>
  <anchor x="164.4" y="0.0" name="bottom"/>
  <anchor x="168.0" y="376.6" name="center"/>
  <anchor x="388.0" y="357.2" name="periodCAT"/>
  <anchor x="164.4" y="760.0" name="top"/>
  <anchor x="372.2" y="546.8" name="topright"/>
  <outline>
    <contour>
      <point x="76.4" y="0.0" type="line"/>
      <point x="252.39999999999998" y="0.0" type="line"/>
      <point x="252.39999999999998" y="760.0" type="line"/>
      <point x="69.0" y="760.0" type="line"/>
      <point x="65.6" y="752.0" type="line"/>
      <point x="74.3" y="716.0"/>
      <point x="76.4" y="633.6"/>
      <point x="76.4" y="593.6" type="curve" smooth="yes"/>
    </contour>
  </outline>
</glyph>
<glyph name="m" format="2">
  <advance width="1006.4"/>
  <unicode hex="006D"/>
  <note>
m
</note>
  <anchor x="503.2" y="0.0" name="bottom"/>
  <anchor x="503.2" y="546.8" name="top"/>
  <outline>
    <contour>
      <point x="76.4" y="0.0" type="line"/>
      <point x="252.39999999999998" y="0.0" type="line"/>
      <point x="252.39999999999998" y="340.0" type="line" smooth="yes"/>
      <point x="252.39999999999998" y="388.8"/>
      <point x="247.3" y="420.8"/>
      <point x="238.8" y="441.5" type="curve"/>
      <point x="214.4" y="401.6" type="line"/>
      <point x="242.0" y="411.1"/>
      <point x="277.5" y="422.8"/>
      <point x="315.6" y="422.8" type="curve" smooth="yes"/>
      <point x="377.2" y="422.8"/>
      <point x="420.4" y="399.2"/>
      <point x="420.4" y="306.4" type="curve" smooth="yes"/>
      <point x="420.4" y="0.0" type="line"/>
      <point x="596.4" y="0.0" type="line"/>
      <point x="596.4" y="311.6" type="line" smooth="yes"/>
      <point x="596.4" y="513.6"/>
      <point x="460.4" y="561.6"/>
      <point x="329.0" y="561.6" type="curve" smooth="yes"/>
      <point x="232.8" y="561.6"/>
      <point x="135.0" y="536.0"/>
      <point x="69.0" y="507.6" type="curve"/>
      <point x="65.6" y="499.6" type="line"/>
      <point x="74.3" y="463.6"/>
      <point x="76.4" y="378.4"/>
      <point x="76.4" y="338.4" type="curve" smooth="yes"/>
    </contour>
    <contour>
      <point x="758.0" y="0.0" type="line"/>
      <point x="934.0" y="0.0" type="line"/>
      <point x="934.0" y="311.6" type="line" smooth="yes"/>
      <point x="934.0" y="522.0"/>
      <point x="803.2" y="561.6"/>
      <point x="676.8" y="561.6" type="curve" smooth="yes"/>
      <point x="604.4" y="561.6"/>
      <point x="532.6" y="542.5"/>
      <point x="479.2" y="519.0" type="curve"/>
      <point x="568.8" y="408.8" type="line"/>
      <point x="592.1" y="417.0"/>
      <point x="622.3" y="422.8"/>
      <point x="650.8" y="422.8" type="curve" smooth="yes"/>
      <point x="717.2" y="422.8"/>
      <point x="758.0" y="399.2"/>
      <point x="758.0" y="306.4" type="curve" smooth="yes"/>
    </contour>
  </outline>
</glyph>
<glyph name="n" format="2">
  <advance width="676.4"/>
  <unicode hex="006E"/>
  <note>
n
</note>
  <anchor x="338.2" y="0.0" name="bottom"/>
  <anchor x="338.2" y="546.8" name="top"/>
  <outline>
    <contour>
      <point x="76.4" y="0.0" type="line"/>
      <point x="252.39999999999998" y="0.0" type="line"/>
      <point x="252.39999999999998" y="340.0" type="line" smooth="yes"/>
      <point x="252.39999999999998" y="388.8"/>
      <point x="247.3" y="420.8"/>
      <point x="238.8" y="441.5" type="curve"/>
      <point x="214.4" y="401.6" type="line"/>
      <point x="242.0" y="411.1"/>
      <point x="277.5" y="422.8"/>
      <point x="315.6" y="422.8" type="curve" smooth="yes"/>
      <point x="382.0" y="422.8"/>
      <point x="428.0" y="399.2"/>
      <point x="428.0" y="306.4" type="curve" smooth="yes"/>
      <point x="428.0" y="0.0" type="line"/>
      <point x="604.0" y="0.0" type="line"/>
      <point x="604.0" y="311.6" type="line" smooth="yes"/>
      <point x="604.0" y="513.6"/>
      <point x="468.0" y="561.6"/>
      <point x="329.0" y="561.6" type="curve" smooth="yes"/>
      <point x="234.0" y="561.6"/>
      <point x="135.0" y="536.0"/>
      <point x="69.0" y="507.6" type="curve"/>
      <point x="65.6" y="499.6" type="line"/>
      <point x="74.3" y="463.6"/>
      <point x="76.4" y="378.4"/>
      <point x="76.4" y="338.4" type="curve" smooth="yes"/>
    </contour>
  </outline>
</glyph>
<glyph name="o" format="2">
  <advance width="651.6"/>
  <unicode hex="006F"/>
  <note>
o
</note>
  <anchor x="325.8" y="0.0" name="bottom"/>
  <anchor x="325.8" y="273.4" name="center"/>
  <anchor x="416.6" y="0.0" name="ogonek"/>
  <anchor x="325.8" y="546.8" name="top"/>
  <anchor x="428.1" y="546.8" name="topright"/>
  <outline>
    <contour>
      <point x="43.6" y="275.4" type="curve" smooth="yes"/>
      <point x="43.6" y="82.0"/>
      <point x="159.8" y="-10.8"/>
      <point x="325.8" y="-10.8" type="curve" smooth="yes"/>
      <point x="490.6" y="-10.8"/>
      <point x="608.0" y="82.0"/>
      <point x="608.0" y="275.4" type="curve" smooth="yes"/>
      <point x="608.0" y="468.8"/>
      <point x="490.6" y="561.6"/>
      <point x="325.8" y="561.6" type="curve" smooth="yes"/>
      <point x="161.0" y="561.6"/>
      <point x="43.6" y="468.8"/>
    </contour>
    <contour>
      <point x="223.0" y="275.4" type="curve" smooth="yes"/>
      <point x="223.0" y="380.0"/>
      <point x="256.6" y="434.0"/>
      <point x="325.8" y="434.0" type="curve" smooth="yes"/>
      <point x="395.0" y="434.0"/>
      <point x="428.6" y="380.0"/>
      <point x="428.6" y="275.4" type="curve" smooth="yes"/>
      <point x="428.6" y="170.8"/>
      <point x="395.0" y="116.8"/>
      <point x="325.8" y="116.8" type="curve" smooth="yes"/>
      <point x="256.6" y="116.8"/>
      <point x="223.0" y="170.8"/>
    </contour>
  </outline>
</glyph>
<glyph name="p" format="2">
  <advance width="664.2"/>
  <unicode hex="0070"/>
  <note>
p
</note>
  <anchor x="332.1" y="0.0" name="bottom"/>
  <anchor x="332.1" y="546.8" name="top"/>
  <outline>
    <contour>
      <point x="76.4" y="-232.0" type="line"/>
      <point x="252.39999999999998" y="-232.0" type="line"/>
      <point x="252.39999999999998" y="354.0" type="line" smooth="yes"/>
      <point x="252.39999999999998" y="401.8"/>
      <point x="249.7" y="430.7"/>
      <point x="235.2" y="450.7" type="curve"/>
      <point x="222.3" y="407.3" type="line"/>
      <point x="231.8" y="417.1"/>
      <point x="270.5" y="431.2"/>
      <point x="309.2" y="431.2" type="curve" smooth="yes"/>
      <point x="401.2" y="431.2"/>
      <point x="441.2" y="368.8"/>
      <point x="441.2" y="275.4" type="curve" smooth="yes"/>
      <point x="441.2" y="179.2"/>
      <point x="402.4" y="115.6"/>
      <point x="302.4" y="115.6" type="curve" smooth="yes"/>
      <point x="274.1" y="115.6"/>
      <point x="253.6" y="120.0"/>
      <point x="240.39999999999998" y="125.5" type="curve"/>
      <point x="231.6" y="-1.2999999999999998" type="line"/>
      <point x="248.6" y="-5.8999999999999995"/>
      <point x="290.1" y="-12.0"/>
      <point x="327.6" y="-12.0" type="curve" smooth="yes"/>
      <point x="534.4" y="-12.0"/>
      <point x="620.6" y="124.0"/>
      <point x="620.6" y="275.4" type="curve" smooth="yes"/>
      <point x="620.6" y="485.6"/>
      <point x="474.0" y="561.6"/>
      <point x="317.2" y="561.6" type="curve" smooth="yes"/>
      <point x="226.8" y="561.6"/>
      <point x="147.3" y="540.0"/>
      <point x="69.0" y="507.6" type="curve"/>
      <point x="65.6" y="499.6" type="line"/>
      <point x="74.3" y="463.6"/>
      <point x="76.4" y="381.2"/>
      <point x="76.4" y="342.4" type="curve" smooth="yes"/>
    </contour>
  </outline>
</glyph>
<glyph name="q" format="2">
  <advance width="664.2"/>
  <unicode hex="0071"/>
  <note>
q
</note>
  <anchor x="332.1" y="0.0" name="bottom"/>
  <anchor x="332.1" y="546.8" name="top"/>
  <outline>
    <contour>
      <point x="411.8" y="-215.2" type="line"/>
      <point x="587.8" y="-215.2" type="line"/>
      <point x="587.8" y="350.8" type="line" smooth="yes"/>
      <point x="587.8" y="390.8"/>
      <point x="587.8" y="473.2"/>
      <point x="595.8" y="509.2" type="curve"/>
      <point x="592.4" y="517.2" type="line"/>
      <point x="543.2" y="540.0"/>
      <point x="468.4" y="561.6"/>
      <point x="376.4" y="561.6" type="curve" smooth="yes"/>
      <point x="198.8" y="561.6"/>
      <point x="43.6" y="480.0"/>
      <point x="43.6" y="275.4" type="curve" smooth="yes"/>
      <point x="43.6" y="93.2"/>
      <point x="149.2" y="-12.0"/>
      <point x="337.6" y="-12.0" type="curve" smooth="yes"/>
      <point x="380.2" y="-12.0"/>
      <point x="425.8" y="-4.7"/>
      <point x="443.8" y="-1.0" type="curve"/>
      <point x="446.8" y="129.7" type="line"/>
      <point x="422.1" y="124.19999999999999"/>
      <point x="394.3" y="118.4"/>
      <point x="365.2" y="118.4" type="curve" smooth="yes"/>
      <point x="274.9" y="118.4"/>
      <point x="223.0" y="167.0"/>
      <point x="223.0" y="275.4" type="curve" smooth="yes"/>
      <point x="223.0" y="371.8"/>
      <point x="264.3" y="434.0"/>
      <point x="363.6" y="434.0" type="curve" smooth="yes"/>
      <point x="401.7" y="434.0"/>
      <point x="428.9" y="421.9"/>
      <point x="443.9" y="412.2" type="curve"/>
      <point x="424.1" y="459.1" type="line"/>
      <point x="414.5" y="438.3"/>
      <point x="411.8" y="401.2"/>
      <point x="411.8" y="356.6" type="curve" smooth="yes"/>
    </contour>
  </outline>
</glyph>
<glyph name="r" format="2">
  <advance width="426.0"/>
  <unicode hex="0072"/>
  <note>
r
</note>
  <anchor x="164.4" y="0.0" name="bottom"/>
  <anchor x="213.0" y="546.8" name="top"/>
  <outline>
    <contour>
      <point x="76.4" y="0.0" type="line"/>
      <point x="252.39999999999998" y="0.0" type="line"/>
      <point x="252.39999999999998" y="340.0" type="line" smooth="yes"/>
      <point x="252.39999999999998" y="392.0"/>
      <point x="247.6" y="425.2"/>
      <point x="235.2" y="441.6" type="curve"/>
      <point x="210.9" y="403.3" type="line"/>
      <point x="237.6" y="415.9"/>
      <point x="276.8" y="423.2"/>
      <point x="321.6" y="423.2" type="curve" smooth="yes"/>
      <point x="347.2" y="423.2"/>
      <point x="374.9" y="420.1"/>
      <point x="396.8" y="413.6" type="curve"/>
      <point x="407.6" y="413.6" type="line"/>
      <point x="407.6" y="552.4" type="line"/>
      <point x="368.4" y="557.9"/>
      <point x="332.9" y="559.2"/>
      <point x="312.8" y="559.2" type="curve" smooth="yes"/>
      <point x="207.6" y="559.2"/>
      <point x="126.6" y="541.6"/>
      <point x="69.0" y="521.6" type="curve"/>
      <point x="65.6" y="513.6" type="line"/>
      <point x="74.3" y="477.6"/>
      <point x="76.4" y="392.4"/>
      <point x="76.4" y="352.4" type="curve" smooth="yes"/>
    </contour>
  </outline>
</glyph>
<glyph name="s" format="2">
  <advance width="547.6"/>
  <unicode hex="0073"/>
  <note>
s
</note>
  <anchor x="273.8" y="0.0" name="bottom"/>
  <anchor x="273.8" y="546.8" name="top"/>
  <outline>
    <contour>
      <point x="52.0" y="161.2" type="line"/>
      <point x="52.0" y="20.0" type="line"/>
      <point x="105.6" y="4.0"/>
      <point x="176.8" y="-8.0"/>
      <point x="239.2" y="-8.0" type="curve" smooth="yes"/>
      <point x="422.3" y="-8.0"/>
      <point x="514.4" y="50.8"/>
      <point x="514.4" y="172.8" type="curve" smooth="yes"/>
      <point x="514.4" y="276.0"/>
      <point x="438.4" y="316.2"/>
      <point x="343.6" y="332.6" type="curve" smooth="yes"/>
      <point x="298.4" y="340.6" type="line" smooth="yes"/>
      <point x="245.1" y="350.2"/>
      <point x="218.39999999999998" y="356.8"/>
      <point x="218.39999999999998" y="383.5" type="curve" smooth="yes"/>
      <point x="218.39999999999998" y="415.8"/>
      <point x="254.8" y="427.2"/>
      <point x="316.0" y="427.2" type="curve" smooth="yes"/>
      <point x="362.4" y="427.2"/>
      <point x="415.2" y="419.9"/>
      <point x="470.4" y="397.6" type="curve"/>
      <point x="478.4" y="397.6" type="line"/>
      <point x="478.4" y="537.0" type="line"/>
      <point x="426.8" y="551.8"/>
      <point x="380.4" y="557.6"/>
      <point x="320.0" y="557.6" type="curve" smooth="yes"/>
      <point x="130.0" y="557.6"/>
      <point x="49.2" y="480.4"/>
      <point x="49.2" y="375.6" type="curve" smooth="yes"/>
      <point x="49.2" y="280.4"/>
      <point x="111.6" y="238.1"/>
      <point x="214.1" y="219.8" type="curve" smooth="yes"/>
      <point x="259.3" y="211.8" type="line" smooth="yes"/>
      <point x="320.3" y="200.8"/>
      <point x="342.4" y="194.9"/>
      <point x="342.4" y="165.8" type="curve" smooth="yes"/>
      <point x="342.4" y="126.3"/>
      <point x="301.6" y="122.4"/>
      <point x="248.8" y="122.4" type="curve" smooth="yes"/>
      <point x="180.4" y="122.4"/>
      <point x="108.0" y="140.6"/>
      <point x="60.0" y="161.2" type="curve"/>
    </contour>
  </outline>
</glyph>
<glyph name="t" format="2">
  <advance width="471.2"/>
  <unicode hex="0074"/>
  <note>
t
</note>
  <anchor x="235.6" y="0.0" name="bottom"/>
  <anchor x="235.6" y="273.4" name="center"/>
  <anchor x="189.2" y="683.6" name="top"/>
  <anchor x="392.0" y="601.3" name="topright"/>
  <outline>
    <contour>
      <point x="343.6" y="-8.0" type="curve" smooth="yes"/>
      <point x="386.6" y="-8.0"/>
      <point x="417.2" y="-2.8"/>
      <point x="445.6" y="5.800000000000001" type="curve"/>
      <point x="445.6" y="144.0" type="line"/>
      <point x="434.8" y="144.0" type="line"/>
      <point x="417.6" y="136.8"/>
      <point x="393.8" y="130.8"/>
      <point x="370.0" y="130.8" type="curve" smooth="yes"/>
      <point x="306.4" y="130.8"/>
      <point x="277.2" y="154.4"/>
      <point x="277.2" y="216.4" type="curve" smooth="yes"/>
      <point x="277.2" y="683.6" type="line"/>
      <point x="101.2" y="683.6" type="line"/>
      <point x="101.2" y="202.8" type="line" smooth="yes"/>
      <point x="101.2" y="44.400000000000006"/>
      <point x="198.0" y="-8.0"/>
    </contour>
    <contour>
      <point x="11.600000000000001" y="410.8" type="line"/>
      <point x="420.6" y="410.8" type="line"/>
      <point x="420.6" y="546.8" type="line"/>
      <point x="11.600000000000001" y="546.8" type="line"/>
    </contour>
  </outline>
</glyph>
<glyph name="u" format="2">
  <advance width="674.0"/>
  <unicode hex="0075"/>
  <note>
u
</note>
  <anchor x="337.0" y="0.0" name="bottom"/>
  <anchor x="605.0" y="40.8" name="ogonek"/>
  <anchor x="337.0" y="546.8" name="top"/>
  <anchor x="502.6" y="546.8" name="topright"/>
  <outline>
    <contour>
      <point x="347.4" y="-12.0" type="curve" smooth="yes"/>
      <point x="440.0" y="-12.0"/>
      <point x="539.0" y="12.399999999999999"/>
      <point x="605.0" y="40.8" type="curve"/>
      <point x="608.4" y="48.8" type="line"/>
      <point x="599.7" y="84.8"/>
      <point x="597.6" y="170.0"/>
      <point x="597.6" y="210.0" type="curve" smooth="yes"/>
      <point x="597.6" y="546.8" type="line"/>
      <point x="414.2" y="546.8" type="line"/>
      <point x="410.8" y="538.8" type="line"/>
      <point x="419.5" y="502.8"/>
      <point x="421.6" y="420.4"/>
      <point x="421.6" y="380.4" type="curve" smooth="yes"/>
      <point x="421.6" y="207.2" type="line" smooth="yes"/>
      <point x="421.6" y="159.0"/>
      <point x="425.8" y="127.6"/>
      <point x="434.6" y="107.5" type="curve"/>
      <point x="459.3" y="146.2" type="line"/>
      <point x="432.6" y="137.9"/>
      <point x="398.3" y="126.8"/>
      <point x="360.5" y="126.8" type="curve" smooth="yes"/>
      <point x="292.0" y="126.8"/>
      <point x="246.0" y="150.4"/>
      <point x="246.0" y="243.2" type="curve" smooth="yes"/>
      <point x="246.0" y="546.8" type="line"/>
      <point x="62.6" y="546.8" type="line"/>
      <point x="59.2" y="538.8" type="line"/>
      <point x="67.9" y="502.8"/>
      <point x="70.0" y="420.4"/>
      <point x="70.0" y="380.4" type="curve" smooth="yes"/>
      <point x="70.0" y="238.0" type="line" smooth="yes"/>
      <point x="70.0" y="36.0"/>
      <point x="206.0" y="-12.0"/>
    </contour>
  </outline>
</glyph>
<glyph name="v" format="2">
  <advance width="608.8"/>
  <unicode hex="0076"/>
  <note>
v
</note>
  <anchor x="304.4" y="0.0" name="bottom"/>
  <anchor x="304.4" y="546.8" name="top"/>
  <outline>
    <contour>
      <point x="190.0" y="0.0" type="line"/>
      <point x="410.8" y="0.0" type="line"/>
      <point x="602.4" y="534.8" type="line"/>
      <point x="602.4" y="546.8" type="line"/>
      <point x="418.0" y="546.8" type="line"/>
      <point x="287.2" y="86.6" type="line"/>
      <point x="324.1" y="86.6" type="line"/>
      <point x="194.8" y="546.8" type="line"/>
      <point x="6.4" y="546.8" type="line"/>
      <point x="6.4" y="534.8" type="line"/>
    </contour>
  </outline>
</glyph>
<glyph name="w" format="2">
  <advance width="906.4"/>
  <unicode hex="0077"/>
  <note>
w
</note>
  <anchor x="453.2" y="0.0" name="bottom"/>
  <anchor x="453.2" y="546.8" name="top"/>
  <outline>
    <contour>
      <point x="161.6" y="0.0" type="line"/>
      <point x="356.4" y="0.0" type="line"/>
      <point x="467.8" y="372.0" type="line"/>
      <point x="426.9" y="372.0" type="line"/>
      <point x="539.2" y="0.0" type="line"/>
      <point x="736.8" y="0.0" type="line"/>
      <point x="900.0" y="534.8" type="line"/>
      <point x="900.0" y="546.8" type="line"/>
      <point x="712.8" y="546.8" type="line"/>
      <point x="609.2" y="103.69999999999999" type="line"/>
      <point x="646.0" y="104.69999999999999" type="line"/>
      <point x="514.0" y="546.8" type="line"/>
      <point x="389.6" y="546.8" type="line"/>
      <point x="258.9" y="107.4" type="line"/>
      <point x="295.0" y="106.4" type="line"/>
      <point x="193.6" y="546.8" type="line"/>
      <point x="6.4" y="546.8" type="line"/>
      <point x="6.4" y="534.8" type="line"/>
    </contour>
  </outline>
</glyph>
<glyph name="x" format="2">
  <advance width="621.6"/>
  <unicode hex="0078"/>
  <note>
x
</note>
  <anchor x="310.8" y="0.0" name="bottom"/>
  <anchor x="310.8" y="546.8" name="top"/>
  <outline>
    <contour>
      <point x="413.6" y="0.0" type="line"/>
      <point x="608.8" y="0.0" type="line"/>
      <point x="608.8" y="10.8" type="line"/>
      <point x="352.4" y="340.0" type="line"/>
      <point x="206.8" y="546.8" type="line"/>
      <point x="11.600000000000001" y="546.8" type="line"/>
      <point x="11.600000000000001" y="536.0" type="line"/>
      <point x="268.0" y="206.8" type="line"/>
    </contour>
    <contour>
      <point x="14.0" y="0.0" type="line"/>
      <point x="202.39999999999998" y="0.0" type="line"/>
      <point x="350.8" y="214.8" type="line"/>
      <point x="610.0" y="536.0" type="line"/>
      <point x="610.0" y="546.8" type="line"/>
      <point x="421.6" y="546.8" type="line"/>
      <point x="273.2" y="332.0" type="line"/>
      <point x="14.0" y="10.8" type="line"/>
    </contour>
  </outline>
</glyph>
<glyph name="y" format="2">
  <advance width="597.6"/>
  <unicode hex="0079"/>
  <note>
y
</note>
  <anchor x="495.1" y="0.0" name="bottom"/>
  <anchor x="298.8" y="546.8" name="top"/>
  <outline>
    <contour>
      <point x="123.6" y="-232.0" type="line"/>
      <point x="301.2" y="-232.0" type="line"/>
      <point x="594.0" y="534.8" type="line"/>
      <point x="594.0" y="546.8" type="line"/>
      <point x="415.2" y="546.8" type="line"/>
      <point x="261.6" y="106.4" type="line"/>
      <point x="123.6" y="-220.0" type="line"/>
    </contour>
    <contour>
      <point x="220.8" y="-56.4" type="line"/>
      <point x="315.1" y="131.0" type="line"/>
      <point x="192.0" y="546.8" type="line"/>
      <point x="3.6000000000000014" y="546.8" type="line"/>
      <point x="3.6000000000000014" y="534.8" type="line"/>
    </contour>
  </outline>
</glyph>
<glyph name="z" format="2">
  <advance width="570.4"/>
  <unicode hex="007A"/>
  <note>
z
</note>
  <anchor x="285.2" y="0.0" name="bottom"/>
  <anchor x="285.2" y="546.8" name="top"/>
  <outline>
    <contour>
      <point x="50.9" y="0.0" type="line"/>
      <point x="536.0" y="0.0" type="line"/>
      <point x="536.0" y="135.4" type="line"/>
      <point x="188.7" y="135.4" type="line"/>
      <point x="257.7" y="108.19999999999999" type="line"/>
      <point x="244.8" y="123.3"/>
      <point x="277.7" y="161.4"/>
      <point x="304.2" y="191.6" type="curve" smooth="yes"/>
      <point x="467.8" y="375.6" type="line" smooth="yes"/>
      <point x="497.3" y="409.2"/>
      <point x="525.6" y="448.8"/>
      <point x="525.6" y="498.8" type="curve" smooth="yes"/>
      <point x="525.6" y="509.6"/>
      <point x="524.3" y="521.4"/>
      <point x="521.3" y="535.4" type="curve"/>
      <point x="511.9" y="546.8" type="line"/>
      <point x="45.0" y="546.8" type="line"/>
      <point x="45.0" y="411.4" type="line"/>
      <point x="373.8" y="411.4" type="line"/>
      <point x="308.0" y="444.9" type="line"/>
      <point x="318.3" y="421.0"/>
      <point x="283.7" y="385.1"/>
      <point x="258.6" y="355.2" type="curve" smooth="yes"/>
      <point x="95.0" y="171.2" type="line" smooth="yes"/>
      <point x="65.5" y="137.6"/>
      <point x="37.2" y="98.0"/>
      <point x="37.2" y="48.0" type="curve" smooth="yes"/>
      <point x="37.2" y="37.2"/>
      <point x="38.5" y="25.4"/>
      <point x="41.5" y="11.4" type="curve"/>
    </contour>
  </outline>
</glyph>
<glyph name="braceleft" format="2">
  <advance width="453.2"/>
  <unicode hex="007B"/>
  <note>
braceleft
</note>
  <outline>
    <contour>
      <point x="133.6" y="194.8" type="curve" smooth="yes"/>
      <point x="133.6" y="90.8" type="line" smooth="yes"/>
      <point x="133.6" y="-40.4"/>
      <point x="206.8" y="-88.0"/>
      <point x="326.4" y="-88.0" type="curve" smooth="yes"/>
      <point x="429.2" y="-88.0" type="line"/>
      <point x="429.2" y="35.599999999999994" type="line"/>
      <point x="356.0" y="35.599999999999994" type="line" smooth="yes"/>
      <point x="313.2" y="35.599999999999994"/>
      <point x="293.2" y="55.599999999999994"/>
      <point x="293.2" y="102.4" type="curve" smooth="yes"/>
      <point x="293.2" y="207.6" type="line" smooth="yes"/>
      <point x="293.2" y="279.6"/>
      <point x="250.39999999999998" y="327.1"/>
      <point x="184.39999999999998" y="335.0" type="curve"/>
      <point x="184.39999999999998" y="337.0" type="line"/>
      <point x="250.39999999999998" y="344.9"/>
      <point x="293.2" y="392.4"/>
      <point x="293.2" y="464.4" type="curve" smooth="yes"/>
      <point x="293.2" y="569.6" type="line" smooth="yes"/>
      <point x="293.2" y="616.4"/>
      <point x="313.2" y="636.4"/>
      <point x="356.0" y="636.4" type="curve" smooth="yes"/>
      <point x="429.2" y="636.4" type="line"/>
      <point x="429.2" y="760.0" type="line"/>
      <point x="326.4" y="760.0" type="line" smooth="yes"/>
      <point x="206.8" y="760.0"/>
      <point x="133.6" y="712.4"/>
      <point x="133.6" y="581.2" type="curve" smooth="yes"/>
      <point x="133.6" y="477.2" type="line" smooth="yes"/>
      <point x="133.6" y="437.2"/>
      <point x="113.6" y="405.2"/>
      <point x="65.6" y="405.2" type="curve" smooth="yes"/>
      <point x="17.6" y="405.2" type="line"/>
      <point x="17.6" y="266.8" type="line"/>
      <point x="65.6" y="266.8" type="line" smooth="yes"/>
      <point x="113.6" y="266.8"/>
      <point x="133.6" y="234.8"/>
    </contour>
  </outline>
</glyph>
<glyph name="bar" format="2">
  <advance width="308.0"/>
  <unicode hex="007C"/>
  <note>
bar
</note>
  <outline>
    <contour>
      <point x="74.2" y="760.0" type="line"/>
      <point x="74.2" y="-247.0" type="line"/>
      <point x="233.8" y="-247.0" type="line"/>
      <point x="233.8" y="760.0" type="line"/>
    </contour>
  </outline>
</glyph>
<glyph name="braceright" format="2">
  <advance width="453.2"/>
  <unicode hex="007D"/>
  <note>
braceright
</note>
  <outline>
    <contour>
      <point x="97.2" y="35.599999999999994" type="curve" smooth="yes"/>
      <point x="24.0" y="35.599999999999994" type="line"/>
      <point x="24.0" y="-88.0" type="line"/>
      <point x="126.8" y="-88.0" type="line" smooth="yes"/>
      <point x="246.4" y="-88.0"/>
      <point x="319.6" y="-40.4"/>
      <point x="319.6" y="90.8" type="curve" smooth="yes"/>
      <point x="319.6" y="194.8" type="line" smooth="yes"/>
      <point x="319.6" y="234.8"/>
      <point x="339.6" y="266.8"/>
      <point x="387.6" y="266.8" type="curve" smooth="yes"/>
      <point x="435.6" y="266.8" type="line"/>
      <point x="435.6" y="405.2" type="line"/>
      <point x="387.6" y="405.2" type="line" smooth="yes"/>
      <point x="339.6" y="405.2"/>
      <point x="319.6" y="437.2"/>
      <point x="319.6" y="477.2" type="curve" smooth="yes"/>
      <point x="319.6" y="581.2" type="line" smooth="yes"/>
      <point x="319.6" y="712.4"/>
      <point x="246.4" y="760.0"/>
      <point x="126.8" y="760.0" type="curve" smooth="yes"/>
      <point x="24.0" y="760.0" type="line"/>
      <point x="24.0" y="636.4" type="line"/>
      <point x="97.2" y="636.4" type="line" smooth="yes"/>
      <point x="140.0" y="636.4"/>
      <point x="160.0" y="616.4"/>
      <point x="160.0" y="569.6" type="curve" smooth="yes"/>
      <point x="160.0" y="464.4" type="line" smooth="yes"/>
      <point x="160.0" y="392.4"/>
      <point x="202.8" y="344.9"/>
      <point x="268.8" y="337.0" type="curve"/>
      <point x="268.8" y="335.0" type="line"/>
      <point x="202.8" y="327.1"/>
      <point x="160.0" y="279.6"/>
      <point x="160.0" y="207.6" type="curve" smooth="yes"/>
      <point x="160.0" y="102.4" type="line" smooth="yes"/>
      <point x="160.0" y="55.599999999999994"/>
      <point x="140.0" y="35.599999999999994"/>
    </contour>
  </outline>
</glyph>
<glyph name="asciitilde" format="2">
  <advance width="616.0"/>
  <unicode hex="007E"/>
  <note>
asciitilde
</note>
  <outline>
    <contour>
      <point x="551.7" y="420.6" type="curve"/>
      <point x="441.6" y="420.6" type="line"/>
      <point x="440.4" y="372.0"/>
      <point x="434.6" y="329.2"/>
      <point x="399.8" y="329.2" type="curve" smooth="yes"/>
      <point x="371.1" y="329.2"/>
      <point x="353.0" y="353.8"/>
      <point x="326.8" y="377.7" type="curve" smooth="yes"/>
      <point x="302.7" y="399.5"/>
      <point x="270.9" y="420.6"/>
      <point x="217.9" y="420.6" type="curve" smooth="yes"/>
      <point x="111.0" y="420.6"/>
      <point x="64.5" y="332.5"/>
      <point x="63.3" y="214.2" type="curve"/>
      <point x="173.4" y="214.2" type="line"/>
      <point x="174.6" y="262.8"/>
      <point x="180.4" y="305.6"/>
      <point x="215.2" y="305.6" type="curve" smooth="yes"/>
      <point x="243.9" y="305.6"/>
      <point x="262.0" y="281.0"/>
      <point x="288.2" y="257.1" type="curve" smooth="yes"/>
      <point x="312.3" y="235.3"/>
      <point x="344.1" y="214.2"/>
      <point x="397.1" y="214.2" type="curve" smooth="yes"/>
      <point x="504.0" y="214.2"/>
      <point x="550.5" y="302.3"/>
    </contour>
  </outline>
</glyph>
<glyph name="exclamdown" format="2">
  <advance width="343.6"/>
  <unicode hex="00A1"/>
  <note>
exclamdown
</note>
  <outline>
    <contour>
      <point x="246.8" y="285.2" type="curve" smooth="yes"/>
      <point x="98.0" y="285.2" type="line" smooth="yes"/>
      <point x="92.4" y="257.2"/>
      <point x="84.4" y="160.3"/>
      <point x="84.4" y="75.5" type="curve" smooth="yes"/>
      <point x="84.4" y="-24.8" type="line" smooth="yes"/>
      <point x="84.4" y="-71.7"/>
      <point x="84.4" y="-132.0"/>
      <point x="76.4" y="-168.0" type="curve"/>
      <point x="81.2" y="-178.8" type="line"/>
      <point x="260.4" y="-178.8" type="line"/>
      <point x="260.4" y="75.5" type="line" smooth="yes"/>
      <point x="260.4" y="160.3"/>
      <point x="252.39999999999998" y="257.2"/>
    </contour>
    <contour>
      <point x="171.8" y="552.0" type="curve" smooth="yes"/>
      <point x="114.8" y="552.0"/>
      <point x="75.6" y="514.0"/>
      <point x="75.6" y="455.8" type="curve" smooth="yes"/>
      <point x="75.6" y="397.6"/>
      <point x="114.8" y="359.6"/>
      <point x="171.8" y="359.6" type="curve" smooth="yes"/>
      <point x="228.8" y="359.6"/>
      <point x="268.0" y="397.6"/>
      <point x="268.0" y="455.8" type="curve" smooth="yes"/>
      <point x="268.0" y="514.0"/>
      <point x="228.8" y="552.0"/>
    </contour>
  </outline>
</glyph>
<glyph name="cent" format="2">
  <advance width="616.0"/>
  <unicode hex="00A2"/>
  <note>
cent
</note>
  <outline>
    <contour>
      <point x="381.6" y="89.2" type="curve" smooth="yes"/>
      <point x="428.4" y="89.2"/>
      <point x="478.8" y="99.8"/>
      <point x="504.4" y="109.2" type="curve"/>
      <point x="504.4" y="243.6" type="line"/>
      <point x="493.6" y="243.6" type="line"/>
      <point x="469.6" y="231.6"/>
      <point x="443.6" y="223.6"/>
      <point x="395.6" y="223.6" type="curve" smooth="yes"/>
      <point x="309.2" y="223.6"/>
      <point x="238.6" y="270.8"/>
      <point x="238.6" y="374.0" type="curve" smooth="yes"/>
      <point x="238.6" y="477.2"/>
      <point x="309.2" y="524.4"/>
      <point x="395.6" y="524.4" type="curve" smooth="yes"/>
      <point x="443.6" y="524.4"/>
      <point x="469.6" y="516.4"/>
      <point x="493.6" y="504.4" type="curve"/>
      <point x="504.4" y="504.4" type="line"/>
      <point x="504.4" y="638.8" type="line"/>
      <point x="478.8" y="648.2"/>
      <point x="429.6" y="658.8"/>
      <point x="381.6" y="658.8" type="curve" smooth="yes"/>
      <point x="207.2" y="658.8"/>
      <point x="70.4" y="577.2"/>
      <point x="70.4" y="374.0" type="curve" smooth="yes"/>
      <point x="70.4" y="170.8"/>
      <point x="206.0" y="89.2"/>
    </contour>
    <contour>
      <point x="273.6" y="-64.0" type="line"/>
      <point x="410.8" y="-64.0" type="line"/>
      <point x="410.8" y="132.0" type="line"/>
      <point x="273.6" y="132.0" type="line"/>
    </contour>
    <contour>
      <point x="273.6" y="604.0" type="line"/>
      <point x="410.8" y="604.0" type="line"/>
      <point x="410.8" y="800.0" type="line"/>
      <point x="273.6" y="800.0" type="line"/>
    </contour>
  </outline>
</glyph>
<glyph name="currency" format="2">
  <advance width="616.0"/>
  <unicode hex="00A4"/>
  <note>
currency
</note>
  <outline>
    <contour>
      <point x="87.1" y="199.6" type="line"/>
      <point x="147.6" y="139.4" type="line"/>
      <point x="197.4" y="189.9" type="line"/>
      <point x="227.1" y="172.6"/>
      <point x="262.4" y="163.0"/>
      <point x="304.0" y="163.0" type="curve" smooth="yes"/>
      <point x="347.6" y="163.0"/>
      <point x="384.6" y="173.6"/>
      <point x="414.3" y="192.9" type="curve"/>
      <point x="468.1" y="139.4" type="line"/>
      <point x="527.9" y="199.6" type="line"/>
      <point x="472.5" y="254.0" type="line"/>
      <point x="488.8" y="283.7"/>
      <point x="498.5" y="320.7"/>
      <point x="498.5" y="360.0" type="curve" smooth="yes"/>
      <point x="498.5" y="399.3"/>
      <point x="488.8" y="434.6"/>
      <point x="472.5" y="464.3" type="curve"/>
      <point x="527.9" y="520.4" type="line"/>
      <point x="468.1" y="580.2" type="line"/>
      <point x="414.3" y="527.1" type="line"/>
      <point x="384.6" y="545.0"/>
      <point x="347.3" y="556.3"/>
      <point x="304.0" y="556.3" type="curve" smooth="yes"/>
      <point x="262.4" y="556.3"/>
      <point x="227.1" y="545.7"/>
      <point x="197.4" y="529.1" type="curve"/>
      <point x="147.6" y="580.2" type="line"/>
      <point x="87.1" y="520.4" type="line"/>
      <point x="137.5" y="469.0" type="line"/>
      <point x="118.5" y="438.3"/>
      <point x="109.2" y="401.3"/>
      <point x="109.2" y="360.0" type="curve" smooth="yes"/>
      <point x="109.2" y="318.7"/>
      <point x="118.5" y="281.0"/>
      <point x="137.5" y="249.3" type="curve"/>
    </contour>
    <contour>
      <point x="304.0" y="250.1" type="curve" smooth="yes"/>
      <point x="242.6" y="250.1"/>
      <point x="205.8" y="294.6"/>
      <point x="205.8" y="360.0" type="curve" smooth="yes"/>
      <point x="205.8" y="424.4"/>
      <point x="242.6" y="468.9"/>
      <point x="304.0" y="468.9" type="curve" smooth="yes"/>
      <point x="364.4" y="468.9"/>
      <point x="402.2" y="424.4"/>
      <point x="402.2" y="360.0" type="curve" smooth="yes"/>
      <point x="402.2" y="294.6"/>
      <point x="364.4" y="250.1"/>
    </contour>
  </outline>
</glyph>
<glyph name="yen" format="2">
  <advance width="616.0"/>
  <unicode hex="00A5"/>
  <note>
yen
</note>
  <outline>
    <contour>
      <point x="87.4" y="152.2" type="line"/>
      <point x="527.0" y="152.2" type="line"/>
      <point x="527.0" y="256.8" type="line"/>
      <point x="87.4" y="256.8" type="line"/>
    </contour>
    <contour>
      <point x="87.4" y="318.2" type="line"/>
      <point x="527.0" y="318.2" type="line"/>
      <point x="527.0" y="422.8" type="line"/>
      <point x="87.4" y="422.8" type="line"/>
    </contour>
    <contour>
      <point x="608.6" y="720.0" type="line"/>
      <point x="441.4" y="720.0" type="line"/>
      <point x="281.1" y="408.0" type="line"/>
      <point x="346.4" y="408.7" type="line"/>
      <point x="181.4" y="720.0" type="line"/>
      <point x="10.200000000000003" y="720.0" type="line"/>
      <point x="10.200000000000003" y="709.2" type="line"/>
      <point x="260.3" y="284.5" type="line"/>
      <point x="224.2" y="418.2" type="line"/>
      <point x="224.2" y="0.0" type="line"/>
      <point x="390.2" y="0.0" type="line"/>
      <point x="390.2" y="420.4" type="line"/>
      <point x="352.7" y="287.4" type="line"/>
      <point x="608.6" y="709.2" type="line"/>
    </contour>
  </outline>
</glyph>
<glyph name="brokenbar" format="2">
  <advance width="308.0"/>
  <unicode hex="00A6"/>
  <note>
brokenbar
</note>
  <outline>
    <contour>
      <point x="74.2" y="760.0" type="line"/>
      <point x="74.2" y="421.2" type="line"/>
      <point x="233.8" y="421.2" type="line"/>
      <point x="233.8" y="760.0" type="line"/>
    </contour>
    <contour>
      <point x="233.8" y="90.8" type="line"/>
      <point x="74.2" y="90.8" type="line"/>
      <point x="74.2" y="-248.0" type="line"/>
      <point x="233.8" y="-248.0" type="line"/>
    </contour>
  </outline>
</glyph>
<glyph name="section" format="2">
  <advance width="611.2"/>
  <unicode hex="00A7"/>
  <note>
section
</note>
  <outline>
    <contour>
      <point x="286.0" y="68.0" type="line"/>
      <point x="418.4" y="59.6" type="line"/>
      <point x="492.0" y="101.6"/>
      <point x="559.2" y="158.8"/>
      <point x="559.2" y="251.2" type="curve" smooth="yes"/>
      <point x="559.2" y="361.2"/>
      <point x="485.6" y="401.4"/>
      <point x="388.0" y="431.6" type="curve" smooth="yes"/>
      <point x="336.4" y="447.6" type="line" smooth="yes"/>
      <point x="283.1" y="464.1"/>
      <point x="252.39999999999998" y="480.8"/>
      <point x="252.39999999999998" y="529.2" type="curve" smooth="yes"/>
      <point x="252.39999999999998" y="578.4"/>
      <point x="300.8" y="602.0"/>
      <point x="372.8" y="602.0" type="curve" smooth="yes"/>
      <point x="430.0" y="602.0"/>
      <point x="468.8" y="590.0"/>
      <point x="499.2" y="574.0" type="curve"/>
      <point x="510.0" y="574.0" type="line"/>
      <point x="510.0" y="710.8" type="line"/>
      <point x="474.0" y="724.0"/>
      <point x="426.0" y="732.0"/>
      <point x="373.6" y="732.0" type="curve" smooth="yes"/>
      <point x="193.2" y="732.0"/>
      <point x="84.8" y="661.2"/>
      <point x="84.8" y="524.0" type="curve" smooth="yes"/>
      <point x="84.8" y="410.4"/>
      <point x="163.1" y="359.1"/>
      <point x="273.6" y="324.4" type="curve" smooth="yes"/>
      <point x="308.4" y="314.0" type="line" smooth="yes"/>
      <point x="379.0" y="292.2"/>
      <point x="399.4" y="270.0"/>
      <point x="399.4" y="228.0" type="curve" smooth="yes"/>
      <point x="399.4" y="173.2"/>
      <point x="339.2" y="141.6"/>
      <point x="286.0" y="124.0" type="curve"/>
    </contour>
    <contour>
      <point x="230.4" y="-232.0" type="curve" smooth="yes"/>
      <point x="410.8" y="-232.0"/>
      <point x="519.2" y="-161.2"/>
      <point x="519.2" y="-24.0" type="curve" smooth="yes"/>
      <point x="519.2" y="89.6"/>
      <point x="440.9" y="140.9"/>
      <point x="330.4" y="175.6" type="curve" smooth="yes"/>
      <point x="295.6" y="186.0" type="line" smooth="yes"/>
      <point x="225.0" y="207.8"/>
      <point x="204.6" y="230.0"/>
      <point x="204.6" y="272.0" type="curve" smooth="yes"/>
      <point x="204.6" y="326.8"/>
      <point x="264.8" y="358.4"/>
      <point x="318.0" y="376.0" type="curve"/>
      <point x="318.0" y="432.0" type="line"/>
      <point x="185.6" y="440.4" type="line"/>
      <point x="112.0" y="398.4"/>
      <point x="44.8" y="341.2"/>
      <point x="44.8" y="248.8" type="curve" smooth="yes"/>
      <point x="44.8" y="138.8"/>
      <point x="118.4" y="98.6"/>
      <point x="216.0" y="68.4" type="curve" smooth="yes"/>
      <point x="267.6" y="52.400000000000006" type="line" smooth="yes"/>
      <point x="320.9" y="35.900000000000006"/>
      <point x="351.6" y="19.200000000000003"/>
      <point x="351.6" y="-29.2" type="curve" smooth="yes"/>
      <point x="351.6" y="-78.4"/>
      <point x="303.2" y="-102.0"/>
      <point x="231.2" y="-102.0" type="curve" smooth="yes"/>
      <point x="174.0" y="-102.0"/>
      <point x="135.2" y="-90.0"/>
      <point x="104.8" y="-74.0" type="curve"/>
      <point x="94.0" y="-74.0" type="line"/>
      <point x="94.0" y="-210.8" type="line"/>
      <point x="130.0" y="-224.0"/>
      <point x="178.0" y="-232.0"/>
    </contour>
  </outline>
</glyph>
<glyph name="copyright" format="2">
  <advance width="848.0"/>
  <unicode hex="00A9"/>
  <note>
copyright
</note>
  <outline>
    <contour>
      <point x="36.8" y="360.0" type="curve" smooth="yes"/>
      <point x="36.8" y="116.8"/>
      <point x="188.0" y="-23.2"/>
      <point x="424.0" y="-23.2" type="curve" smooth="yes"/>
      <point x="660.0" y="-23.2"/>
      <point x="811.2" y="116.8"/>
      <point x="811.2" y="360.0" type="curve" smooth="yes"/>
      <point x="811.2" y="603.2"/>
      <point x="660.0" y="743.2"/>
      <point x="424.0" y="743.2" type="curve" smooth="yes"/>
      <point x="188.0" y="743.2"/>
      <point x="36.8" y="603.2"/>
    </contour>
    <contour>
      <point x="128.4" y="360.0" type="curve" smooth="yes"/>
      <point x="128.4" y="568.0"/>
      <point x="246.0" y="662.4"/>
      <point x="424.0" y="662.4" type="curve" smooth="yes"/>
      <point x="602.0" y="662.4"/>
      <point x="719.6" y="566.8"/>
      <point x="719.6" y="360.0" type="curve" smooth="yes"/>
      <point x="719.6" y="153.2"/>
      <point x="602.0" y="57.6"/>
      <point x="424.0" y="57.6" type="curve" smooth="yes"/>
      <point x="246.0" y="57.6"/>
      <point x="128.4" y="152.0"/>
    </contour>
    <contour>
      <point x="227.2" y="360.0" type="curve" smooth="yes"/>
      <point x="227.2" y="236.5"/>
      <point x="306.7" y="156.0"/>
      <point x="470.0" y="156.0" type="curve" smooth="yes"/>
      <point x="498.4" y="156.0"/>
      <point x="535.8" y="159.2"/>
      <point x="559.2" y="166.1" type="curve"/>
      <point x="559.2" y="260.0" type="line"/>
      <point x="552.4" y="260.0" type="line"/>
      <point x="533.9" y="252.8"/>
      <point x="502.6" y="246.8"/>
      <point x="475.6" y="246.8" type="curve" smooth="yes"/>
      <point x="379.9" y="246.8"/>
      <point x="345.6" y="286.6"/>
      <point x="345.6" y="360.0" type="curve" smooth="yes"/>
      <point x="345.6" y="429.2"/>
      <point x="384.8" y="473.2"/>
      <point x="475.6" y="473.2" type="curve" smooth="yes"/>
      <point x="502.6" y="473.2"/>
      <point x="533.9" y="467.2"/>
      <point x="552.4" y="460.0" type="curve"/>
      <point x="559.2" y="460.0" type="line"/>
      <point x="559.2" y="553.9" type="line"/>
      <point x="535.8" y="560.8"/>
      <point x="498.4" y="564.0"/>
      <point x="470.0" y="564.0" type="curve" smooth="yes"/>
      <point x="311.6" y="564.0"/>
      <point x="227.2" y="482.8"/>
    </contour>
  </outline>
</glyph>
<glyph name="ordfeminine" format="2">
  <advance width="459.4"/>
  <unicode hex="00AA"/>
  <note>
ordfeminine
</note>
  <outline>
    <contour>
      <point x="234.7" y="308.5" type="curve" smooth="yes"/>
      <point x="300.2" y="308.5"/>
      <point x="366.0" y="319.5"/>
      <point x="412.6" y="332.3" type="curve"/>
      <point x="415.0" y="338.3" type="line"/>
      <point x="408.3" y="364.3"/>
      <point x="406.9" y="423.8"/>
      <point x="406.9" y="455.6" type="curve" smooth="yes"/>
      <point x="406.9" y="548.8" type="line" smooth="yes"/>
      <point x="406.9" y="691.3"/>
      <point x="322.6" y="727.7"/>
      <point x="197.2" y="727.7" type="curve" smooth="yes"/>
      <point x="147.1" y="727.7"/>
      <point x="102.5" y="721.4"/>
      <point x="67.5" y="712.6" type="curve"/>
      <point x="67.5" y="606.2" type="line"/>
      <point x="76.6" y="606.2" type="line"/>
      <point x="99.6" y="616.5"/>
      <point x="138.1" y="624.0"/>
      <point x="181.6" y="624.0" type="curve" smooth="yes"/>
      <point x="243.2" y="624.0"/>
      <point x="270.0" y="609.8"/>
      <point x="270.0" y="556.2" type="curve"/>
      <point x="256.1" y="558.4"/>
      <point x="233.9" y="561.6"/>
      <point x="209.8" y="561.6" type="curve" smooth="yes"/>
      <point x="109.6" y="561.6"/>
      <point x="35.3" y="526.1"/>
      <point x="35.3" y="435.6" type="curve" smooth="yes"/>
      <point x="35.3" y="341.9"/>
      <point x="103.4" y="308.5"/>
    </contour>
    <contour>
      <point x="227.3" y="398.8" type="curve" smooth="yes"/>
      <point x="187.1" y="398.8"/>
      <point x="164.3" y="409.1"/>
      <point x="164.3" y="438.7" type="curve" smooth="yes"/>
      <point x="164.3" y="468.5"/>
      <point x="184.0" y="481.0"/>
      <point x="230.8" y="481.0" type="curve" smooth="yes"/>
      <point x="248.0" y="481.0"/>
      <point x="261.1" y="479.5"/>
      <point x="270.0" y="477.6" type="curve"/>
      <point x="270.7" y="440.4"/>
      <point x="273.5" y="420.1"/>
      <point x="277.5" y="404.9" type="curve"/>
      <point x="262.3" y="400.7"/>
      <point x="244.1" y="398.8"/>
    </contour>
    <contour>
      <point x="47.4" y="255.2" type="line"/>
      <point x="47.4" y="153.2" type="line"/>
      <point x="411.4" y="153.2" type="line"/>
      <point x="411.4" y="255.2" type="line"/>
    </contour>
  </outline>
</glyph>
<glyph name="guillemetleft" format="2">
  <advance width="636.8"/>
  <unicode hex="00AB"/>
  <note>
guillemotleft
</note>
  <outline>
    <contour>
      <point x="571.6" y="46.8" type="line"/>
      <point x="579.6" y="46.8" type="line"/>
      <point x="579.6" y="207.2" type="line"/>
      <point x="457.2" y="308.0" type="line"/>
      <point x="579.6" y="408.8" type="line"/>
      <point x="579.6" y="569.2" type="line"/>
      <point x="571.6" y="569.2" type="line"/>
      <point x="323.2" y="349.2" type="line"/>
      <point x="323.2" y="266.8" type="line"/>
    </contour>
    <contour>
      <point x="284.4" y="46.8" type="line"/>
      <point x="292.4" y="46.8" type="line"/>
      <point x="292.4" y="207.2" type="line"/>
      <point x="170.0" y="308.0" type="line"/>
      <point x="292.4" y="408.8" type="line"/>
      <point x="292.4" y="569.2" type="line"/>
      <point x="284.4" y="569.2" type="line"/>
      <point x="36.0" y="349.2" type="line"/>
      <point x="36.0" y="266.8" type="line"/>
    </contour>
  </outline>
</glyph>
<glyph name="logicalnot" format="2">
  <advance width="616.0"/>
  <unicode hex="00AC"/>
  <note>
logicalnot
</note>
  <outline>
    <contour>
      <point x="64.0" y="372.8" type="line"/>
      <point x="64.0" y="259.2" type="line"/>
      <point x="438.4" y="259.2" type="line"/>
      <point x="438.4" y="64.0" type="line"/>
      <point x="552.0" y="64.0" type="line"/>
      <point x="552.0" y="372.8" type="line"/>
    </contour>
  </outline>
</glyph>
<glyph name="registered" format="2">
  <advance width="848.0"/>
  <unicode hex="00AE"/>
  <note>
registered
</note>
  <outline>
    <contour>
      <point x="424.0" y="-23.2" type="curve" smooth="yes"/>
      <point x="660.0" y="-23.2"/>
      <point x="811.2" y="116.8"/>
      <point x="811.2" y="360.0" type="curve" smooth="yes"/>
      <point x="811.2" y="603.2"/>
      <point x="660.0" y="743.2"/>
      <point x="424.0" y="743.2" type="curve" smooth="yes"/>
      <point x="188.0" y="743.2"/>
      <point x="36.8" y="603.2"/>
      <point x="36.8" y="360.0" type="curve" smooth="yes"/>
      <point x="36.8" y="116.8"/>
      <point x="188.0" y="-23.2"/>
    </contour>
    <contour>
      <point x="253.2" y="168.0" type="line"/>
      <point x="367.0" y="168.0" type="line"/>
      <point x="367.0" y="560.6" type="line"/>
      <point x="253.2" y="560.6" type="line"/>
      <point x="253.2" y="472.0" type="line"/>
    </contour>
    <contour>
      <point x="499.2" y="168.0" type="line"/>
      <point x="623.2" y="168.0" type="line"/>
      <point x="623.2" y="176.0" type="line"/>
      <point x="490.6" y="340.4" type="line"/>
      <point x="386.4" y="320.4" type="line"/>
    </contour>
    <contour>
      <point x="424.0" y="57.6" type="curve" smooth="yes"/>
      <point x="246.0" y="57.6"/>
      <point x="128.4" y="152.0"/>
      <point x="128.4" y="360.0" type="curve" smooth="yes"/>
      <point x="128.4" y="568.0"/>
      <point x="246.0" y="662.4"/>
      <point x="424.0" y="662.4" type="curve" smooth="yes"/>
      <point x="602.0" y="662.4"/>
      <point x="719.6" y="566.8"/>
      <point x="719.6" y="360.0" type="curve" smooth="yes"/>
      <point x="719.6" y="153.2"/>
      <point x="602.0" y="57.6"/>
    </contour>
    <contour>
      <point x="321.0" y="257.6" type="line"/>
      <point x="406.6" y="257.6" type="line" smooth="yes"/>
      <point x="530.4" y="257.6"/>
      <point x="600.8" y="331.3"/>
      <point x="600.8" y="422.0" type="curve" smooth="yes"/>
      <point x="600.8" y="511.3"/>
      <point x="550.0" y="560.6"/>
      <point x="430.0" y="560.6" type="curve" smooth="yes"/>
      <point x="321.0" y="560.6" type="line"/>
      <point x="321.0" y="474.4" type="line"/>
      <point x="421.0" y="474.4" type="line" smooth="yes"/>
      <point x="461.9" y="474.4"/>
      <point x="487.0" y="460.3"/>
      <point x="487.0" y="421.3" type="curve" smooth="yes"/>
      <point x="487.0" y="377.2"/>
      <point x="465.9" y="340.4"/>
      <point x="403.8" y="340.4" type="curve" smooth="yes"/>
      <point x="321.0" y="340.4" type="line"/>
    </contour>
  </outline>
</glyph>
<glyph name="degree" format="2">
  <advance width="420.0"/>
  <unicode hex="00B0"/>
  <note>
degree
</note>
  <outline>
    <contour>
      <point x="210.0" y="466.0" type="curve" smooth="yes"/>
      <point x="294.4" y="466.0"/>
      <point x="360.0" y="519.6"/>
      <point x="360.0" y="608.0" type="curve" smooth="yes"/>
      <point x="360.0" y="696.4"/>
      <point x="294.4" y="750.0"/>
      <point x="210.0" y="750.0" type="curve" smooth="yes"/>
      <point x="125.6" y="750.0"/>
      <point x="60.0" y="696.4"/>
      <point x="60.0" y="608.0" type="curve" smooth="yes"/>
      <point x="60.0" y="519.6"/>
      <point x="125.6" y="466.0"/>
    </contour>
    <contour>
      <point x="210.0" y="540.4" type="curve" smooth="yes"/>
      <point x="171.0" y="540.4"/>
      <point x="142.4" y="565.6"/>
      <point x="142.4" y="608.0" type="curve" smooth="yes"/>
      <point x="142.4" y="650.4"/>
      <point x="171.0" y="675.6"/>
      <point x="210.0" y="675.6" type="curve" smooth="yes"/>
      <point x="249.0" y="675.6"/>
      <point x="277.6" y="650.4"/>
      <point x="277.6" y="608.0" type="curve" smooth="yes"/>
      <point x="277.6" y="565.6"/>
      <point x="249.0" y="540.4"/>
    </contour>
  </outline>
</glyph>
<glyph name="plusminus" format="2">
  <advance width="616.0"/>
  <unicode hex="00B1"/>
  <note>
plusminus
</note>
  <outline>
    <contour>
      <point x="64.0" y="376.8" type="line"/>
      <point x="552.0" y="376.8" type="line"/>
      <point x="552.0" y="490.4" type="line"/>
      <point x="64.0" y="490.4" type="line"/>
    </contour>
    <contour>
      <point x="64.0" y="0.0" type="line"/>
      <point x="552.0" y="0.0" type="line"/>
      <point x="552.0" y="113.6" type="line"/>
      <point x="64.0" y="113.6" type="line"/>
    </contour>
    <contour>
      <point x="251.2" y="189.6" type="line"/>
      <point x="364.8" y="189.6" type="line"/>
      <point x="364.8" y="677.6" type="line"/>
      <point x="251.2" y="677.6" type="line"/>
    </contour>
  </outline>
</glyph>
<glyph name="paragraph" format="2">
  <advance width="706.0"/>
  <unicode hex="00B6"/>
  <note>
paragraph
</note>
  <outline>
    <contour>
      <point x="279.2" y="248.0" type="curve" smooth="yes"/>
      <point x="295.2" y="248.0" type="line"/>
      <point x="295.2" y="-250.0" type="line"/>
      <point x="421.2" y="-250.0" type="line"/>
      <point x="421.2" y="593.6" type="line"/>
      <point x="503.6" y="593.6" type="line"/>
      <point x="503.6" y="-250.0" type="line"/>
      <point x="624.0" y="-250.0" type="line"/>
      <point x="624.0" y="720.0" type="line"/>
      <point x="279.2" y="720.0" type="line" smooth="yes"/>
      <point x="152.2" y="720.0"/>
      <point x="43.2" y="636.0"/>
      <point x="43.2" y="484.0" type="curve" smooth="yes"/>
      <point x="43.2" y="332.0"/>
      <point x="152.2" y="248.0"/>
    </contour>
  </outline>
</glyph>
<glyph name="periodcentered" format="2">
  <advance width="282.8"/>
  <unicode hex="00B7"/>
  <note>
periodcentered
</note>
  <outline>
    <contour>
      <point x="141.4" y="270.9" type="curve" smooth="yes"/>
      <point x="198.4" y="270.9"/>
      <point x="237.6" y="308.9"/>
      <point x="237.6" y="367.1" type="curve" smooth="yes"/>
      <point x="237.6" y="425.3"/>
      <point x="198.4" y="463.3"/>
      <point x="141.4" y="463.3" type="curve" smooth="yes"/>
      <point x="84.4" y="463.3"/>
      <point x="45.2" y="425.3"/>
      <point x="45.2" y="367.1" type="curve" smooth="yes"/>
      <point x="45.2" y="308.9"/>
      <point x="84.4" y="270.9"/>
    </contour>
  </outline>
</glyph>
<glyph name="ordmasculine" format="2">
  <advance width="483.7"/>
  <unicode hex="00BA"/>
  <note>
ordmasculine
</note>
  <outline>
    <contour>
      <point x="30.3" y="517.9" type="curve" smooth="yes"/>
      <point x="30.3" y="374.4"/>
      <point x="117.9" y="308.8"/>
      <point x="241.7" y="308.8" type="curve" smooth="yes"/>
      <point x="365.6" y="308.8"/>
      <point x="453.1" y="374.4"/>
      <point x="453.1" y="517.9" type="curve" smooth="yes"/>
      <point x="453.1" y="661.4"/>
      <point x="365.6" y="727.7"/>
      <point x="241.7" y="727.7" type="curve" smooth="yes"/>
      <point x="118.8" y="727.7"/>
      <point x="30.3" y="661.4"/>
    </contour>
    <contour>
      <point x="175.8" y="517.9" type="curve" smooth="yes"/>
      <point x="175.8" y="589.6"/>
      <point x="196.0" y="626.5"/>
      <point x="241.7" y="626.5" type="curve" smooth="yes"/>
      <point x="287.7" y="626.5"/>
      <point x="307.6" y="589.6"/>
      <point x="307.6" y="517.9" type="curve" smooth="yes"/>
      <point x="307.6" y="446.2"/>
      <point x="287.7" y="409.3"/>
      <point x="241.7" y="409.3" type="curve" smooth="yes"/>
      <point x="196.0" y="409.3"/>
      <point x="175.8" y="446.2"/>
    </contour>
    <contour>
      <point x="51.3" y="257.6" type="line"/>
      <point x="51.3" y="155.6" type="line"/>
      <point x="432.1" y="155.6" type="line"/>
      <point x="432.1" y="257.6" type="line"/>
    </contour>
  </outline>
</glyph>
<glyph name="guillemetright" format="2">
  <advance width="636.8"/>
  <unicode hex="00BB"/>
  <note>
guillemotright
</note>
  <outline>
    <contour>
      <point x="344.4" y="46.8" type="line"/>
      <point x="352.4" y="46.8" type="line"/>
      <point x="600.8" y="266.8" type="line"/>
      <point x="600.8" y="349.2" type="line"/>
      <point x="352.4" y="569.2" type="line"/>
      <point x="344.4" y="569.2" type="line"/>
      <point x="344.4" y="408.8" type="line"/>
      <point x="466.8" y="308.0" type="line"/>
      <point x="344.4" y="207.2" type="line"/>
    </contour>
    <contour>
      <point x="57.2" y="46.8" type="line"/>
      <point x="65.2" y="46.8" type="line"/>
      <point x="313.6" y="266.8" type="line"/>
      <point x="313.6" y="349.2" type="line"/>
      <point x="65.2" y="569.2" type="line"/>
      <point x="57.2" y="569.2" type="line"/>
      <point x="57.2" y="408.8" type="line"/>
      <point x="179.6" y="308.0" type="line"/>
      <point x="57.2" y="207.2" type="line"/>
    </contour>
  </outline>
</glyph>
<glyph name="AE" format="2">
  <advance width="997.0"/>
  <unicode hex="00C6"/>
  <note>
AE
</note>
  <anchor x="498.5" y="0.0" name="bottom"/>
  <anchor x="498.5" y="720.0" name="top"/>
  <outline>
    <contour>
      <point x="33.4" y="0.0" type="line"/>
      <point x="211.2" y="0.0" type="line"/>
      <point x="288.4" y="466.0" type="line" smooth="yes"/>
      <point x="301.1" y="543.4"/>
      <point x="334.4" y="579.6"/>
      <point x="427.2" y="579.6" type="curve" smooth="yes"/>
      <point x="449.2" y="579.6"/>
      <point x="477.3" y="577.6"/>
      <point x="491.5" y="573.8" type="curve"/>
      <point x="468.5" y="617.5" type="line"/>
      <point x="462.4" y="590.9"/>
      <point x="459.6" y="557.8"/>
      <point x="459.6" y="519.2" type="curve" smooth="yes"/>
      <point x="459.6" y="0.0" type="line"/>
      <point x="636.8" y="0.0" type="line"/>
      <point x="636.8" y="537.2" type="line" smooth="yes"/>
      <point x="636.8" y="577.2"/>
      <point x="636.8" y="660.0"/>
      <point x="644.2" y="697.2" type="curve"/>
      <point x="642.2" y="709.2" type="line"/>
      <point x="588.8" y="721.2"/>
      <point x="518.4" y="728.0"/>
      <point x="462.0" y="728.0" type="curve" smooth="yes"/>
      <point x="267.6" y="728.0"/>
      <point x="148.8" y="679.9"/>
      <point x="113.4" y="471.6" type="curve" smooth="yes"/>
    </contour>
    <contour>
      <point x="161.4" y="183.6" type="line"/>
      <point x="541.6" y="183.6" type="line"/>
      <point x="541.6" y="326.4" type="line"/>
      <point x="161.4" y="326.4" type="line"/>
    </contour>
    <contour>
      <point x="554.8" y="0.0" type="line"/>
      <point x="947.2" y="0.0" type="line"/>
      <point x="947.2" y="154.0" type="line"/>
      <point x="554.8" y="154.0" type="line"/>
    </contour>
    <contour>
      <point x="554.8" y="288.4" type="line"/>
      <point x="887.6" y="288.4" type="line"/>
      <point x="887.6" y="434.0" type="line"/>
      <point x="554.8" y="434.0" type="line"/>
    </contour>
    <contour>
      <point x="554.8" y="566.0" type="line"/>
      <point x="938.0" y="566.0" type="line"/>
      <point x="938.0" y="720.0" type="line"/>
      <point x="554.8" y="720.0" type="line"/>
    </contour>
  </outline>
</glyph>
<glyph name="multiply" format="2">
  <advance width="616.0"/>
  <unicode hex="00D7"/>
  <note>
multiply
</note>
  <outline>
    <contour>
      <point x="449.1" y="95.1" type="line"/>
      <point x="528.9" y="174.9" type="line"/>
      <point x="166.9" y="536.9" type="line"/>
      <point x="87.1" y="457.1" type="line"/>
    </contour>
    <contour>
      <point x="166.9" y="95.1" type="line"/>
      <point x="528.9" y="457.1" type="line"/>
      <point x="449.1" y="536.9" type="line"/>
      <point x="87.1" y="174.9" type="line"/>
    </contour>
  </outline>
</glyph>
<glyph name="Thorn" format="2">
  <advance width="675.6"/>
  <unicode hex="00DE"/>
  <note>
Thorn
</note>
  <outline>
    <contour>
      <point x="176.8" y="93.2" type="line"/>
      <point x="323.6" y="93.2" type="line" smooth="yes"/>
      <point x="526.8" y="93.2"/>
      <point x="632.0" y="222.0"/>
      <point x="632.0" y="387.6" type="curve" smooth="yes"/>
      <point x="632.0" y="538.8"/>
      <point x="534.4" y="629.2"/>
      <point x="348.0" y="629.2" type="curve" smooth="yes"/>
      <point x="176.8" y="629.2" type="line"/>
      <point x="176.8" y="480.8" type="line"/>
      <point x="349.6" y="480.8" type="line" smooth="yes"/>
      <point x="412.8" y="480.8"/>
      <point x="456.4" y="451.6"/>
      <point x="456.4" y="382.0" type="curve" smooth="yes"/>
      <point x="456.4" y="303.2"/>
      <point x="418.4" y="236.0"/>
      <point x="318.0" y="236.0" type="curve" smooth="yes"/>
      <point x="176.8" y="236.0" type="line"/>
    </contour>
    <contour>
      <point x="65.6" y="0.0" type="line"/>
      <point x="242.8" y="0.0" type="line"/>
      <point x="242.8" y="720.0" type="line"/>
      <point x="65.6" y="720.0" type="line"/>
    </contour>
  </outline>
</glyph>
<glyph name="germandbls" format="2">
  <advance width="679.2"/>
  <unicode hex="00DF"/>
  <note>
germandbls
</note>
  <outline>
    <contour>
      <point x="446.0" y="-8.0" type="curve" smooth="yes"/>
      <point x="561.2" y="-8.0"/>
      <point x="652.8" y="54.8"/>
      <point x="652.8" y="166.9" type="curve" smooth="yes"/>
      <point x="652.8" y="230.6"/>
      <point x="623.8" y="274.8"/>
      <point x="585.6" y="310.0" type="curve" smooth="yes"/>
      <point x="575.2" y="319.2" type="line" smooth="yes"/>
      <point x="548.0" y="344.0"/>
      <point x="528.8" y="360.7"/>
      <point x="528.8" y="390.8" type="curve" smooth="yes"/>
      <point x="528.8" y="455.2"/>
      <point x="589.2" y="468.8"/>
      <point x="589.2" y="579.2" type="curve" smooth="yes"/>
      <point x="589.2" y="700.8"/>
      <point x="499.6" y="771.2"/>
      <point x="357.2" y="771.2" type="curve" smooth="yes"/>
      <point x="195.8" y="771.2"/>
      <point x="100.0" y="704.5"/>
      <point x="100.0" y="518.8" type="curve"/>
      <point x="100.0" y="0.0" type="line"/>
      <point x="276.0" y="0.0" type="line"/>
      <point x="276.0" y="541.6" type="line" smooth="yes"/>
      <point x="276.0" y="600.8"/>
      <point x="295.2" y="640.8"/>
      <point x="353.2" y="640.8" type="curve" smooth="yes"/>
      <point x="406.0" y="640.8"/>
      <point x="425.6" y="604.8"/>
      <point x="425.6" y="566.8" type="curve" smooth="yes"/>
      <point x="425.6" y="490.0"/>
      <point x="368.0" y="472.8"/>
      <point x="368.0" y="384.0" type="curve" smooth="yes"/>
      <point x="368.0" y="318.8"/>
      <point x="403.9" y="287.5"/>
      <point x="438.4" y="256.0" type="curve" smooth="yes"/>
      <point x="448.8" y="246.8" type="line" smooth="yes"/>
      <point x="470.3" y="227.7"/>
      <point x="489.2" y="212.2"/>
      <point x="489.2" y="181.6" type="curve" smooth="yes"/>
      <point x="489.2" y="148.0"/>
      <point x="467.2" y="124.0"/>
      <point x="422.4" y="124.0" type="curve" smooth="yes"/>
      <point x="396.4" y="124.0"/>
      <point x="374.0" y="129.2"/>
      <point x="354.0" y="137.2" type="curve"/>
      <point x="346.0" y="137.2" type="line"/>
      <point x="346.0" y="4.0" type="line"/>
      <point x="380.0" y="-5.0"/>
      <point x="398.0" y="-8.0"/>
    </contour>
    <contour>
      <point x="10.4" y="411.4" type="line"/>
      <point x="162.0" y="411.4" type="line"/>
      <point x="162.0" y="546.8" type="line"/>
      <point x="10.4" y="546.8" type="line"/>
    </contour>
  </outline>
</glyph>
<glyph name="ae" format="2">
  <advance width="943.9"/>
  <unicode hex="00E6"/>
  <note>
ae
</note>
  <anchor x="472.1" y="0.0" name="bottom"/>
  <anchor x="472.1" y="546.8" name="top"/>
  <outline>
    <contour>
      <point x="701.0" y="-10.8" type="curve" smooth="yes"/>
      <point x="776.5" y="-10.8"/>
      <point x="823.6" y="-1.0"/>
      <point x="864.0" y="15.0" type="curve"/>
      <point x="864.0" y="151.6" type="line"/>
      <point x="853.2" y="151.6" type="line"/>
      <point x="825.2" y="135.6"/>
      <point x="771.6" y="122.4"/>
      <point x="709.2" y="122.4" type="curve" smooth="yes"/>
      <point x="593.9" y="122.4"/>
      <point x="539.8" y="164.8"/>
      <point x="539.8" y="261.4" type="curve" smooth="yes"/>
      <point x="539.8" y="295.4" type="line" smooth="yes"/>
      <point x="539.8" y="390.2"/>
      <point x="576.0" y="439.6"/>
      <point x="640.4" y="439.6" type="curve" smooth="yes"/>
      <point x="704.9" y="439.6"/>
      <point x="734.0" y="401.6"/>
      <point x="734.0" y="335.2" type="curve" smooth="yes"/>
      <point x="734.0" y="327.2" type="line"/>
      <point x="458.0" y="327.2" type="line"/>
      <point x="458.0" y="226.0" type="line"/>
      <point x="901.1" y="226.0" type="line"/>
      <point x="902.8" y="262.4" type="line" smooth="yes"/>
      <point x="910.9" y="434.4"/>
      <point x="844.4" y="561.6"/>
      <point x="657.2" y="561.6" type="curve" smooth="yes"/>
      <point x="486.3" y="561.6"/>
      <point x="377.2" y="455.2"/>
      <point x="377.2" y="275.4" type="curve" smooth="yes"/>
      <point x="377.2" y="66.8"/>
      <point x="502.6" y="-10.8"/>
    </contour>
    <contour>
      <point x="297.4" y="-12.0" type="curve" smooth="yes"/>
      <point x="397.4" y="-12.0"/>
      <point x="474.6" y="17.8"/>
      <point x="533.4" y="49.4" type="curve"/>
      <point x="469.4" y="136.4" type="line"/>
      <point x="425.0" y="136.4" type="line"/>
      <point x="395.0" y="117.2"/>
      <point x="354.6" y="103.8"/>
      <point x="297.4" y="103.8" type="curve" smooth="yes"/>
      <point x="237.4" y="103.8"/>
      <point x="202.2" y="120.0"/>
      <point x="202.2" y="165.6" type="curve" smooth="yes"/>
      <point x="202.2" y="212.4"/>
      <point x="234.6" y="230.8"/>
      <point x="306.2" y="230.8" type="curve" smooth="yes"/>
      <point x="347.4" y="230.8"/>
      <point x="367.8" y="222.8"/>
      <point x="384.6" y="217.6" type="curve"/>
      <point x="442.6" y="217.6" type="line"/>
      <point x="442.6" y="323.2" type="line"/>
      <point x="384.6" y="323.2" type="line"/>
      <point x="374.6" y="325.6"/>
      <point x="328.7" y="334.8"/>
      <point x="279.0" y="334.8" type="curve" smooth="yes"/>
      <point x="140.6" y="334.8"/>
      <point x="40.8" y="284.4"/>
      <point x="40.8" y="162.8" type="curve" smooth="yes"/>
      <point x="40.8" y="35.6"/>
      <point x="131.4" y="-12.0"/>
    </contour>
    <contour>
      <point x="376.4" y="236.8" type="line"/>
      <point x="534.2" y="236.8" type="line"/>
      <point x="534.2" y="320.8" type="line" smooth="yes"/>
      <point x="534.2" y="494.8"/>
      <point x="432.3" y="561.6"/>
      <point x="268.8" y="561.6" type="curve" smooth="yes"/>
      <point x="202.8" y="561.6"/>
      <point x="141.6" y="551.6"/>
      <point x="93.6" y="535.8" type="curve"/>
      <point x="93.6" y="402.0" type="line"/>
      <point x="104.4" y="402.0" type="line"/>
      <point x="136.4" y="416.6"/>
      <point x="190.8" y="431.2"/>
      <point x="248.4" y="431.2" type="curve" smooth="yes"/>
      <point x="332.8" y="431.2"/>
      <point x="376.4" y="414.0"/>
      <point x="376.4" y="330.8" type="curve" smooth="yes"/>
    </contour>
  </outline>
</glyph>
<glyph name="eth" format="2">
  <advance width="645.6"/>
  <unicode hex="00F0"/>
  <note>
eth
</note>
  <outline>
    <contour>
      <point x="446.8" y="284.5" type="curve"/>
      <point x="450.8" y="411.2" type="line"/>
      <point x="424.9" y="441.5"/>
      <point x="375.2" y="470.8"/>
      <point x="292.4" y="470.8" type="curve" smooth="yes"/>
      <point x="132.4" y="470.8"/>
      <point x="42.4" y="376.8"/>
      <point x="42.4" y="239.2" type="curve" smooth="yes"/>
      <point x="42.4" y="76.4"/>
      <point x="151.8" y="-12.0"/>
      <point x="309.0" y="-12.0" type="curve" smooth="yes"/>
      <point x="525.0" y="-12.0"/>
      <point x="600.8" y="148.8"/>
      <point x="600.8" y="345.2" type="curve" smooth="yes"/>
      <point x="600.8" y="593.1"/>
      <point x="455.9" y="732.0"/>
      <point x="223.8" y="732.0" type="curve" smooth="yes"/>
      <point x="176.2" y="732.0"/>
      <point x="132.0" y="726.8"/>
      <point x="100.0" y="717.6" type="curve"/>
      <point x="100.0" y="579.2" type="line"/>
      <point x="108.0" y="579.2" type="line"/>
      <point x="136.0" y="589.8"/>
      <point x="173.4" y="597.6"/>
      <point x="218.2" y="597.6" type="curve" smooth="yes"/>
      <point x="329.6" y="597.6"/>
      <point x="432.0" y="551.1"/>
      <point x="432.0" y="372.3" type="curve" smooth="yes"/>
      <point x="432.0" y="213.3"/>
      <point x="413.4" y="121.19999999999999"/>
      <point x="310.2" y="121.19999999999999" type="curve" smooth="yes"/>
      <point x="238.6" y="121.19999999999999"/>
      <point x="204.39999999999998" y="169.2"/>
      <point x="204.39999999999998" y="234.8" type="curve" smooth="yes"/>
      <point x="204.39999999999998" y="300.0"/>
      <point x="243.8" y="343.2"/>
      <point x="325.2" y="343.2" type="curve" smooth="yes"/>
      <point x="388.4" y="343.2"/>
      <point x="423.2" y="317.8"/>
    </contour>
    <contour>
      <point x="299.0" y="502.4" type="line"/>
      <point x="496.2" y="727.6" type="line"/>
      <point x="429.8" y="785.6" type="line"/>
      <point x="232.6" y="560.4" type="line"/>
    </contour>
  </outline>
</glyph>
<glyph name="divide" format="2">
  <advance width="616.0"/>
  <unicode hex="00F7"/>
  <note>
divide
</note>
  <outline>
    <contour>
      <point x="308.0" y="422.8" type="curve" smooth="yes"/>
      <point x="346.9" y="422.8"/>
      <point x="376.4" y="447.6"/>
      <point x="376.4" y="491.2" type="curve" smooth="yes"/>
      <point x="376.4" y="533.1"/>
      <point x="346.9" y="559.6"/>
      <point x="308.0" y="559.6" type="curve" smooth="yes"/>
      <point x="269.1" y="559.6"/>
      <point x="239.6" y="533.1"/>
      <point x="239.6" y="491.2" type="curve" smooth="yes"/>
      <point x="239.6" y="447.6"/>
      <point x="269.1" y="422.8"/>
    </contour>
    <contour>
      <point x="239.6" y="146.4" type="curve" smooth="yes"/>
      <point x="239.6" y="102.8"/>
      <point x="269.1" y="78.0"/>
      <point x="308.0" y="78.0" type="curve" smooth="yes"/>
      <point x="346.9" y="78.0"/>
      <point x="376.4" y="102.8"/>
      <point x="376.4" y="146.4" type="curve" smooth="yes"/>
      <point x="376.4" y="188.3"/>
      <point x="346.9" y="214.8"/>
      <point x="308.0" y="214.8" type="curve" smooth="yes"/>
      <point x="269.1" y="214.8"/>
      <point x="239.6" y="188.3"/>
    </contour>
    <contour>
      <point x="64.0" y="372.8" type="line"/>
      <point x="64.0" y="259.2" type="line"/>
      <point x="552.0" y="259.2" type="line"/>
      <point x="552.0" y="372.8" type="line"/>
    </contour>
  </outline>
</glyph>
<glyph name="thorn" format="2">
  <advance width="664.2"/>
  <unicode hex="00FE"/>
  <note>
thorn
</note>
  <outline>
    <contour>
      <point x="327.6" y="-12.0" type="curve" smooth="yes"/>
      <point x="534.4" y="-12.0"/>
      <point x="620.6" y="124.0"/>
      <point x="620.6" y="275.4" type="curve" smooth="yes"/>
      <point x="620.6" y="471.6"/>
      <point x="488.0" y="561.6"/>
      <point x="342.4" y="561.6" type="curve" smooth="yes"/>
      <point x="258.0" y="561.6"/>
      <point x="192.8" y="533.7"/>
      <point x="155.5" y="510.2" type="curve"/>
      <point x="172.8" y="407.6" type="line"/>
      <point x="211.6" y="407.6" type="line"/>
      <point x="229.6" y="418.0"/>
      <point x="268.8" y="431.2"/>
      <point x="309.2" y="431.2" type="curve" smooth="yes"/>
      <point x="401.2" y="431.2"/>
      <point x="441.2" y="368.8"/>
      <point x="441.2" y="275.4" type="curve" smooth="yes"/>
      <point x="441.2" y="179.2"/>
      <point x="402.4" y="115.6"/>
      <point x="302.4" y="115.6" type="curve" smooth="yes"/>
      <point x="274.4" y="115.6"/>
      <point x="255.7" y="120.69999999999999"/>
      <point x="246.0" y="123.8" type="curve"/>
      <point x="170.4" y="123.8" type="line"/>
      <point x="170.4" y="-1.0" type="line"/>
      <point x="228.0" y="-1.0" type="line"/>
      <point x="238.0" y="-4.1"/>
      <point x="284.8" y="-12.0"/>
    </contour>
    <contour>
      <point x="76.4" y="-237.4" type="line"/>
      <point x="252.39999999999998" y="-237.4" type="line"/>
      <point x="252.39999999999998" y="760.0" type="line"/>
      <point x="69.0" y="760.0" type="line"/>
      <point x="65.6" y="752.0" type="line"/>
      <point x="74.3" y="716.0"/>
      <point x="76.4" y="633.6"/>
      <point x="76.4" y="593.6" type="curve" smooth="yes"/>
    </contour>
  </outline>
</glyph>
<glyph name="idotless" format="2">
  <advance width="328.8"/>
  <unicode hex="0131"/>
  <note>
dotlessi
</note>
  <anchor x="164.4" y="0.0" name="bottom"/>
  <anchor x="252.39999999999998" y="0.0" name="ogonek"/>
  <anchor x="164.4" y="546.8" name="top"/>
  <outline>
    <contour>
      <point x="76.4" y="0.0" type="line"/>
      <point x="252.39999999999998" y="0.0" type="line"/>
      <point x="252.39999999999998" y="546.8" type="line"/>
      <point x="69.0" y="546.8" type="line"/>
      <point x="65.6" y="538.8" type="line"/>
      <point x="74.3" y="502.8"/>
      <point x="76.4" y="420.4"/>
      <point x="76.4" y="380.4" type="curve" smooth="yes"/>
    </contour>
  </outline>
</glyph>
<glyph name="IJ" format="2">
  <advance width="792.4"/>
  <unicode hex="0132"/>
  <note>
IJ
</note>
  <outline>
    <contour>
      <point x="76.4" y="720.0" type="line"/>
      <point x="76.4" y="0.0" type="line"/>
      <point x="253.6" y="0.0" type="line"/>
      <point x="253.6" y="720.0" type="line"/>
    </contour>
    <contour>
      <point x="350.4" y="145.6" type="line"/>
      <point x="350.4" y="0.0" type="line"/>
      <point x="377.2" y="-7.4"/>
      <point x="420.0" y="-12.0"/>
      <point x="458.8" y="-12.0" type="curve" smooth="yes"/>
      <point x="611.2" y="-12.0"/>
      <point x="723.6" y="60.8"/>
      <point x="723.6" y="232.0" type="curve" smooth="yes"/>
      <point x="723.6" y="720.0" type="line"/>
      <point x="546.4" y="720.0" type="line"/>
      <point x="546.4" y="239.6" type="line" smooth="yes"/>
      <point x="546.4" y="166.4"/>
      <point x="508.0" y="133.6"/>
      <point x="433.6" y="133.6" type="curve" smooth="yes"/>
      <point x="405.6" y="133.6"/>
      <point x="380.0" y="138.2"/>
      <point x="361.2" y="145.6" type="curve"/>
    </contour>
  </outline>
</glyph>
<glyph name="ij" format="2">
  <advance width="654.8"/>
  <unicode hex="0133"/>
  <note>
ij
</note>
  <anchor x="164.4" y="546.8" name="_top"/>
  <anchor x="164.4" y="0.0" name="bottom"/>
  <anchor x="252.39999999999998" y="0.0" name="ogonek"/>
  <anchor x="164.4" y="546.8" name="top"/>
  <outline>
    <contour>
      <point x="76.4" y="0.0" type="line"/>
      <point x="252.39999999999998" y="0.0" type="line"/>
      <point x="252.39999999999998" y="546.8" type="line"/>
      <point x="69.0" y="546.8" type="line"/>
      <point x="65.6" y="538.8" type="line"/>
      <point x="74.3" y="502.8"/>
      <point x="76.4" y="420.4"/>
      <point x="76.4" y="380.4" type="curve" smooth="yes"/>
    </contour>
    <contour>
      <point x="164.4" y="626.0" type="curve" smooth="yes"/>
      <point x="219.4" y="626.0"/>
      <point x="258.0" y="658.4"/>
      <point x="258.0" y="716.8" type="curve" smooth="yes"/>
      <point x="258.0" y="775.2"/>
      <point x="219.4" y="807.6"/>
      <point x="164.4" y="807.6" type="curve" smooth="yes"/>
      <point x="109.4" y="807.6"/>
      <point x="70.8" y="775.2"/>
      <point x="70.8" y="716.8" type="curve" smooth="yes"/>
      <point x="70.8" y="658.4"/>
      <point x="109.4" y="626.0"/>
    </contour>
    <contour>
      <point x="338.1" y="-240.0" type="curve" smooth="yes"/>
      <point x="485.3" y="-240.0"/>
      <point x="580.5" y="-162.0"/>
      <point x="580.5" y="-0.4000000000000057" type="curve" smooth="yes"/>
      <point x="580.5" y="546.8" type="line"/>
      <point x="397.1" y="546.8" type="line"/>
      <point x="393.7" y="538.8" type="line"/>
      <point x="402.4" y="502.8"/>
      <point x="404.5" y="420.4"/>
      <point x="404.5" y="380.4" type="curve" smooth="yes"/>
      <point x="404.5" y="-11.400000000000006" type="line" smooth="yes"/>
      <point x="404.5" y="-73.6"/>
      <point x="372.9" y="-101.2"/>
      <point x="314.5" y="-101.2" type="curve" smooth="yes"/>
      <point x="284.4" y="-101.2"/>
      <point x="269.3" y="-96.6"/>
      <point x="250.5" y="-89.2" type="curve"/>
      <point x="239.7" y="-89.2" type="line"/>
      <point x="239.7" y="-228.0" type="line"/>
      <point x="264.1" y="-235.4"/>
      <point x="296.5" y="-240.0"/>
    </contour>
    <contour>
      <point x="491.1" y="626.0" type="curve" smooth="yes"/>
      <point x="546.1" y="626.0"/>
      <point x="584.7" y="658.4"/>
      <point x="584.7" y="716.8" type="curve" smooth="yes"/>
      <point x="584.7" y="775.2"/>
      <point x="546.1" y="807.6"/>
      <point x="491.1" y="807.6" type="curve" smooth="yes"/>
      <point x="436.1" y="807.6"/>
      <point x="397.5" y="775.2"/>
      <point x="397.5" y="716.8" type="curve" smooth="yes"/>
      <point x="397.5" y="658.4"/>
      <point x="436.1" y="626.0"/>
    </contour>
  </outline>
</glyph>
<glyph name="kgreenlandic" format="2">
  <advance width="615.2"/>
  <unicode hex="0138"/>
  <outline>
    <contour>
      <point x="415.2" y="0.0" type="line"/>
      <point x="615.6" y="0.0" type="line"/>
      <point x="615.6" y="12.0" type="line"/>
      <point x="596.2" y="28.0"/>
      <point x="559.9" y="66.5"/>
      <point x="535.6" y="98.6" type="curve" smooth="yes"/>
      <point x="350.0" y="349.5" type="line"/>
      <point x="349.0" y="239.5" type="line"/>
      <point x="517.5" y="440.1" type="line" smooth="yes"/>
      <point x="544.2" y="471.5"/>
      <point x="588.1" y="518.8"/>
      <point x="608.8" y="534.8" type="curve"/>
      <point x="608.8" y="546.8" type="line"/>
      <point x="423.6" y="546.8" type="line"/>
      <point x="220.8" y="283.2" type="line"/>
    </contour>
    <contour>
      <point x="76.4" y="0.0" type="line"/>
      <point x="252.39999999999998" y="0.0" type="line"/>
      <point x="252.39999999999998" y="546.8" type="line"/>
      <point x="69.0" y="546.8" type="line"/>
      <point x="65.6" y="538.8" type="line"/>
      <point x="74.3" y="502.8"/>
      <point x="76.4" y="420.4"/>
      <point x="76.4" y="380.4" type="curve" smooth="yes"/>
    </contour>
  </outline>
</glyph>
<glyph name="Eng" format="2">
  <advance width="772.1"/>
  <unicode hex="014A"/>
  <note>
Eng
</note>
  <outline>
    <contour>
      <point x="76.4" y="0.0" type="line"/>
      <point x="253.6" y="0.0" type="line"/>
      <point x="253.6" y="522.7" type="line"/>
      <point x="203.1" y="501.9" type="line"/>
      <point x="574.6" y="125.6" type="line"/>
      <point x="574.6" y="359.3" type="line"/>
      <point x="218.0" y="720.0" type="line"/>
      <point x="76.4" y="720.0" type="line"/>
    </contour>
    <contour>
      <point x="430.9" y="-240.0" type="curve" smooth="yes"/>
      <point x="583.3" y="-240.0"/>
      <point x="695.7" y="-167.2"/>
      <point x="695.7" y="4.0" type="curve" smooth="yes"/>
      <point x="695.7" y="720.6" type="line"/>
      <point x="518.5" y="720.6" type="line"/>
      <point x="518.5" y="11.599999999999994" type="line" smooth="yes"/>
      <point x="518.5" y="-61.6"/>
      <point x="480.1" y="-94.4"/>
      <point x="405.7" y="-94.4" type="curve" smooth="yes"/>
      <point x="377.7" y="-94.4"/>
      <point x="352.1" y="-89.80000000000001"/>
      <point x="333.3" y="-82.4" type="curve"/>
      <point x="322.5" y="-82.4" type="line"/>
      <point x="322.5" y="-228.0" type="line"/>
      <point x="349.3" y="-235.4"/>
      <point x="392.1" y="-240.0"/>
    </contour>
  </outline>
</glyph>
<glyph name="eng" format="2">
  <advance width="676.4"/>
  <unicode hex="014B"/>
  <note>
eng
</note>
  <anchor x="338.2" y="0.0" name="bottom"/>
  <anchor x="338.2" y="546.8" name="top"/>
  <outline>
    <contour>
      <point x="382.6" y="-240.0" type="curve" smooth="yes"/>
      <point x="508.8" y="-240.0"/>
      <point x="604.0" y="-153.6"/>
      <point x="604.0" y="-0.4000000000000057" type="curve" smooth="yes"/>
      <point x="604.0" y="180.4" type="line"/>
      <point x="428.0" y="180.4" type="line"/>
      <point x="428.0" y="-11.400000000000006" type="line" smooth="yes"/>
      <point x="428.0" y="-73.6"/>
      <point x="410.4" y="-101.2"/>
      <point x="352.0" y="-101.2" type="curve" smooth="yes"/>
      <point x="337.3" y="-101.2"/>
      <point x="322.2" y="-99.4"/>
      <point x="303.4" y="-94.80000000000001" type="curve"/>
      <point x="292.6" y="-94.80000000000001" type="line"/>
      <point x="292.6" y="-228.0" type="line"/>
      <point x="317.0" y="-235.4"/>
      <point x="349.4" y="-240.0"/>
    </contour>
    <component base="n"/>
  </outline>
</glyph>
<glyph name="OE" format="2">
  <advance width="1107.6"/>
  <unicode hex="0152"/>
  <note>
OE
</note>
  <outline>
    <contour>
      <point x="408.8" y="-12.0" type="curve" smooth="yes"/>
      <point x="642.0" y="-12.0"/>
      <point x="775.6" y="140.0"/>
      <point x="775.6" y="360.0" type="curve" smooth="yes"/>
      <point x="775.6" y="580.0"/>
      <point x="642.0" y="732.0"/>
      <point x="408.8" y="732.0" type="curve" smooth="yes"/>
      <point x="175.6" y="732.0"/>
      <point x="42.0" y="580.0"/>
      <point x="42.0" y="360.0" type="curve" smooth="yes"/>
      <point x="42.0" y="137.2"/>
      <point x="175.0" y="-12.0"/>
    </contour>
    <contour>
      <point x="408.8" y="137.6" type="curve" smooth="yes"/>
      <point x="284.4" y="137.6"/>
      <point x="223.2" y="229.2"/>
      <point x="223.2" y="360.0" type="curve" smooth="yes"/>
      <point x="223.2" y="490.8"/>
      <point x="284.4" y="582.4"/>
      <point x="408.8" y="582.4" type="curve" smooth="yes"/>
      <point x="533.2" y="582.4"/>
      <point x="594.4" y="490.8"/>
      <point x="594.4" y="360.0" type="curve" smooth="yes"/>
      <point x="594.4" y="229.2"/>
      <point x="533.2" y="137.6"/>
    </contour>
    <contour>
      <point x="503.6" y="0.0" type="line"/>
      <point x="1058.4" y="0.0" type="line"/>
      <point x="1058.4" y="154.0" type="line"/>
      <point x="503.6" y="154.0" type="line"/>
    </contour>
    <contour>
      <point x="690.0" y="288.4" type="line"/>
      <point x="998.8" y="288.4" type="line"/>
      <point x="998.8" y="434.0" type="line"/>
      <point x="690.0" y="434.0" type="line"/>
    </contour>
    <contour>
      <point x="498.4" y="566.0" type="line"/>
      <point x="1049.2" y="566.0" type="line"/>
      <point x="1049.2" y="720.0" type="line"/>
      <point x="498.4" y="720.0" type="line"/>
    </contour>
  </outline>
</glyph>
<glyph name="oe" format="2">
  <advance width="1009.3"/>
  <unicode hex="0153"/>
  <note>
oe
</note>
  <outline>
    <contour>
      <point x="43.6" y="275.4" type="curve" smooth="yes"/>
      <point x="43.6" y="82.0"/>
      <point x="159.8" y="-10.8"/>
      <point x="325.8" y="-10.8" type="curve" smooth="yes"/>
      <point x="476.6" y="-10.8"/>
      <point x="594.0" y="82.0"/>
      <point x="594.0" y="275.4" type="curve" smooth="yes"/>
      <point x="594.0" y="468.8"/>
      <point x="476.6" y="561.6"/>
      <point x="325.8" y="561.6" type="curve" smooth="yes"/>
      <point x="161.0" y="561.6"/>
      <point x="43.6" y="468.8"/>
    </contour>
    <contour>
      <point x="223.0" y="275.4" type="curve" smooth="yes"/>
      <point x="223.0" y="380.0"/>
      <point x="256.6" y="434.0"/>
      <point x="325.8" y="434.0" type="curve" smooth="yes"/>
      <point x="395.0" y="434.0"/>
      <point x="428.6" y="380.0"/>
      <point x="428.6" y="275.4" type="curve" smooth="yes"/>
      <point x="428.6" y="170.8"/>
      <point x="395.0" y="116.8"/>
      <point x="325.8" y="116.8" type="curve" smooth="yes"/>
      <point x="256.6" y="116.8"/>
      <point x="223.0" y="170.8"/>
    </contour>
    <contour>
      <point x="759.4" y="-10.8" type="curve" smooth="yes"/>
      <point x="834.9" y="-10.8"/>
      <point x="889.0" y="-1.0"/>
      <point x="929.4" y="15.0" type="curve"/>
      <point x="929.4" y="151.6" type="line"/>
      <point x="918.6" y="151.6" type="line"/>
      <point x="890.6" y="135.6"/>
      <point x="837.0" y="122.4"/>
      <point x="774.6" y="122.4" type="curve" smooth="yes"/>
      <point x="673.3" y="122.4"/>
      <point x="605.2" y="153.6"/>
      <point x="605.2" y="258.6" type="curve" smooth="yes"/>
      <point x="605.2" y="291.2" type="line" smooth="yes"/>
      <point x="605.2" y="402.8"/>
      <point x="643.5" y="439.6"/>
      <point x="705.8" y="439.6" type="curve" smooth="yes"/>
      <point x="770.3" y="439.6"/>
      <point x="799.4" y="401.6"/>
      <point x="799.4" y="335.2" type="curve" smooth="yes"/>
      <point x="799.4" y="330.0" type="line"/>
      <point x="537.4" y="330.0" type="line"/>
      <point x="537.4" y="226.0" type="line"/>
      <point x="966.5" y="226.0" type="line"/>
      <point x="968.2" y="262.4" type="line" smooth="yes"/>
      <point x="976.3" y="434.4"/>
      <point x="895.8" y="561.6"/>
      <point x="708.6" y="561.6" type="curve" smooth="yes"/>
      <point x="558.7" y="561.6"/>
      <point x="449.6" y="455.2"/>
      <point x="449.6" y="275.4" type="curve" smooth="yes"/>
      <point x="449.6" y="66.8"/>
      <point x="582.0" y="-10.8"/>
    </contour>
  </outline>
</glyph>
<glyph name="Tbar" format="2">
  <advance width="631.6"/>
  <unicode hex="0166"/>
  <note>
Tbar
</note>
  <anchor x="315.8" y="0.0" name="bottom"/>
  <anchor x="315.8" y="360.0" name="center"/>
  <anchor x="315.8" y="720.0" name="top"/>
  <outline>
    <contour>
      <point x="88.0" y="279.2" type="line"/>
      <point x="549.2" y="279.2" type="line"/>
      <point x="549.2" y="396.0" type="line"/>
      <point x="88.0" y="396.0" type="line"/>
    </contour>
    <component base="T"/>
  </outline>
</glyph>
<glyph name="tbar" format="2">
  <advance width="471.2"/>
  <unicode hex="0167"/>
  <note>
tbar
</note>
  <anchor x="235.6" y="0.0" name="bottom"/>
  <anchor x="235.6" y="273.4" name="center"/>
  <anchor x="189.2" y="683.6" name="top"/>
  <anchor x="392.0" y="601.3" name="topright"/>
  <outline>
    <contour>
      <point x="420.6" y="320.4" type="line"/>
      <point x="11.600000000000001" y="320.4" type="line"/>
      <point x="11.600000000000001" y="231.2" type="line"/>
      <point x="420.6" y="231.2" type="line"/>
    </contour>
    <component base="t"/>
  </outline>
</glyph>
<glyph name="longs" format="2">
  <advance width="366.8"/>
  <unicode hex="017F"/>
  <note>
longs
</note>
  <outline>
    <contour>
      <point x="12.8" y="546.8" type="line"/>
      <point x="12.8" y="410.8" type="line"/>
      <point x="102.4" y="410.8" type="line"/>
      <point x="102.4" y="0.0" type="line"/>
      <point x="278.4" y="0.0" type="line"/>
      <point x="278.4" y="543.2" type="line" smooth="yes"/>
      <point x="278.4" y="610.4"/>
      <point x="310.4" y="640.8"/>
      <point x="374.0" y="640.8" type="curve" smooth="yes"/>
      <point x="400.4" y="640.8"/>
      <point x="419.2" y="635.4"/>
      <point x="433.6" y="628.8" type="curve"/>
      <point x="444.4" y="628.8" type="line"/>
      <point x="444.4" y="759.2" type="line"/>
      <point x="424.4" y="765.8"/>
      <point x="394.8" y="771.2"/>
      <point x="357.2" y="771.2" type="curve" smooth="yes"/>
      <point x="202.5" y="771.2"/>
      <point x="108.0" y="705.2"/>
      <point x="102.4" y="546.8" type="curve"/>
    </contour>
  </outline>
</glyph>
<glyph name="Schwa" format="2">
  <advance width="752.9"/>
  <unicode hex="018F"/>
  <anchor x="323.12080000000003" y="0.0" name="bottom"/>
  <anchor x="575.0871" y="17.0913" name="ogonek"/>
  <anchor x="323.12080000000003" y="598.5089" name="top"/>
  <outline>
    <contour>
      <point x="321.6" y="732.0" type="curve" smooth="yes"/>
      <point x="247.3" y="732.0"/>
      <point x="163.7" y="719.0"/>
      <point x="111.2" y="698.0" type="curve"/>
      <point x="111.2" y="544.6" type="line"/>
      <point x="125.7" y="544.6" type="line"/>
      <point x="163.8" y="564.9"/>
      <point x="232.6" y="582.4"/>
      <point x="302.9" y="582.4" type="curve" smooth="yes"/>
      <point x="429.6" y="582.4"/>
      <point x="529.7" y="537.6"/>
      <point x="529.7" y="381.4" type="curve" smooth="yes"/>
      <point x="529.7" y="339.1" type="line" smooth="yes"/>
      <point x="529.7" y="198.8"/>
      <point x="473.9" y="136.2"/>
      <point x="376.6" y="136.2" type="curve" smooth="yes"/>
      <point x="285.0" y="136.2"/>
      <point x="240.2" y="189.5"/>
      <point x="240.2" y="281.8" type="curve" smooth="yes"/>
      <point x="240.2" y="291.0" type="line"/>
      <point x="569.9" y="291.0" type="line"/>
      <point x="569.9" y="422.4" type="line"/>
      <point x="64.3" y="422.4" type="line"/>
      <point x="61.9" y="376.1" type="line" smooth="yes"/>
      <point x="51.0" y="152.9"/>
      <point x="141.2" y="-12.0"/>
      <point x="375.2" y="-12.0" type="curve" smooth="yes"/>
      <point x="569.1" y="-12.0"/>
      <point x="710.9" y="125.9"/>
      <point x="710.9" y="360.0" type="curve" smooth="yes"/>
      <point x="710.9" y="630.5"/>
      <point x="539.1" y="732.0"/>
    </contour>
  </outline>
</glyph>
<glyph name="florin" format="2">
  <advance width="616.0"/>
  <unicode hex="0192"/>
  <note>
florin
</note>
  <outline>
    <contour>
      <point x="104.0" y="-248.0" type="curve" smooth="yes"/>
      <point x="268.0" y="-248.0"/>
      <point x="371.2" y="-153.2"/>
      <point x="371.2" y="15.599999999999998" type="curve" smooth="yes"/>
      <point x="371.2" y="474.0" type="line" smooth="yes"/>
      <point x="371.2" y="556.0"/>
      <point x="410.0" y="604.4"/>
      <point x="492.8" y="604.4" type="curve" smooth="yes"/>
      <point x="517.8" y="604.4"/>
      <point x="539.7" y="600.4"/>
      <point x="558.8" y="591.8" type="curve"/>
      <point x="568.4" y="591.8" type="line"/>
      <point x="568.4" y="717.2" type="line"/>
      <point x="544.4" y="725.2"/>
      <point x="512.0" y="732.0"/>
      <point x="465.2" y="732.0" type="curve" smooth="yes"/>
      <point x="301.2" y="732.0"/>
      <point x="198.0" y="637.2"/>
      <point x="198.0" y="468.4" type="curve" smooth="yes"/>
      <point x="198.0" y="10.0" type="line" smooth="yes"/>
      <point x="198.0" y="-72.0"/>
      <point x="159.2" y="-120.4"/>
      <point x="76.4" y="-120.4" type="curve" smooth="yes"/>
      <point x="51.4" y="-120.4"/>
      <point x="29.5" y="-116.4"/>
      <point x="10.4" y="-107.80000000000001" type="curve"/>
      <point x="0.8000000000000007" y="-107.80000000000001" type="line"/>
      <point x="0.8000000000000007" y="-233.2" type="line"/>
      <point x="24.8" y="-241.2"/>
      <point x="57.2" y="-248.0"/>
    </contour>
    <contour>
      <point x="60.400000000000006" y="285.0" type="line"/>
      <point x="516.0" y="285.0" type="line"/>
      <point x="516.0" y="414.8" type="line"/>
      <point x="60.400000000000006" y="414.8" type="line"/>
    </contour>
  </outline>
</glyph>
<glyph name="Lj" format="2">
  <advance width="886.0"/>
  <unicode hex="01C8"/>
  <anchor x="723.0" y="546.8" name="_top"/>
  <anchor x="280.0" y="0.0" name="bottom"/>
  <anchor x="218.8" y="390.4" name="center"/>
  <anchor x="404.4" y="420.0" name="periodCAT"/>
  <anchor x="280.0" y="720.0" name="top"/>
  <anchor x="540.0" y="720.0" name="topright"/>
  <outline>
    <contour>
      <point x="76.4" y="0.0" type="line"/>
      <point x="528.0" y="0.0" type="line"/>
      <point x="528.0" y="154.0" type="line"/>
      <point x="253.6" y="154.0" type="line"/>
      <point x="253.6" y="720.0" type="line"/>
      <point x="76.4" y="720.0" type="line"/>
    </contour>
    <contour>
      <point x="570.0" y="-240.0" type="curve" smooth="yes"/>
      <point x="717.2" y="-240.0"/>
      <point x="812.4" y="-162.0"/>
      <point x="812.4" y="-0.4000000000000057" type="curve" smooth="yes"/>
      <point x="812.4" y="546.8" type="line"/>
      <point x="629.0" y="546.8" type="line"/>
      <point x="625.6" y="538.8" type="line"/>
      <point x="634.3" y="502.8"/>
      <point x="636.4" y="420.4"/>
      <point x="636.4" y="380.4" type="curve" smooth="yes"/>
      <point x="636.4" y="-11.400000000000006" type="line" smooth="yes"/>
      <point x="636.4" y="-73.6"/>
      <point x="604.8" y="-101.2"/>
      <point x="546.4" y="-101.2" type="curve" smooth="yes"/>
      <point x="516.3" y="-101.2"/>
      <point x="501.2" y="-96.6"/>
      <point x="482.4" y="-89.2" type="curve"/>
      <point x="471.6" y="-89.2" type="line"/>
      <point x="471.6" y="-228.0" type="line"/>
      <point x="496.0" y="-235.4"/>
      <point x="528.4" y="-240.0"/>
    </contour>
    <contour>
      <point x="723.0" y="626.0" type="curve" smooth="yes"/>
      <point x="778.0" y="626.0"/>
      <point x="816.6" y="658.4"/>
      <point x="816.6" y="716.8" type="curve" smooth="yes"/>
      <point x="816.6" y="775.2"/>
      <point x="778.0" y="807.6"/>
      <point x="723.0" y="807.6" type="curve" smooth="yes"/>
      <point x="668.0" y="807.6"/>
      <point x="629.4" y="775.2"/>
      <point x="629.4" y="716.8" type="curve" smooth="yes"/>
      <point x="629.4" y="658.4"/>
      <point x="668.0" y="626.0"/>
    </contour>
  </outline>
</glyph>
<glyph name="lj" format="2">
  <advance width="654.8"/>
  <unicode hex="01C9"/>
  <anchor x="164.4" y="0.0" name="bottom"/>
  <anchor x="168.0" y="376.6" name="center"/>
  <anchor x="388.0" y="357.2" name="periodCAT"/>
  <anchor x="164.4" y="760.0" name="top"/>
  <anchor x="372.2" y="546.8" name="topright"/>
  <outline>
    <contour>
      <point x="76.4" y="0.0" type="line"/>
      <point x="252.39999999999998" y="0.0" type="line"/>
      <point x="252.39999999999998" y="760.0" type="line"/>
      <point x="69.0" y="760.0" type="line"/>
      <point x="65.6" y="752.0" type="line"/>
      <point x="74.3" y="716.0"/>
      <point x="76.4" y="633.6"/>
      <point x="76.4" y="593.6" type="curve" smooth="yes"/>
    </contour>
    <component base="jdotless" xOffset="328.8"/>
    <component base="_part.dot" xOffset="326.6"/>
  </outline>
</glyph>
<glyph name="Nj" format="2">
  <advance width="1095.6"/>
  <unicode hex="01CB"/>
  <anchor x="932.6" y="546.8" name="_top"/>
  <anchor x="384.8" y="0.0" name="bottom"/>
  <anchor x="384.8" y="720.0" name="top"/>
  <outline>
    <contour>
      <point x="76.4" y="0.0" type="line"/>
      <point x="253.6" y="0.0" type="line"/>
      <point x="253.6" y="451.8" type="line"/>
      <point x="516.0" y="184.1" type="line"/>
      <point x="516.0" y="0.0" type="line"/>
      <point x="693.2" y="0.0" type="line"/>
      <point x="693.2" y="720.0" type="line"/>
      <point x="516.0" y="720.0" type="line"/>
      <point x="516.0" y="418.1" type="line"/>
      <point x="218.0" y="720.0" type="line"/>
      <point x="76.4" y="720.0" type="line"/>
    </contour>
    <contour>
      <point x="779.6" y="-240.0" type="curve" smooth="yes"/>
      <point x="926.8" y="-240.0"/>
      <point x="1022.0" y="-162.0"/>
      <point x="1022.0" y="-0.4000000000000057" type="curve" smooth="yes"/>
      <point x="1022.0" y="546.8" type="line"/>
      <point x="838.6" y="546.8" type="line"/>
      <point x="835.2" y="538.8" type="line"/>
      <point x="843.9" y="502.8"/>
      <point x="846.0" y="420.4"/>
      <point x="846.0" y="380.4" type="curve" smooth="yes"/>
      <point x="846.0" y="-11.400000000000006" type="line" smooth="yes"/>
      <point x="846.0" y="-73.6"/>
      <point x="814.4" y="-101.2"/>
      <point x="756.0" y="-101.2" type="curve" smooth="yes"/>
      <point x="725.9" y="-101.2"/>
      <point x="710.8" y="-96.6"/>
      <point x="692.0" y="-89.2" type="curve"/>
      <point x="681.2" y="-89.2" type="line"/>
      <point x="681.2" y="-228.0" type="line"/>
      <point x="705.6" y="-235.4"/>
      <point x="738.0" y="-240.0"/>
    </contour>
    <contour>
      <point x="932.6" y="626.0" type="curve" smooth="yes"/>
      <point x="987.6" y="626.0"/>
      <point x="1026.2" y="658.4"/>
      <point x="1026.2" y="716.8" type="curve" smooth="yes"/>
      <point x="1026.2" y="775.2"/>
      <point x="987.6" y="807.6"/>
      <point x="932.6" y="807.6" type="curve" smooth="yes"/>
      <point x="877.6" y="807.6"/>
      <point x="839.0" y="775.2"/>
      <point x="839.0" y="716.8" type="curve" smooth="yes"/>
      <point x="839.0" y="658.4"/>
      <point x="877.6" y="626.0"/>
    </contour>
  </outline>
</glyph>
<glyph name="nj" format="2">
  <advance width="1002.4"/>
  <unicode hex="01CC"/>
  <anchor x="839.7" y="546.8" name="_top"/>
  <anchor x="338.2" y="0.0" name="bottom"/>
  <anchor x="338.2" y="546.8" name="top"/>
  <outline>
    <contour>
      <point x="76.4" y="0.0" type="line"/>
      <point x="252.39999999999998" y="0.0" type="line"/>
      <point x="252.39999999999998" y="340.0" type="line" smooth="yes"/>
      <point x="252.39999999999998" y="388.8"/>
      <point x="247.3" y="420.8"/>
      <point x="238.8" y="441.5" type="curve"/>
      <point x="214.4" y="401.6" type="line"/>
      <point x="242.0" y="411.1"/>
      <point x="277.5" y="422.8"/>
      <point x="315.6" y="422.8" type="curve" smooth="yes"/>
      <point x="382.0" y="422.8"/>
      <point x="428.0" y="399.2"/>
      <point x="428.0" y="306.4" type="curve" smooth="yes"/>
      <point x="428.0" y="0.0" type="line"/>
      <point x="604.0" y="0.0" type="line"/>
      <point x="604.0" y="311.6" type="line" smooth="yes"/>
      <point x="604.0" y="513.6"/>
      <point x="468.0" y="561.6"/>
      <point x="329.0" y="561.6" type="curve" smooth="yes"/>
      <point x="234.0" y="561.6"/>
      <point x="135.0" y="536.0"/>
      <point x="69.0" y="507.6" type="curve"/>
      <point x="65.6" y="499.6" type="line"/>
      <point x="74.3" y="463.6"/>
      <point x="76.4" y="378.4"/>
      <point x="76.4" y="338.4" type="curve" smooth="yes"/>
    </contour>
    <contour>
      <point x="686.4" y="-240.0" type="curve" smooth="yes"/>
      <point x="833.6" y="-240.0"/>
      <point x="928.8" y="-162.0"/>
      <point x="928.8" y="-0.4000000000000057" type="curve" smooth="yes"/>
      <point x="928.8" y="546.8" type="line"/>
      <point x="745.4" y="546.8" type="line"/>
      <point x="742.0" y="538.8" type="line"/>
      <point x="750.7" y="502.8"/>
      <point x="752.8" y="420.4"/>
      <point x="752.8" y="380.4" type="curve" smooth="yes"/>
      <point x="752.8" y="-11.400000000000006" type="line" smooth="yes"/>
      <point x="752.8" y="-73.6"/>
      <point x="721.2" y="-101.2"/>
      <point x="662.8" y="-101.2" type="curve" smooth="yes"/>
      <point x="632.7" y="-101.2"/>
      <point x="617.6" y="-96.6"/>
      <point x="598.8" y="-89.2" type="curve"/>
      <point x="588.0" y="-89.2" type="line"/>
      <point x="588.0" y="-228.0" type="line"/>
      <point x="612.4" y="-235.4"/>
      <point x="644.8" y="-240.0"/>
    </contour>
    <contour>
      <point x="839.7" y="626.0" type="curve" smooth="yes"/>
      <point x="894.7" y="626.0"/>
      <point x="933.3" y="658.4"/>
      <point x="933.3" y="716.8" type="curve" smooth="yes"/>
      <point x="933.3" y="775.2"/>
      <point x="894.7" y="807.6"/>
      <point x="839.7" y="807.6" type="curve" smooth="yes"/>
      <point x="784.7" y="807.6"/>
      <point x="746.1" y="775.2"/>
      <point x="746.1" y="716.8" type="curve" smooth="yes"/>
      <point x="746.1" y="658.4"/>
      <point x="784.7" y="626.0"/>
    </contour>
  </outline>
</glyph>
<glyph name="jdotless" format="2">
  <advance width="326.0"/>
  <unicode hex="0237"/>
  <note>
dotlessj
</note>
  <anchor x="163.0" y="-240.0" name="bottom"/>
  <anchor x="163.0" y="546.8" name="top"/>
  <outline>
    <contour>
      <point x="10.0" y="-240.0" type="curve" smooth="yes"/>
      <point x="157.2" y="-240.0"/>
      <point x="252.39999999999998" y="-162.0"/>
      <point x="252.39999999999998" y="-0.4000000000000057" type="curve" smooth="yes"/>
      <point x="252.39999999999998" y="546.8" type="line"/>
      <point x="69.0" y="546.8" type="line"/>
      <point x="65.6" y="538.8" type="line"/>
      <point x="74.3" y="502.8"/>
      <point x="76.4" y="420.4"/>
      <point x="76.4" y="380.4" type="curve" smooth="yes"/>
      <point x="76.4" y="-11.400000000000006" type="line" smooth="yes"/>
      <point x="76.4" y="-73.6"/>
      <point x="44.8" y="-101.2"/>
      <point x="-13.6" y="-101.2" type="curve" smooth="yes"/>
      <point x="-43.7" y="-101.2"/>
      <point x="-58.8" y="-96.6"/>
      <point x="-77.6" y="-89.2" type="curve"/>
      <point x="-88.4" y="-89.2" type="line"/>
      <point x="-88.4" y="-228.0" type="line"/>
      <point x="-64.0" y="-235.4"/>
      <point x="-31.6" y="-240.0"/>
    </contour>
  </outline>
</glyph>
<glyph name="schwa" format="2">
  <advance width="627.5"/>
  <unicode hex="0259"/>
  <note>
e
</note>
  <anchor x="315.2" y="550.8" name="bottom"/>
  <anchor x="83.1" y="535.8" name="ogonek"/>
  <anchor x="315.2" y="4.0" name="top"/>
  <outline>
    <contour>
      <point x="253.1" y="561.6" type="curve" smooth="yes"/>
      <point x="177.6" y="561.6"/>
      <point x="123.5" y="551.8"/>
      <point x="83.1" y="535.8" type="curve"/>
      <point x="83.1" y="399.2" type="line"/>
      <point x="93.9" y="399.2" type="line"/>
      <point x="121.9" y="415.2"/>
      <point x="175.5" y="428.4"/>
      <point x="237.9" y="428.4" type="curve" smooth="yes"/>
      <point x="339.2" y="428.4"/>
      <point x="407.3" y="397.2"/>
      <point x="407.3" y="292.2" type="curve" smooth="yes"/>
      <point x="407.3" y="259.6" type="line" smooth="yes"/>
      <point x="407.3" y="148.0"/>
      <point x="369.0" y="111.19999999999999"/>
      <point x="306.7" y="111.19999999999999" type="curve" smooth="yes"/>
      <point x="242.2" y="111.19999999999999"/>
      <point x="213.1" y="149.2"/>
      <point x="213.1" y="215.6" type="curve" smooth="yes"/>
      <point x="213.1" y="220.8" type="line"/>
      <point x="475.1" y="220.8" type="line"/>
      <point x="475.1" y="324.8" type="line"/>
      <point x="46.0" y="324.8" type="line"/>
      <point x="44.3" y="288.4" type="line" smooth="yes"/>
      <point x="36.2" y="116.4"/>
      <point x="116.7" y="-10.8"/>
      <point x="303.9" y="-10.8" type="curve" smooth="yes"/>
      <point x="474.8" y="-10.8"/>
      <point x="583.9" y="95.6"/>
      <point x="583.9" y="275.4" type="curve" smooth="yes"/>
      <point x="583.9" y="484.0"/>
      <point x="451.5" y="561.6"/>
    </contour>
  </outline>
</glyph>
<glyph name="apostrophemod" format="2">
  <advance width="677.6"/>
  <unicode hex="02BC"/>
  <outline>
    <contour>
      <point x="261.5" y="694.2" type="curve"/>
      <point x="217.0" y="612.5" type="line"/>
      <point x="217.0" y="606.8" type="line"/>
      <point x="302.79999999999995" y="606.8" type="line"/>
      <point x="332.7" y="664.2" type="line"/>
      <point x="341.9" y="683.2"/>
      <point x="359.2" y="715.5"/>
      <point x="359.2" y="746.5" type="curve" smooth="yes"/>
      <point x="359.2" y="790.9"/>
      <point x="328.1" y="816.0"/>
      <point x="289.3" y="816.0" type="curve" smooth="yes"/>
      <point x="250.2" y="816.0"/>
      <point x="222.2" y="790.0"/>
      <point x="222.2" y="751.4" type="curve" smooth="yes"/>
      <point x="222.2" y="718.4"/>
      <point x="244.0" y="702.7"/>
    </contour>
  </outline>
</glyph>
<glyph name="ringhalfright" format="2">
  <advance width="205.6"/>
  <unicode hex="02BE"/>
  <note>
uni02BE
</note>
  <outline>
    <contour>
      <point x="26.4" y="435.6" type="line"/>
      <point x="108.0" y="435.6"/>
      <point x="184.4" y="468.6"/>
      <point x="184.4" y="577.8" type="curve" smooth="yes"/>
      <point x="184.4" y="687.0"/>
      <point x="108.0" y="720.0"/>
      <point x="26.4" y="720.0" type="curve"/>
      <point x="26.4" y="646.0" type="line"/>
      <point x="74.4" y="644.8"/>
      <point x="100.8" y="629.0"/>
      <point x="100.8" y="577.8" type="curve" smooth="yes"/>
      <point x="100.8" y="526.6"/>
      <point x="74.4" y="510.8"/>
      <point x="26.4" y="509.6" type="curve"/>
    </contour>
  </outline>
</glyph>
<glyph name="ringhalfleft" format="2">
  <advance width="205.6"/>
  <unicode hex="02BF"/>
  <note>
uni02BF
</note>
  <outline>
    <contour>
      <point x="179.2" y="435.6" type="curve"/>
      <point x="179.2" y="509.6" type="line"/>
      <point x="131.2" y="510.8"/>
      <point x="104.8" y="526.6"/>
      <point x="104.8" y="577.8" type="curve" smooth="yes"/>
      <point x="104.8" y="629.0"/>
      <point x="131.2" y="644.8"/>
      <point x="179.2" y="646.0" type="curve"/>
      <point x="179.2" y="720.0" type="line"/>
      <point x="97.6" y="720.0"/>
      <point x="21.2" y="687.0"/>
      <point x="21.2" y="577.8" type="curve" smooth="yes"/>
      <point x="21.2" y="468.6"/>
      <point x="97.6" y="435.6"/>
    </contour>
  </outline>
</glyph>
<glyph name="verticallinemod" format="2">
  <advance width="222.0"/>
  <unicode hex="02C8"/>
  <outline>
    <contour>
      <point x="49.2" y="470.0" type="line"/>
      <point x="172.8" y="470.0" type="line"/>
      <point x="179.6" y="760.0" type="line"/>
      <point x="42.4" y="760.0" type="line"/>
    </contour>
  </outline>
</glyph>
<glyph name="firsttonechinese" format="2">
  <advance width="654.0"/>
  <unicode hex="02C9"/>
  <note>
uni02C9
</note>
  <outline>
    <contour>
      <point x="159.4" y="720.0" type="line"/>
      <point x="159.4" y="626.4" type="line"/>
      <point x="494.6" y="626.4" type="line"/>
      <point x="494.6" y="720.0" type="line"/>
    </contour>
  </outline>
</glyph>
<glyph name="gravecomb" format="2">
  <unicode hex="0300"/>
  <note>
grave
</note>
  <anchor x="294.3" y="546.8" name="_top"/>
  <anchor x="294.3" y="760.0" name="top"/>
  <outline>
    <contour>
      <point x="301.0" y="604.0" type="line"/>
      <point x="413.4" y="604.0" type="line"/>
      <point x="413.4" y="608.0" type="line"/>
      <point x="328.0" y="760.0" type="line"/>
      <point x="174.9" y="760.0" type="line"/>
      <point x="174.9" y="756.0" type="line"/>
    </contour>
  </outline>
</glyph>
<glyph name="circumflexcomb" format="2">
  <unicode hex="0302"/>
  <note>
circumflex
</note>
  <anchor x="327.0" y="546.8" name="_top"/>
  <anchor x="327.0" y="760.0" name="top"/>
  <outline>
    <contour>
      <point x="158.2" y="604.0" type="line"/>
      <point x="259.4" y="604.0" type="line"/>
      <point x="327.0" y="683.9" type="line"/>
      <point x="394.6" y="604.0" type="line"/>
      <point x="495.8" y="604.0" type="line"/>
      <point x="495.8" y="608.0" type="line"/>
      <point x="392.2" y="760.0" type="line"/>
      <point x="261.8" y="760.0" type="line"/>
      <point x="158.2" y="608.0" type="line"/>
    </contour>
  </outline>
</glyph>
<glyph name="tildecomb" format="2">
  <unicode hex="0303"/>
  <note>
tilde
</note>
  <anchor x="327.0" y="546.8" name="_top"/>
  <anchor x="327.0" y="760.0" name="top"/>
  <outline>
    <contour>
      <point x="134.6" y="606.8" type="curve"/>
      <point x="219.8" y="606.8" type="line"/>
      <point x="219.8" y="645.6"/>
      <point x="225.0" y="674.8"/>
      <point x="257.0" y="674.8" type="curve" smooth="yes"/>
      <point x="279.7" y="674.8"/>
      <point x="295.8" y="657.2"/>
      <point x="314.6" y="641.2" type="curve" smooth="yes"/>
      <point x="336.3" y="622.3"/>
      <point x="364.0" y="606.8"/>
      <point x="402.6" y="606.8" type="curve" smooth="yes"/>
      <point x="486.2" y="606.8"/>
      <point x="519.4" y="679.6"/>
      <point x="519.4" y="760.0" type="curve"/>
      <point x="434.2" y="760.0" type="line"/>
      <point x="434.2" y="721.2"/>
      <point x="428.3" y="692.0"/>
      <point x="396.3" y="692.0" type="curve" smooth="yes"/>
      <point x="375.0" y="692.0"/>
      <point x="358.9" y="707.5"/>
      <point x="341.5" y="722.8" type="curve" smooth="yes"/>
      <point x="319.1" y="742.4"/>
      <point x="291.4" y="760.0"/>
      <point x="251.4" y="760.0" type="curve" smooth="yes"/>
      <point x="167.8" y="760.0"/>
      <point x="134.6" y="687.2"/>
    </contour>
  </outline>
</glyph>
<glyph name="macroncomb" format="2">
  <unicode hex="0304"/>
  <note>
macron
</note>
  <anchor x="327.0" y="546.8" name="_top"/>
  <anchor x="327.0" y="720.0" name="top"/>
  <outline>
    <contour>
      <point x="159.4" y="720.0" type="line"/>
      <point x="159.4" y="624.4" type="line"/>
      <point x="494.6" y="624.4" type="line"/>
      <point x="494.6" y="720.0" type="line"/>
    </contour>
  </outline>
</glyph>
<glyph name="dotaccentcomb" format="2">
  <unicode hex="0307"/>
  <note>
dotaccent
</note>
  <anchor x="327.0" y="546.8" name="_top"/>
  <anchor x="327.0" y="755.2" name="top"/>
  <outline>
    <contour>
      <point x="327.0" y="612.8" type="curve" smooth="yes"/>
      <point x="367.3" y="612.8"/>
      <point x="398.2" y="639.0"/>
      <point x="398.2" y="684.0" type="curve" smooth="yes"/>
      <point x="398.2" y="727.3"/>
      <point x="367.3" y="755.2"/>
      <point x="327.0" y="755.2" type="curve" smooth="yes"/>
      <point x="286.7" y="755.2"/>
      <point x="255.8" y="727.3"/>
      <point x="255.8" y="684.0" type="curve" smooth="yes"/>
      <point x="255.8" y="639.0"/>
      <point x="286.7" y="612.8"/>
    </contour>
  </outline>
</glyph>
<glyph name="dieresiscomb" format="2">
  <unicode hex="0308"/>
  <note>
dieresis
</note>
  <anchor x="327.0" y="546.8" name="_top"/>
  <anchor x="327.0" y="752.4" name="top"/>
  <outline>
    <contour>
      <point x="425.0" y="615.6" type="curve" smooth="yes"/>
      <point x="463.9" y="615.6"/>
      <point x="493.4" y="640.4"/>
      <point x="493.4" y="684.0" type="curve" smooth="yes"/>
      <point x="493.4" y="725.9"/>
      <point x="463.9" y="752.4"/>
      <point x="425.0" y="752.4" type="curve" smooth="yes"/>
      <point x="386.1" y="752.4"/>
      <point x="356.6" y="725.9"/>
      <point x="356.6" y="684.0" type="curve" smooth="yes"/>
      <point x="356.6" y="640.4"/>
      <point x="386.1" y="615.6"/>
    </contour>
    <contour>
      <point x="229.0" y="615.6" type="curve" smooth="yes"/>
      <point x="267.9" y="615.6"/>
      <point x="297.4" y="640.4"/>
      <point x="297.4" y="684.0" type="curve" smooth="yes"/>
      <point x="297.4" y="725.9"/>
      <point x="267.9" y="752.4"/>
      <point x="229.0" y="752.4" type="curve" smooth="yes"/>
      <point x="190.1" y="752.4"/>
      <point x="160.6" y="725.9"/>
      <point x="160.6" y="684.0" type="curve" smooth="yes"/>
      <point x="160.6" y="640.4"/>
      <point x="190.1" y="615.6"/>
    </contour>
  </outline>
</glyph>
<glyph name="hookabovecomb" format="2">
  <unicode hex="0309"/>
  <anchor x="330.5" y="546.8" name="_top"/>
  <anchor x="344.5" y="828.3" name="top"/>
  <outline>
    <contour>
      <point x="285.6" y="640.5" type="curve"/>
      <point x="348.3" y="613.9" type="line"/>
      <point x="371.3" y="655.7"/>
      <point x="433.1" y="685.3"/>
      <point x="430.3" y="741.7" type="curve" smooth="yes"/>
      <point x="428.4" y="790.6"/>
      <point x="392.9" y="828.3"/>
      <point x="333.9" y="828.3" type="curve" smooth="yes"/>
      <point x="287.8" y="828.3"/>
      <point x="250.8" y="801.8"/>
      <point x="223.4" y="756.0" type="curve"/>
      <point x="269.3" y="723.1" type="line"/>
      <point x="280.3" y="739.7"/>
      <point x="296.3" y="756.6"/>
      <point x="318.2" y="756.6" type="curve" smooth="yes"/>
      <point x="332.8" y="756.6"/>
      <point x="344.7" y="745.0"/>
      <point x="345.6" y="729.1" type="curve" smooth="yes"/>
      <point x="347.7" y="692.6"/>
      <point x="300.7" y="680.0"/>
    </contour>
  </outline>
</glyph>
